PowerhouseFilarMono-RegularItalic.ufo
<glyph name="exclam" format="2">
  <advance width="600"/>
  <unicode hex="0021"/>
  <outline>
    <contour>
      <point x="432" y="700" type="line"/>
      <point x="328" y="700" type="line"/>
      <point x="268" y="227" type="line"/>
      <point x="326" y="227" type="line"/>
    </contour>
    <component base="period" xScale="-1" yScale="-1" xOffset="540" yOffset="149" identifier="91C28830"/>
  </outline>
</glyph>
<glyph name="quotedbl" format="2">
  <advance width="600"/>
  <unicode hex="0022"/>
  <outline>
    <contour>
      <point x="231" y="700" type="line"/>
      <point x="201" y="384" type="line"/>
      <point x="275" y="384" type="line"/>
      <point x="355" y="700" type="line"/>
    </contour>
    <contour>
      <point x="405" y="700" type="line"/>
      <point x="375" y="384" type="line"/>
      <point x="449" y="384" type="line"/>
      <point x="529" y="700" type="line"/>
    </contour>
  </outline>
</glyph>
<glyph name="numbersign" format="2">
  <advance width="600"/>
  <unicode hex="0023"/>
  <outline>
    <contour>
      <point x="401" y="700" type="line"/>
      <point x="318" y="700" type="line"/>
      <point x="29" y="0" type="line"/>
      <point x="112" y="0" type="line"/>
    </contour>
    <contour>
      <point x="620" y="507" type="line"/>
      <point x="117" y="507" type="line"/>
      <point x="105" y="435" type="line"/>
      <point x="608" y="435" type="line"/>
    </contour>
    <contour>
      <point x="608" y="700" type="line"/>
      <point x="525" y="700" type="line"/>
      <point x="236" y="0" type="line"/>
      <point x="319" y="0" type="line"/>
    </contour>
    <contour>
      <point x="537" y="293" type="line"/>
      <point x="34" y="293" type="line"/>
      <point x="22" y="221" type="line"/>
      <point x="525" y="221" type="line"/>
    </contour>
  </outline>
</glyph>
<glyph name="ampersand" format="2">
  <advance width="600"/>
  <unicode hex="0026"/>
  <outline>
    <contour>
      <point x="264" y="350" type="curve"/>
      <point x="250" y="415" type="line"/>
      <point x="106" y="375"/>
      <point x="25" y="296"/>
      <point x="25" y="169" type="curve" smooth="yes"/>
      <point x="25" y="65"/>
      <point x="110" y="-12"/>
      <point x="230" y="-12" type="curve" smooth="yes"/>
      <point x="383" y="-12"/>
      <point x="528" y="133"/>
      <point x="590" y="338" type="curve"/>
      <point x="510" y="351" type="line"/>
      <point x="455" y="171"/>
      <point x="349" y="66"/>
      <point x="237" y="66" type="curve" smooth="yes"/>
      <point x="164" y="66"/>
      <point x="117" y="112"/>
      <point x="117" y="182" type="curve" smooth="yes"/>
      <point x="117" y="263"/>
      <point x="163" y="318"/>
    </contour>
    <contour>
      <point x="554" y="0" type="line"/>
      <point x="281" y="425" type="line" smooth="yes"/>
      <point x="260" y="458"/>
      <point x="249" y="490"/>
      <point x="249" y="523" type="curve" smooth="yes"/>
      <point x="249" y="567"/>
      <point x="267" y="638"/>
      <point x="345" y="638" type="curve" smooth="yes"/>
      <point x="393" y="638"/>
      <point x="416" y="610"/>
      <point x="416" y="565" type="curve" smooth="yes"/>
      <point x="416" y="476"/>
      <point x="346" y="445"/>
      <point x="262" y="416" type="curve"/>
      <point x="277" y="352" type="line"/>
      <point x="392" y="388"/>
      <point x="497" y="446"/>
      <point x="497" y="569" type="curve" smooth="yes"/>
      <point x="497" y="655"/>
      <point x="437" y="712"/>
      <point x="345" y="712" type="curve" smooth="yes"/>
      <point x="239" y="712"/>
      <point x="165" y="632"/>
      <point x="165" y="523" type="curve" smooth="yes"/>
      <point x="165" y="469"/>
      <point x="184" y="422"/>
      <point x="210" y="382" type="curve" smooth="yes"/>
      <point x="457" y="0" type="line"/>
    </contour>
  </outline>
</glyph>
<glyph name="quotesingle" format="2">
  <advance width="600"/>
  <unicode hex="0027"/>
  <outline>
    <contour>
      <point x="318" y="700" type="line"/>
      <point x="288" y="384" type="line"/>
      <point x="362" y="384" type="line"/>
      <point x="442" y="700" type="line"/>
    </contour>
  </outline>
</glyph>
<glyph name="asterisk" format="2">
  <advance width="600"/>
  <unicode hex="002A"/>
  <guideline x="407" y="285" angle="33.6901" identifier="1NoHct9C1o"/>
  <guideline x="158" y="327" angle="319.3987" identifier="6zlh9Dkc5w"/>
  <guideline x="162" y="581" angle="63.778" identifier="jRNVTXJ8Kw"/>
  <guideline x="566" y="515" angle="278.4889" identifier="ADKHznR3ys"/>
  <outline>
    <contour>
      <point x="208" y="284" type="line"/>
      <point x="334" y="423" type="line"/>
      <point x="409" y="286" type="line"/>
      <point x="467" y="325" type="line"/>
      <point x="392" y="461" type="line"/>
      <point x="566" y="513" type="line"/>
      <point x="556" y="583" type="line"/>
      <point x="385" y="531" type="line"/>
      <point x="414" y="700" type="line"/>
      <point x="344" y="700" type="line"/>
      <point x="315" y="528" type="line"/>
      <point x="161" y="579" type="line"/>
      <point x="130" y="516" type="line"/>
      <point x="283" y="466" type="line"/>
      <point x="157" y="328" type="line"/>
    </contour>
  </outline>
</glyph>
<glyph name="plus" format="2">
  <advance width="600"/>
  <unicode hex="002B"/>
  <outline>
    <contour>
      <point x="538" y="302" type="line"/>
      <point x="552" y="378" type="line"/>
      <point x="96" y="378" type="line"/>
      <point x="82" y="302" type="line"/>
    </contour>
    <contour>
      <point x="398" y="578" type="line"/>
      <point x="320" y="578" type="line"/>
      <point x="236" y="102" type="line"/>
      <point x="314" y="102" type="line"/>
    </contour>
  </outline>
</glyph>
<glyph name="comma" format="2">
  <advance width="600"/>
  <unicode hex="002C"/>
  <outline>
    <contour>
      <point x="220" y="149" type="line"/>
      <point x="194" y="0" type="line"/>
      <point x="257" y="0" type="line"/>
      <point x="255" y="-12" type="line" smooth="yes"/>
      <point x="246" y="-67"/>
      <point x="212" y="-90"/>
      <point x="157" y="-90" type="curve"/>
      <point x="147" y="-146" type="line"/>
      <point x="266" y="-146"/>
      <point x="307" y="-73"/>
      <point x="318" y="-12" type="curve" smooth="yes"/>
      <point x="346" y="149" type="line"/>
    </contour>
  </outline>
</glyph>
<glyph name="slash" format="2">
  <advance width="600"/>
  <unicode hex="002F"/>
  <outline>
    <contour>
      <point x="538" y="745" type="line"/>
      <point x="-35" y="-113" type="line"/>
      <point x="62" y="-113" type="line"/>
      <point x="635" y="745" type="line"/>
    </contour>
  </outline>
</glyph>
<glyph name="eight" format="2">
  <advance width="600"/>
  <unicode hex="0038"/>
  <outline>
    <contour>
      <point x="206" y="510" type="curve" smooth="yes"/>
      <point x="206" y="575"/>
      <point x="256" y="643"/>
      <point x="362" y="643" type="curve" smooth="yes"/>
      <point x="448" y="643"/>
      <point x="494" y="598"/>
      <point x="494" y="537" type="curve" smooth="yes"/>
      <point x="494" y="472"/>
      <point x="444" y="406"/>
      <point x="338" y="406" type="curve" smooth="yes"/>
      <point x="252" y="406"/>
      <point x="206" y="449"/>
    </contour>
    <contour>
      <point x="368" y="712" type="curve" smooth="yes"/>
      <point x="205" y="712"/>
      <point x="117" y="612"/>
      <point x="117" y="506" type="curve" smooth="yes"/>
      <point x="117" y="427"/>
      <point x="172" y="386"/>
      <point x="241" y="371" type="curve"/>
      <point x="244" y="389" type="line"/>
      <point x="136" y="373"/>
      <point x="43" y="292"/>
      <point x="43" y="172" type="curve" smooth="yes"/>
      <point x="43" y="65"/>
      <point x="135" y="-12"/>
      <point x="270" y="-12" type="curve" smooth="yes"/>
      <point x="433" y="-12"/>
      <point x="541" y="90"/>
      <point x="541" y="222" type="curve" smooth="yes"/>
      <point x="541" y="308"/>
      <point x="486" y="363"/>
      <point x="406" y="381" type="curve"/>
      <point x="403" y="363" type="line"/>
      <point x="502" y="374"/>
      <point x="583" y="443"/>
      <point x="583" y="546" type="curve" smooth="yes"/>
      <point x="583" y="647"/>
      <point x="497" y="712"/>
    </contour>
    <contour>
      <point x="453" y="215" type="curve" smooth="yes"/>
      <point x="453" y="140"/>
      <point x="389" y="60"/>
      <point x="277" y="60" type="curve" smooth="yes"/>
      <point x="187" y="60"/>
      <point x="133" y="112"/>
      <point x="133" y="183" type="curve" smooth="yes"/>
      <point x="133" y="258"/>
      <point x="196" y="340"/>
      <point x="308" y="340" type="curve" smooth="yes"/>
      <point x="398" y="340"/>
      <point x="453" y="286"/>
    </contour>
  </outline>
</glyph>
<glyph name="less" format="2">
  <advance width="600"/>
  <unicode hex="003C"/>
  <outline>
    <contour>
      <point x="97" y="383" type="line"/>
      <point x="81" y="297" type="line"/>
      <point x="498" y="76" type="line"/>
      <point x="512" y="158" type="line"/>
      <point x="152" y="348" type="line"/>
      <point x="147" y="319" type="line"/>
      <point x="574" y="509" type="line"/>
      <point x="592" y="604" type="line"/>
    </contour>
  </outline>
</glyph>
<glyph name="at" format="2">
  <advance width="600"/>
  <unicode hex="0040"/>
  <outline>
    <contour>
      <point x="23" y="244" type="curve" smooth="yes"/>
      <point x="-18" y="11"/>
      <point x="83" y="-130"/>
      <point x="266" y="-130" type="curve" smooth="yes"/>
      <point x="318" y="-130"/>
      <point x="380" y="-117"/>
      <point x="431" y="-86" type="curve"/>
      <point x="409" y="-33" type="line"/>
      <point x="360" y="-56"/>
      <point x="314" y="-66"/>
      <point x="272" y="-66" type="curve" smooth="yes"/>
      <point x="117" y="-66"/>
      <point x="59" y="52"/>
      <point x="91" y="234" type="curve" smooth="yes"/>
      <point x="129" y="450"/>
      <point x="240" y="572"/>
      <point x="377" y="572" type="curve" smooth="yes"/>
      <point x="478" y="572"/>
      <point x="552" y="498"/>
      <point x="516" y="296" type="curve" smooth="yes"/>
      <point x="497" y="189"/>
      <point x="462" y="124"/>
      <point x="424" y="124" type="curve" smooth="yes"/>
      <point x="400" y="124"/>
      <point x="393" y="142"/>
      <point x="403" y="179" type="curve" smooth="yes"/>
      <point x="480" y="451" type="line"/>
      <point x="409" y="451" type="line"/>
      <point x="397" y="406" type="line"/>
      <point x="387" y="435"/>
      <point x="360" y="457"/>
      <point x="319" y="457" type="curve" smooth="yes"/>
      <point x="265" y="457"/>
      <point x="196" y="409"/>
      <point x="162" y="290" type="curve" smooth="yes"/>
      <point x="114" y="122"/>
      <point x="176" y="52"/>
      <point x="245" y="52" type="curve" smooth="yes"/>
      <point x="281" y="52"/>
      <point x="313" y="70"/>
      <point x="340" y="108" type="curve"/>
      <point x="343" y="77"/>
      <point x="364" y="52"/>
      <point x="410" y="52" type="curve" smooth="yes"/>
      <point x="493" y="52"/>
      <point x="562" y="158"/>
      <point x="585" y="286" type="curve" smooth="yes"/>
      <point x="629" y="538"/>
      <point x="513" y="636"/>
      <point x="380" y="636" type="curve" smooth="yes"/>
      <point x="206" y="636"/>
      <point x="67" y="495"/>
    </contour>
    <contour>
      <point x="352" y="241" type="curve" smooth="yes"/>
      <point x="328" y="155"/>
      <point x="299" y="118"/>
      <point x="262" y="118" type="curve" smooth="yes"/>
      <point x="215" y="118"/>
      <point x="204" y="170"/>
      <point x="233" y="270" type="curve" smooth="yes"/>
      <point x="257" y="354"/>
      <point x="291" y="391"/>
      <point x="326" y="391" type="curve" smooth="yes"/>
      <point x="370" y="391"/>
      <point x="380" y="338"/>
    </contour>
  </outline>
</glyph>
<glyph name="A" format="2">
  <advance width="600"/>
  <unicode hex="0041"/>
  <outline>
    <contour>
      <point x="140" y="289" type="line"/>
      <point x="129" y="210" type="line"/>
      <point x="468" y="210" type="line"/>
      <point x="482" y="289" type="line"/>
    </contour>
    <contour>
      <point x="448" y="0" type="line"/>
      <point x="535" y="0" type="line"/>
      <point x="432" y="700" type="line"/>
      <point x="330" y="700" type="line"/>
      <point x="-21" y="0" type="line"/>
      <point x="79" y="0" type="line"/>
      <point x="390" y="631" type="line"/>
      <point x="361" y="631" type="line"/>
    </contour>
  </outline>
</glyph>
<glyph name="B" format="2">
  <advance width="600"/>
  <unicode hex="0042"/>
  <outline>
    <contour>
      <point x="163" y="700" type="line"/>
      <point x="39" y="0" type="line"/>
      <point x="130" y="0" type="line"/>
      <point x="254" y="700" type="line"/>
    </contour>
    <contour>
      <point x="298" y="0" type="line"/>
      <point x="448" y="0"/>
      <point x="551" y="103"/>
      <point x="551" y="226" type="curve" smooth="yes"/>
      <point x="551" y="304"/>
      <point x="506" y="347"/>
      <point x="457" y="370" type="curve"/>
      <point x="454" y="353" type="line"/>
      <point x="532" y="375"/>
      <point x="592" y="449"/>
      <point x="592" y="541" type="curve" smooth="yes"/>
      <point x="592" y="636"/>
      <point x="528" y="700"/>
      <point x="422" y="700" type="curve" smooth="yes"/>
      <point x="197" y="700" type="line"/>
      <point x="182" y="619" type="line"/>
      <point x="400" y="619" type="line" smooth="yes"/>
      <point x="464" y="619"/>
      <point x="502" y="585"/>
      <point x="502" y="527" type="curve" smooth="yes"/>
      <point x="502" y="463"/>
      <point x="457" y="400"/>
      <point x="366" y="400" type="curve" smooth="yes"/>
      <point x="143" y="400" type="line"/>
      <point x="129" y="319" type="line"/>
      <point x="349" y="319" type="line" smooth="yes"/>
      <point x="414" y="319"/>
      <point x="459" y="285"/>
      <point x="459" y="218" type="curve" smooth="yes"/>
      <point x="459" y="142"/>
      <point x="401" y="81"/>
      <point x="307" y="81" type="curve" smooth="yes"/>
      <point x="88" y="81" type="line"/>
      <point x="73" y="0" type="line"/>
    </contour>
  </outline>
</glyph>
<glyph name="C" format="2">
  <advance width="600"/>
  <unicode hex="0043"/>
  <outline>
    <contour>
      <point x="65" y="275" type="curve" smooth="yes"/>
      <point x="65" y="100"/>
      <point x="148" y="-12"/>
      <point x="288" y="-12" type="curve" smooth="yes"/>
      <point x="404" y="-12"/>
      <point x="496" y="72"/>
      <point x="547" y="204" type="curve"/>
      <point x="470" y="229" type="line"/>
      <point x="430" y="129"/>
      <point x="372" y="69"/>
      <point x="293" y="69" type="curve" smooth="yes"/>
      <point x="205" y="69"/>
      <point x="154" y="145"/>
      <point x="154" y="269" type="curve" smooth="yes"/>
      <point x="154" y="472"/>
      <point x="247" y="631"/>
      <point x="370" y="631" type="curve" smooth="yes"/>
      <point x="454" y="631"/>
      <point x="499" y="580"/>
      <point x="512" y="462" type="curve"/>
      <point x="593" y="483" type="line"/>
      <point x="576" y="637"/>
      <point x="500" y="712"/>
      <point x="379" y="712" type="curve" smooth="yes"/>
      <point x="200" y="712"/>
      <point x="65" y="515"/>
    </contour>
  </outline>
</glyph>
<glyph name="D" format="2">
  <advance width="600"/>
  <unicode hex="0044"/>
  <outline>
    <contour>
      <point x="72" y="82" type="line"/>
      <point x="58" y="0" type="line"/>
      <point x="238" y="0" type="line" smooth="yes"/>
      <point x="458" y="0"/>
      <point x="576" y="200"/>
      <point x="576" y="408" type="curve" smooth="yes"/>
      <point x="576" y="580"/>
      <point x="489" y="700"/>
      <point x="316" y="700" type="curve" smooth="yes"/>
      <point x="180" y="700" type="line"/>
      <point x="166" y="618" type="line"/>
      <point x="298" y="618" type="line" smooth="yes"/>
      <point x="430" y="618"/>
      <point x="484" y="529"/>
      <point x="484" y="409" type="curve" smooth="yes"/>
      <point x="484" y="217"/>
      <point x="386" y="82"/>
      <point x="246" y="82" type="curve" smooth="yes"/>
    </contour>
    <contour>
      <point x="147" y="700" type="line"/>
      <point x="24" y="0" type="line"/>
      <point x="115" y="0" type="line"/>
      <point x="238" y="700" type="line"/>
    </contour>
  </outline>
</glyph>
<glyph name="E" format="2">
  <advance width="600"/>
  <unicode hex="0045"/>
  <outline>
    <contour>
      <point x="182" y="700" type="line"/>
      <point x="59" y="0" type="line"/>
      <point x="150" y="0" type="line"/>
      <point x="273" y="700" type="line"/>
    </contour>
    <contour>
      <point x="203" y="618" type="line"/>
      <point x="599" y="618" type="line"/>
      <point x="613" y="700" type="line"/>
      <point x="217" y="700" type="line"/>
    </contour>
    <contour>
      <point x="159" y="315" type="line"/>
      <point x="407" y="315" type="line"/>
      <point x="422" y="396" type="line"/>
      <point x="174" y="396" type="line"/>
    </contour>
    <contour>
      <point x="98" y="0" type="line"/>
      <point x="508" y="0" type="line"/>
      <point x="522" y="82" type="line"/>
      <point x="112" y="82" type="line"/>
    </contour>
  </outline>
</glyph>
<glyph name="F" format="2">
  <advance width="600"/>
  <unicode hex="0046"/>
  <outline>
    <contour>
      <point x="187" y="700" type="line"/>
      <point x="64" y="0" type="line"/>
      <point x="155" y="0" type="line"/>
      <point x="278" y="700" type="line"/>
    </contour>
    <contour>
      <point x="208" y="618" type="line"/>
      <point x="624" y="618" type="line"/>
      <point x="638" y="700" type="line"/>
      <point x="222" y="700" type="line"/>
    </contour>
    <contour>
      <point x="163" y="306" type="line"/>
      <point x="500" y="306" type="line"/>
      <point x="514" y="388" type="line"/>
      <point x="177" y="388" type="line"/>
    </contour>
  </outline>
</glyph>
<glyph name="G" format="2">
  <advance width="600"/>
  <unicode hex="0047"/>
  <outline>
    <contour>
      <point x="456" y="144" type="line"/>
      <point x="431" y="0" type="line"/>
      <point x="506" y="0" type="line"/>
      <point x="571" y="367" type="line"/>
      <point x="361" y="367" type="line"/>
      <point x="348" y="294" type="line"/>
      <point x="528" y="294" type="line"/>
      <point x="485" y="311" type="line"/>
      <point x="476" y="260" type="line" smooth="yes"/>
      <point x="457" y="151"/>
      <point x="381" y="67"/>
      <point x="282" y="67" type="curve" smooth="yes"/>
      <point x="193" y="67"/>
      <point x="143" y="138"/>
      <point x="143" y="262" type="curve" smooth="yes"/>
      <point x="143" y="477"/>
      <point x="235" y="631"/>
      <point x="370" y="631" type="curve" smooth="yes"/>
      <point x="458" y="631"/>
      <point x="497" y="547"/>
      <point x="504" y="474" type="curve"/>
      <point x="587" y="495" type="line"/>
      <point x="574" y="617"/>
      <point x="506" y="712"/>
      <point x="374" y="712" type="curve" smooth="yes"/>
      <point x="186" y="712"/>
      <point x="53" y="521"/>
      <point x="53" y="272" type="curve" smooth="yes"/>
      <point x="53" y="118"/>
      <point x="127" y="-12"/>
      <point x="264" y="-12" type="curve" smooth="yes"/>
      <point x="362" y="-12"/>
      <point x="435" y="49"/>
      <point x="482" y="144" type="curve"/>
    </contour>
  </outline>
</glyph>
<glyph name="H" format="2">
  <advance width="600"/>
  <unicode hex="0048"/>
  <outline>
    <contour>
      <point x="127" y="320" type="line"/>
      <point x="500" y="320" type="line"/>
      <point x="515" y="402" type="line"/>
      <point x="142" y="402" type="line"/>
    </contour>
    <contour>
      <point x="522" y="700" type="line"/>
      <point x="399" y="0" type="line"/>
      <point x="490" y="0" type="line"/>
      <point x="613" y="700" type="line"/>
    </contour>
    <contour>
      <point x="147" y="700" type="line"/>
      <point x="24" y="0" type="line"/>
      <point x="115" y="0" type="line"/>
      <point x="238" y="700" type="line"/>
    </contour>
  </outline>
</glyph>
<glyph name="I" format="2">
  <advance width="600"/>
  <unicode hex="0049"/>
  <outline>
    <contour>
      <point x="335" y="700" type="line"/>
      <point x="212" y="0" type="line"/>
      <point x="303" y="0" type="line"/>
      <point x="426" y="700" type="line"/>
    </contour>
    <contour>
      <point x="32" y="0" type="line"/>
      <point x="483" y="0" type="line"/>
      <point x="497" y="82" type="line"/>
      <point x="46" y="82" type="line"/>
    </contour>
    <contour>
      <point x="141" y="618" type="line"/>
      <point x="592" y="618" type="line"/>
      <point x="606" y="700" type="line"/>
      <point x="155" y="700" type="line"/>
    </contour>
  </outline>
</glyph>
<glyph name="K" format="2">
  <advance width="600"/>
  <unicode hex="004B"/>
  <outline>
    <contour>
      <point x="127" y="296" type="line"/>
      <point x="117" y="179" type="line"/>
      <point x="275" y="335" type="line"/>
      <point x="305" y="359" type="line"/>
      <point x="650" y="700" type="line"/>
      <point x="527" y="700" type="line"/>
    </contour>
    <contour>
      <point x="158" y="700" type="line"/>
      <point x="35" y="0" type="line"/>
      <point x="126" y="0" type="line"/>
      <point x="249" y="700" type="line"/>
    </contour>
    <contour>
      <point x="246" y="350" type="line"/>
      <point x="463" y="0" type="line"/>
      <point x="566" y="0" type="line"/>
      <point x="305" y="416" type="line"/>
    </contour>
  </outline>
</glyph>
<glyph name="M" format="2">
  <advance width="600"/>
  <unicode hex="004D"/>
  <outline>
    <contour>
      <point x="194" y="621" type="line"/>
      <point x="282" y="230" type="line"/>
      <point x="312" y="230" type="line"/>
      <point x="541" y="622" type="line"/>
      <point x="519" y="622" type="line"/>
      <point x="410" y="0" type="line"/>
      <point x="496" y="0" type="line"/>
      <point x="619" y="700" type="line"/>
      <point x="500" y="700" type="line"/>
      <point x="299" y="353" type="line"/>
      <point x="332" y="353" type="line"/>
      <point x="254" y="700" type="line"/>
      <point x="141" y="700" type="line"/>
      <point x="18" y="0" type="line"/>
      <point x="105" y="0" type="line"/>
      <point x="214" y="621" type="line"/>
    </contour>
  </outline>
</glyph>
<glyph name="N" format="2">
  <advance width="600"/>
  <unicode hex="004E"/>
  <outline>
    <contour>
      <point x="461" y="40" type="line"/>
      <point x="274" y="700" type="line"/>
      <point x="147" y="700" type="line"/>
      <point x="24" y="0" type="line"/>
      <point x="111" y="0" type="line"/>
      <point x="227" y="657" type="line"/>
      <point x="201" y="657" type="line"/>
      <point x="387" y="0" type="line"/>
      <point x="490" y="0" type="line"/>
      <point x="613" y="700" type="line"/>
      <point x="526" y="700" type="line"/>
      <point x="410" y="40" type="line"/>
    </contour>
  </outline>
</glyph>
<glyph name="O" format="2">
  <advance width="600"/>
  <unicode hex="004F"/>
  <outline>
    <contour>
      <point x="495" y="434" type="curve" smooth="yes"/>
      <point x="495" y="228"/>
      <point x="403" y="69"/>
      <point x="281" y="69" type="curve" smooth="yes"/>
      <point x="191" y="69"/>
      <point x="142" y="142"/>
      <point x="142" y="269" type="curve" smooth="yes"/>
      <point x="142" y="472"/>
      <point x="235" y="631"/>
      <point x="358" y="631" type="curve" smooth="yes"/>
      <point x="448" y="631"/>
      <point x="495" y="560"/>
    </contour>
    <contour>
      <point x="53" y="275" type="curve" smooth="yes"/>
      <point x="53" y="100"/>
      <point x="136" y="-12"/>
      <point x="276" y="-12" type="curve" smooth="yes"/>
      <point x="450" y="-12"/>
      <point x="584" y="187"/>
      <point x="584" y="426" type="curve" smooth="yes"/>
      <point x="584" y="601"/>
      <point x="504" y="712"/>
      <point x="364" y="712" type="curve" smooth="yes"/>
      <point x="188" y="712"/>
      <point x="53" y="515"/>
    </contour>
  </outline>
</glyph>
<glyph name="P" format="2">
  <advance width="600"/>
  <unicode hex="0050"/>
  <outline>
    <contour>
      <point x="170" y="700" type="line"/>
      <point x="46" y="0" type="line"/>
      <point x="137" y="0" type="line"/>
      <point x="261" y="700" type="line"/>
    </contour>
    <contour>
      <point x="418" y="619" type="line"/>
      <point x="488" y="619"/>
      <point x="528" y="591"/>
      <point x="528" y="526" type="curve" smooth="yes"/>
      <point x="528" y="457"/>
      <point x="484" y="397"/>
      <point x="378" y="397" type="curve" smooth="yes"/>
      <point x="157" y="397" type="line"/>
      <point x="143" y="316" type="line"/>
      <point x="374" y="316" type="line" smooth="yes"/>
      <point x="547" y="316"/>
      <point x="620" y="422"/>
      <point x="620" y="531" type="curve" smooth="yes"/>
      <point x="620" y="637"/>
      <point x="544" y="700"/>
      <point x="435" y="700" type="curve" smooth="yes"/>
      <point x="212" y="700" type="line"/>
      <point x="198" y="619" type="line"/>
    </contour>
  </outline>
</glyph>
<glyph name="Q" format="2">
  <advance width="600"/>
  <unicode hex="0051"/>
  <outline>
    <contour>
      <point x="214" y="-59" type="curve" smooth="yes"/>
      <point x="214" y="-135"/>
      <point x="271" y="-181"/>
      <point x="349" y="-181" type="curve" smooth="yes"/>
      <point x="363" y="-181"/>
      <point x="380" y="-180"/>
      <point x="399" y="-177" type="curve"/>
      <point x="412" y="-103" type="line"/>
      <point x="395" y="-105"/>
      <point x="380" y="-106"/>
      <point x="366" y="-106" type="curve" smooth="yes"/>
      <point x="325" y="-106"/>
      <point x="305" y="-85"/>
      <point x="305" y="-48" type="curve" smooth="yes"/>
      <point x="305" y="-42"/>
      <point x="306" y="-35"/>
      <point x="307" y="-27" type="curve" smooth="yes"/>
      <point x="317" y="27" type="line"/>
      <point x="227" y="27" type="line"/>
      <point x="217" y="-28" type="line" smooth="yes"/>
      <point x="215" y="-39"/>
      <point x="214" y="-49"/>
    </contour>
    <contour>
      <point x="495" y="434" type="curve" smooth="yes"/>
      <point x="495" y="228"/>
      <point x="403" y="69"/>
      <point x="281" y="69" type="curve" smooth="yes"/>
      <point x="191" y="69"/>
      <point x="142" y="142"/>
      <point x="142" y="269" type="curve" smooth="yes"/>
      <point x="142" y="472"/>
      <point x="235" y="631"/>
      <point x="358" y="631" type="curve" smooth="yes"/>
      <point x="448" y="631"/>
      <point x="495" y="560"/>
    </contour>
    <contour>
      <point x="53" y="275" type="curve" smooth="yes"/>
      <point x="53" y="100"/>
      <point x="136" y="-12"/>
      <point x="276" y="-12" type="curve" smooth="yes"/>
      <point x="450" y="-12"/>
      <point x="584" y="187"/>
      <point x="584" y="426" type="curve" smooth="yes"/>
      <point x="584" y="601"/>
      <point x="504" y="712"/>
      <point x="364" y="712" type="curve" smooth="yes"/>
      <point x="188" y="712"/>
      <point x="53" y="515"/>
    </contour>
  </outline>
</glyph>
<glyph name="R" format="2">
  <advance width="600"/>
  <unicode hex="0052"/>
  <outline>
    <contour>
      <point x="177" y="700" type="line"/>
      <point x="53" y="0" type="line"/>
      <point x="144" y="0" type="line"/>
      <point x="268" y="700" type="line"/>
    </contour>
    <contour>
      <point x="263" y="324" type="line"/>
      <point x="304" y="230"/>
      <point x="381" y="79"/>
      <point x="437" y="0" type="curve"/>
      <point x="535" y="0" type="line"/>
      <point x="535" y="7" type="line"/>
      <point x="480" y="82"/>
      <point x="400" y="231"/>
      <point x="358" y="324" type="curve"/>
    </contour>
    <contour>
      <point x="347" y="373" type="curve" smooth="yes"/>
      <point x="161" y="373" type="line"/>
      <point x="147" y="293" type="line"/>
      <point x="340" y="293" type="line" smooth="yes"/>
      <point x="515" y="293"/>
      <point x="592" y="406"/>
      <point x="592" y="522" type="curve" smooth="yes"/>
      <point x="592" y="629"/>
      <point x="519" y="700"/>
      <point x="404" y="700" type="curve" smooth="yes"/>
      <point x="224" y="700" type="line"/>
      <point x="210" y="619" type="line"/>
      <point x="391" y="619" type="line" smooth="yes"/>
      <point x="459" y="619"/>
      <point x="500" y="584"/>
      <point x="500" y="516" type="curve" smooth="yes"/>
      <point x="500" y="447"/>
      <point x="457" y="373"/>
    </contour>
  </outline>
</glyph>
<glyph name="S" format="2">
  <advance width="600"/>
  <unicode hex="0053"/>
  <outline>
    <contour>
      <point x="44" y="186" type="curve" smooth="yes"/>
      <point x="44" y="69"/>
      <point x="136" y="-12"/>
      <point x="276" y="-12" type="curve" smooth="yes"/>
      <point x="428" y="-12"/>
      <point x="541" y="82"/>
      <point x="541" y="228" type="curve" smooth="yes"/>
      <point x="541" y="315"/>
      <point x="491" y="365"/>
      <point x="395" y="384" type="curve" smooth="yes"/>
      <point x="310" y="401" type="line" smooth="yes"/>
      <point x="237" y="416"/>
      <point x="204" y="447"/>
      <point x="204" y="501" type="curve" smooth="yes"/>
      <point x="204" y="580"/>
      <point x="264" y="633"/>
      <point x="361" y="633" type="curve" smooth="yes"/>
      <point x="443" y="633"/>
      <point x="486" y="584"/>
      <point x="486" y="528" type="curve" smooth="yes"/>
      <point x="486" y="525"/>
      <point x="486" y="522"/>
      <point x="486" y="519" type="curve"/>
      <point x="579" y="513" type="line"/>
      <point x="579" y="518"/>
      <point x="580" y="524"/>
      <point x="580" y="529" type="curve" smooth="yes"/>
      <point x="580" y="626"/>
      <point x="504" y="712"/>
      <point x="365" y="712" type="curve" smooth="yes"/>
      <point x="225" y="712"/>
      <point x="115" y="631"/>
      <point x="115" y="490" type="curve" smooth="yes"/>
      <point x="115" y="400"/>
      <point x="167" y="341"/>
      <point x="273" y="320" type="curve" smooth="yes"/>
      <point x="358" y="303" type="line" smooth="yes"/>
      <point x="421" y="290"/>
      <point x="451" y="262"/>
      <point x="451" y="211" type="curve" smooth="yes"/>
      <point x="451" y="125"/>
      <point x="384" y="67"/>
      <point x="288" y="67" type="curve" smooth="yes"/>
      <point x="184" y="67"/>
      <point x="132" y="122"/>
      <point x="139" y="207" type="curve"/>
      <point x="46" y="214" type="line"/>
      <point x="45" y="204"/>
      <point x="44" y="195"/>
    </contour>
  </outline>
</glyph>
<glyph name="T" format="2">
  <advance width="600"/>
  <unicode hex="0054"/>
  <outline>
    <contour>
      <point x="329" y="671" type="line"/>
      <point x="211" y="0" type="line"/>
      <point x="302" y="0" type="line"/>
      <point x="420" y="671" type="line"/>
    </contour>
    <contour>
      <point x="107" y="620" type="line"/>
      <point x="624" y="620" type="line"/>
      <point x="638" y="700" type="line"/>
      <point x="121" y="700" type="line"/>
    </contour>
  </outline>
</glyph>
<glyph name="U" format="2">
  <advance width="600"/>
  <unicode hex="0055"/>
  <outline>
    <contour>
      <point x="530" y="214" type="curve" smooth="yes"/>
      <point x="616" y="700" type="line"/>
      <point x="526" y="700" type="line"/>
      <point x="442" y="224" type="line" smooth="yes"/>
      <point x="425" y="126"/>
      <point x="379" y="71"/>
      <point x="277" y="71" type="curve" smooth="yes"/>
      <point x="198" y="71"/>
      <point x="148" y="115"/>
      <point x="148" y="191" type="curve" smooth="yes"/>
      <point x="148" y="202"/>
      <point x="149" y="214"/>
      <point x="151" y="226" type="curve" smooth="yes"/>
      <point x="235" y="700" type="line"/>
      <point x="144" y="700" type="line"/>
      <point x="62" y="233" type="line" smooth="yes"/>
      <point x="59" y="217"/>
      <point x="58" y="201"/>
      <point x="58" y="186" type="curve" smooth="yes"/>
      <point x="58" y="69"/>
      <point x="140" y="-12"/>
      <point x="274" y="-12" type="curve" smooth="yes"/>
      <point x="422" y="-12"/>
      <point x="507" y="81"/>
    </contour>
  </outline>
</glyph>
<glyph name="V" format="2">
  <advance width="600"/>
  <unicode hex="0056"/>
  <outline>
    <contour>
      <point x="192" y="700" type="line"/>
      <point x="102" y="700" type="line"/>
      <point x="206" y="0" type="line"/>
      <point x="308" y="0" type="line"/>
      <point x="658" y="700" type="line"/>
      <point x="559" y="700" type="line"/>
      <point x="247" y="60" type="line"/>
      <point x="278" y="60" type="line"/>
    </contour>
  </outline>
</glyph>
<glyph name="W" format="2">
  <advance width="600"/>
  <unicode hex="0057"/>
  <outline>
    <contour>
      <point x="435" y="0" type="line"/>
      <point x="665" y="700" type="line"/>
      <point x="581" y="700" type="line"/>
      <point x="370" y="36" type="line"/>
      <point x="404" y="36" type="line"/>
      <point x="399" y="520" type="line"/>
      <point x="298" y="520" type="line"/>
      <point x="126" y="36" type="line"/>
      <point x="155" y="36" type="line"/>
      <point x="174" y="700" type="line"/>
      <point x="95" y="700" type="line"/>
      <point x="80" y="0" type="line"/>
      <point x="186" y="0" type="line"/>
      <point x="352" y="467" type="line"/>
      <point x="328" y="467" type="line"/>
      <point x="332" y="0" type="line"/>
    </contour>
  </outline>
</glyph>
<glyph name="X" format="2">
  <advance width="600"/>
  <unicode hex="0058"/>
  <outline>
    <contour>
      <point x="116" y="700" type="line"/>
      <point x="274" y="344" type="line"/>
      <point x="292" y="327" type="line"/>
      <point x="442" y="0" type="line"/>
      <point x="538" y="0" type="line"/>
      <point x="357" y="394" type="line"/>
      <point x="339" y="404" type="line"/>
      <point x="212" y="700" type="line"/>
    </contour>
    <contour>
      <point x="646" y="700" type="line"/>
      <point x="539" y="700" type="line"/>
      <point x="306" y="398" type="line"/>
      <point x="284" y="386" type="line"/>
      <point x="-21" y="0" type="line"/>
      <point x="87" y="0" type="line"/>
      <point x="345" y="330" type="line"/>
      <point x="369" y="344" type="line"/>
    </contour>
  </outline>
</glyph>
<glyph name="Y" format="2">
  <advance width="600"/>
  <unicode hex="0059"/>
  <outline>
    <contour>
      <point x="334" y="344" type="line"/>
      <point x="180" y="700" type="line"/>
      <point x="87" y="700" type="line"/>
      <point x="263" y="297" type="line"/>
      <point x="211" y="0" type="line"/>
      <point x="302" y="0" type="line"/>
      <point x="354" y="297" type="line"/>
      <point x="673" y="700" type="line"/>
      <point x="566" y="700" type="line"/>
      <point x="286" y="344" type="line"/>
    </contour>
  </outline>
</glyph>
<glyph name="Z" format="2">
  <advance width="600"/>
  <unicode hex="005A"/>
  <outline>
    <contour>
      <point x="22" y="0" type="line"/>
      <point x="492" y="0" type="line"/>
      <point x="506" y="82" type="line"/>
      <point x="114" y="82" type="line"/>
      <point x="111" y="27" type="line"/>
      <point x="598" y="639" type="line"/>
      <point x="609" y="700" type="line"/>
      <point x="144" y="700" type="line"/>
      <point x="130" y="618" type="line"/>
      <point x="522" y="618" type="line"/>
      <point x="507" y="658" type="line"/>
      <point x="33" y="62" type="line"/>
    </contour>
  </outline>
</glyph>
<glyph name="bracketleft" format="2">
  <advance width="600"/>
  <unicode hex="005B"/>
  <outline>
    <contour>
      <point x="184" y="-113" type="line"/>
      <point x="404" y="-113" type="line"/>
      <point x="416" y="-43" type="line"/>
      <point x="286" y="-43" type="line"/>
      <point x="413" y="675" type="line"/>
      <point x="543" y="675" type="line"/>
      <point x="555" y="745" type="line"/>
      <point x="335" y="745" type="line"/>
    </contour>
  </outline>
</glyph>
<glyph name="backslash" format="2">
  <advance width="600"/>
  <unicode hex="005C"/>
  <outline>
    <contour>
      <point x="226" y="745" type="line"/>
      <point x="141" y="745" type="line"/>
      <point x="424" y="-113" type="line"/>
      <point x="509" y="-113" type="line"/>
    </contour>
  </outline>
</glyph>
<glyph name="underscore" format="2">
  <advance width="600"/>
  <unicode hex="005F"/>
  <outline>
    <contour>
      <point x="-38" y="-140" type="line"/>
      <point x="502" y="-140" type="line"/>
      <point x="514" y="-70" type="line"/>
      <point x="-26" y="-70" type="line"/>
    </contour>
  </outline>
</glyph>
<glyph name="a" format="2">
  <advance width="600"/>
  <unicode hex="0061"/>
  <guideline x="50" y="136" angle="80"/>
  <guideline x="259" y="286" angle="4.9166"/>
  <guideline x="262" y="221" angle="5.3454"/>
  <outline>
    <contour>
      <point x="379" y="96" type="line"/>
      <point x="378" y="87"/>
      <point x="377" y="79"/>
      <point x="377" y="71" type="curve" smooth="yes"/>
      <point x="377" y="10"/>
      <point x="416" y="-10"/>
      <point x="460" y="-10" type="curve" smooth="yes"/>
      <point x="468" y="-10"/>
      <point x="475" y="-10"/>
      <point x="486" y="-8" type="curve"/>
      <point x="498" y="64" type="line"/>
      <point x="495" y="64"/>
      <point x="490" y="64"/>
      <point x="486" y="64" type="curve" smooth="yes"/>
      <point x="468" y="64"/>
      <point x="461" y="74"/>
      <point x="461" y="90" type="curve" smooth="yes"/>
      <point x="461" y="93"/>
      <point x="461" y="94"/>
      <point x="462" y="100" type="curve" smooth="yes"/>
      <point x="504" y="327" type="line" smooth="yes"/>
      <point x="506" y="341"/>
      <point x="508" y="354"/>
      <point x="508" y="366" type="curve" smooth="yes"/>
      <point x="508" y="453"/>
      <point x="445" y="502"/>
      <point x="325" y="502" type="curve" smooth="yes"/>
      <point x="184" y="502"/>
      <point x="131" y="428"/>
      <point x="113" y="355" type="curve"/>
      <point x="199" y="339" type="line"/>
      <point x="211" y="387"/>
      <point x="234" y="429"/>
      <point x="316" y="429" type="curve" smooth="yes"/>
      <point x="380" y="429"/>
      <point x="420" y="408"/>
      <point x="420" y="359" type="curve" smooth="yes"/>
      <point x="420" y="353"/>
      <point x="419" y="347"/>
      <point x="418" y="340" type="curve" smooth="yes"/>
      <point x="389" y="174" type="line" smooth="yes"/>
      <point x="378" y="113"/>
      <point x="307" y="59"/>
      <point x="223" y="59" type="curve" smooth="yes"/>
      <point x="172" y="59"/>
      <point x="141" y="83"/>
      <point x="141" y="130" type="curve" smooth="yes"/>
      <point x="141" y="183"/>
      <point x="180" y="213"/>
      <point x="246" y="219" type="curve" smooth="yes"/>
      <point x="433" y="237" type="line"/>
      <point x="445" y="302" type="line"/>
      <point x="243" y="285" type="line" smooth="yes"/>
      <point x="133" y="275"/>
      <point x="51" y="226"/>
      <point x="51" y="124" type="curve" smooth="yes"/>
      <point x="51" y="40"/>
      <point x="110" y="-12"/>
      <point x="205" y="-12" type="curve" smooth="yes"/>
      <point x="288" y="-12"/>
      <point x="358" y="27"/>
      <point x="400" y="89" type="curve"/>
    </contour>
  </outline>
</glyph>
<glyph name="c" format="2">
  <advance width="600"/>
  <unicode hex="0063"/>
  <guideline x="72" y="245" angle="80"/>
  <outline>
    <contour>
      <point x="538" y="338" type="line"/>
      <point x="529" y="441"/>
      <point x="455" y="502"/>
      <point x="348" y="502" type="curve" smooth="yes"/>
      <point x="176" y="502"/>
      <point x="69" y="358"/>
      <point x="69" y="204" type="curve" smooth="yes"/>
      <point x="69" y="70"/>
      <point x="161" y="-12"/>
      <point x="279" y="-12" type="curve" smooth="yes"/>
      <point x="382" y="-12"/>
      <point x="464" y="38"/>
      <point x="507" y="133" type="curve"/>
      <point x="428" y="160" type="line"/>
      <point x="400" y="94"/>
      <point x="354" y="57"/>
      <point x="289" y="57" type="curve" smooth="yes"/>
      <point x="207" y="57"/>
      <point x="158" y="114"/>
      <point x="158" y="208" type="curve" smooth="yes"/>
      <point x="158" y="314"/>
      <point x="223" y="431"/>
      <point x="338" y="431" type="curve" smooth="yes"/>
      <point x="411" y="431"/>
      <point x="451" y="391"/>
      <point x="460" y="320" type="curve"/>
    </contour>
  </outline>
</glyph>
<glyph name="g" format="2">
  <advance width="600"/>
  <unicode hex="0067"/>
  <outline>
    <contour>
      <point x="19" y="-35" type="line"/>
      <point x="19" y="-130"/>
      <point x="99" y="-192"/>
      <point x="223" y="-192" type="curve" smooth="yes"/>
      <point x="348" y="-192"/>
      <point x="444" y="-135"/>
      <point x="465" y="-14" type="curve" smooth="yes"/>
      <point x="553" y="490" type="line"/>
      <point x="465" y="490" type="line"/>
      <point x="444" y="371" type="line"/>
      <point x="477" y="365" type="line"/>
      <point x="452" y="454"/>
      <point x="390" y="502"/>
      <point x="300" y="502" type="curve" smooth="yes"/>
      <point x="151" y="502"/>
      <point x="51" y="363"/>
      <point x="51" y="213" type="curve" smooth="yes"/>
      <point x="51" y="88"/>
      <point x="126" y="17"/>
      <point x="229" y="17" type="curve" smooth="yes"/>
      <point x="309" y="17"/>
      <point x="385" y="58"/>
      <point x="437" y="138" type="curve"/>
      <point x="403" y="139" type="line"/>
      <point x="377" y="-8" type="line" smooth="yes"/>
      <point x="364" y="-88"/>
      <point x="304" y="-125"/>
      <point x="228" y="-125" type="curve" smooth="yes"/>
      <point x="146" y="-125"/>
      <point x="109" y="-82"/>
      <point x="110" y="-21" type="curve"/>
    </contour>
    <contour>
      <point x="433" y="301" type="curve" smooth="yes"/>
      <point x="433" y="199"/>
      <point x="375" y="85"/>
      <point x="263" y="85" type="curve" smooth="yes"/>
      <point x="183" y="85"/>
      <point x="142" y="140"/>
      <point x="142" y="222" type="curve" smooth="yes"/>
      <point x="142" y="321"/>
      <point x="201" y="432"/>
      <point x="313" y="432" type="curve" smooth="yes"/>
      <point x="393" y="432"/>
      <point x="433" y="380"/>
    </contour>
  </outline>
</glyph>
<glyph name="l" format="2">
  <advance width="600"/>
  <unicode hex="006C"/>
  <outline>
    <contour>
      <point x="336" y="700" type="line"/>
      <point x="213" y="0" type="line"/>
      <point x="301" y="0" type="line"/>
      <point x="424" y="700" type="line"/>
    </contour>
    <contour>
      <point x="134" y="631" type="line"/>
      <point x="372" y="631" type="line"/>
      <point x="384" y="700" type="line"/>
      <point x="146" y="700" type="line"/>
    </contour>
    <contour>
      <point x="13" y="0" type="line"/>
      <point x="496" y="0" type="line"/>
      <point x="508" y="69" type="line"/>
      <point x="25" y="69" type="line"/>
    </contour>
  </outline>
</glyph>
<glyph name="m" format="2">
  <advance width="600"/>
  <unicode hex="006D"/>
  <outline>
    <contour>
      <point x="6" y="0" type="line"/>
      <point x="90" y="0" type="line"/>
      <point x="154" y="364" type="line" smooth="yes"/>
      <point x="161" y="406"/>
      <point x="189" y="431"/>
      <point x="228" y="431" type="curve" smooth="yes"/>
      <point x="269" y="431"/>
      <point x="286" y="402"/>
      <point x="279" y="362" type="curve" smooth="yes"/>
      <point x="215" y="0" type="line"/>
      <point x="299" y="0" type="line"/>
      <point x="361" y="360" type="line" smooth="yes"/>
      <point x="369" y="409"/>
      <point x="402" y="431"/>
      <point x="438" y="431" type="curve" smooth="yes"/>
      <point x="480" y="431"/>
      <point x="496" y="402"/>
      <point x="489" y="362" type="curve" smooth="yes"/>
      <point x="425" y="0" type="line"/>
      <point x="509" y="0" type="line"/>
      <point x="575" y="375" type="line" smooth="yes"/>
      <point x="587" y="443"/>
      <point x="546" y="501"/>
      <point x="477" y="501" type="curve" smooth="yes"/>
      <point x="431" y="501"/>
      <point x="387" y="480"/>
      <point x="361" y="436" type="curve"/>
      <point x="348" y="475"/>
      <point x="315" y="501"/>
      <point x="269" y="501" type="curve" smooth="yes"/>
      <point x="228" y="501"/>
      <point x="190" y="477"/>
      <point x="168" y="443" type="curve"/>
      <point x="176" y="490" type="line"/>
      <point x="92" y="490" type="line"/>
    </contour>
  </outline>
</glyph>
<glyph name="q" format="2">
  <advance width="600"/>
  <unicode hex="0071"/>
  <outline>
    <contour>
      <point x="399" y="119" type="line"/>
      <point x="347" y="-180" type="line"/>
      <point x="435" y="-180" type="line"/>
      <point x="553" y="490" type="line"/>
      <point x="465" y="490" type="line"/>
      <point x="444" y="373" type="line"/>
      <point x="473" y="367" type="line"/>
      <point x="448" y="455"/>
      <point x="382" y="502"/>
      <point x="292" y="502" type="curve" smooth="yes"/>
      <point x="132" y="502"/>
      <point x="42" y="347"/>
      <point x="42" y="194" type="curve" smooth="yes"/>
      <point x="42" y="58"/>
      <point x="119" y="-12"/>
      <point x="220" y="-12" type="curve" smooth="yes"/>
      <point x="305" y="-12"/>
      <point x="378" y="31"/>
      <point x="430" y="113" type="curve"/>
    </contour>
    <contour>
      <point x="433" y="288" type="curve" smooth="yes"/>
      <point x="433" y="175"/>
      <point x="374" y="58"/>
      <point x="255" y="58" type="curve" smooth="yes"/>
      <point x="178" y="58"/>
      <point x="132" y="110"/>
      <point x="132" y="203" type="curve" smooth="yes"/>
      <point x="132" y="315"/>
      <point x="191" y="432"/>
      <point x="309" y="432" type="curve" smooth="yes"/>
      <point x="387" y="432"/>
      <point x="433" y="379"/>
    </contour>
  </outline>
</glyph>
<glyph name="r" format="2">
  <advance width="600"/>
  <unicode hex="0072"/>
  <outline>
    <contour>
      <point x="230" y="240" type="line"/>
      <point x="249" y="347"/>
      <point x="345" y="422"/>
      <point x="462" y="422" type="curve" smooth="yes"/>
      <point x="503" y="422"/>
      <point x="542" y="413"/>
      <point x="575" y="398" type="curve"/>
      <point x="589" y="477" type="line"/>
      <point x="562" y="492"/>
      <point x="525" y="500"/>
      <point x="485" y="500" type="curve" smooth="yes"/>
      <point x="377" y="500"/>
      <point x="271" y="438"/>
      <point x="233" y="352" type="curve"/>
      <point x="250" y="351" type="line"/>
      <point x="274" y="490" type="line"/>
      <point x="186" y="490" type="line"/>
      <point x="100" y="0" type="line"/>
      <point x="188" y="0" type="line"/>
    </contour>
  </outline>
</glyph>
<glyph name="t" format="2">
  <advance width="600"/>
  <unicode hex="0074"/>
  <outline>
    <contour>
      <point x="65" y="421" type="line"/>
      <point x="550" y="421" type="line"/>
      <point x="562" y="490" type="line"/>
      <point x="77" y="490" type="line"/>
    </contour>
    <contour>
      <point x="195" y="172" type="line"/>
      <point x="193" y="158"/>
      <point x="191" y="145"/>
      <point x="191" y="133" type="curve" smooth="yes"/>
      <point x="191" y="40"/>
      <point x="260" y="-12"/>
      <point x="378" y="-12" type="curve" smooth="yes"/>
      <point x="411" y="-12"/>
      <point x="445" y="-9"/>
      <point x="481" y="0" type="curve"/>
      <point x="493" y="69" type="line"/>
      <point x="452" y="63"/>
      <point x="433" y="61"/>
      <point x="396" y="61" type="curve" smooth="yes"/>
      <point x="316" y="61"/>
      <point x="280" y="91"/>
      <point x="280" y="142" type="curve" smooth="yes"/>
      <point x="280" y="150"/>
      <point x="280" y="158"/>
      <point x="282" y="166" type="curve" smooth="yes"/>
      <point x="366" y="643" type="line"/>
      <point x="278" y="643" type="line"/>
    </contour>
  </outline>
</glyph>
<glyph name="v" format="2">
  <advance width="600"/>
  <unicode hex="0076"/>
  <outline>
    <contour>
      <point x="211" y="0" type="line"/>
      <point x="305" y="0" type="line"/>
      <point x="601" y="490" type="line"/>
      <point x="504" y="490" type="line"/>
      <point x="243" y="48" type="line"/>
      <point x="281" y="48" type="line"/>
      <point x="172" y="490" type="line"/>
      <point x="85" y="490" type="line"/>
    </contour>
  </outline>
</glyph>
<glyph name="w" format="2">
  <advance width="600"/>
  <unicode hex="0077"/>
  <outline>
    <contour>
      <point x="92" y="0" type="line"/>
      <point x="179" y="0" type="line"/>
      <point x="318" y="296" type="line"/>
      <point x="305" y="296" type="line"/>
      <point x="339" y="0" type="line"/>
      <point x="422" y="0" type="line"/>
      <point x="619" y="490" type="line"/>
      <point x="532" y="490" type="line"/>
      <point x="364" y="50" type="line"/>
      <point x="398" y="50" type="line"/>
      <point x="360" y="370" type="line"/>
      <point x="283" y="370" type="line"/>
      <point x="132" y="50" type="line"/>
      <point x="165" y="50" type="line"/>
      <point x="150" y="490" type="line"/>
      <point x="67" y="490" type="line"/>
    </contour>
  </outline>
</glyph>
<glyph name="x" format="2">
  <advance width="600"/>
  <unicode hex="0078"/>
  <outline>
    <contour>
      <point x="102" y="490" type="line"/>
      <point x="267" y="228" type="line"/>
      <point x="278" y="222" type="line"/>
      <point x="415" y="0" type="line"/>
      <point x="508" y="0" type="line"/>
      <point x="341" y="269" type="line"/>
      <point x="327" y="280" type="line"/>
      <point x="195" y="490" type="line"/>
    </contour>
    <contour>
      <point x="579" y="490" type="line"/>
      <point x="475" y="490" type="line"/>
      <point x="279" y="282" type="line"/>
      <point x="265" y="279" type="line"/>
      <point x="5" y="0" type="line"/>
      <point x="110" y="0" type="line"/>
      <point x="325" y="231" type="line"/>
      <point x="332" y="228" type="line"/>
    </contour>
  </outline>
</glyph>
<glyph name="y" format="2">
  <advance width="600"/>
  <unicode hex="0079"/>
  <outline>
    <contour>
      <point x="180" y="-180" type="line"/>
      <point x="606" y="490" type="line"/>
      <point x="507" y="490" type="line"/>
      <point x="236" y="57" type="line"/>
      <point x="216" y="28" type="line"/>
      <point x="80" y="-180" type="line"/>
    </contour>
    <contour>
      <point x="80" y="490" type="line"/>
      <point x="224" y="-60" type="line"/>
      <point x="283" y="47" type="line"/>
      <point x="169" y="490" type="line"/>
    </contour>
  </outline>
</glyph>
<glyph name="z" format="2">
  <advance width="600"/>
  <unicode hex="007A"/>
  <outline>
    <contour>
      <point x="50" y="60" type="line"/>
      <point x="40" y="0" type="line"/>
      <point x="472" y="0" type="line"/>
      <point x="484" y="71" type="line"/>
      <point x="104" y="71" type="line"/>
      <point x="128" y="32" type="line"/>
      <point x="546" y="438" type="line"/>
      <point x="555" y="490" type="line"/>
      <point x="125" y="490" type="line"/>
      <point x="113" y="419" type="line"/>
      <point x="496" y="419" type="line"/>
      <point x="470" y="469" type="line"/>
    </contour>
  </outline>
</glyph>
<glyph name="braceleft" format="2">
  <advance width="600"/>
  <unicode hex="007B"/>
  <outline>
    <contour>
      <point x="324" y="172" type="line"/>
      <point x="338" y="251"/>
      <point x="333" y="296"/>
      <point x="274" y="316" type="curve"/>
      <point x="340" y="336"/>
      <point x="361" y="381"/>
      <point x="375" y="460" type="curve" smooth="yes"/>
      <point x="396" y="578" type="line" smooth="yes"/>
      <point x="408" y="645"/>
      <point x="434" y="674"/>
      <point x="505" y="674" type="curve" smooth="yes"/>
      <point x="543" y="674" type="line"/>
      <point x="555" y="745" type="line"/>
      <point x="492" y="745" type="line" smooth="yes"/>
      <point x="386" y="745"/>
      <point x="327" y="689"/>
      <point x="310" y="594" type="curve" smooth="yes"/>
      <point x="282" y="438" type="line" smooth="yes"/>
      <point x="271" y="375"/>
      <point x="239" y="353"/>
      <point x="189" y="353" type="curve" smooth="yes"/>
      <point x="152" y="353" type="line"/>
      <point x="139" y="279" type="line"/>
      <point x="176" y="279" type="line" smooth="yes"/>
      <point x="226" y="279"/>
      <point x="250" y="257"/>
      <point x="239" y="194" type="curve" smooth="yes"/>
      <point x="215" y="58" type="line" smooth="yes"/>
      <point x="196" y="-51"/>
      <point x="253" y="-113"/>
      <point x="371" y="-113" type="curve" smooth="yes"/>
      <point x="404" y="-113" type="line"/>
      <point x="417" y="-41" type="line"/>
      <point x="389" y="-41" type="line" smooth="yes"/>
      <point x="316" y="-41"/>
      <point x="293" y="-1"/>
      <point x="303" y="53" type="curve" smooth="yes"/>
    </contour>
  </outline>
</glyph>
<glyph name="bar" format="2">
  <advance width="600"/>
  <unicode hex="007C"/>
  <outline>
    <contour>
      <point x="343" y="745" type="line"/>
      <point x="192" y="-113" type="line"/>
      <point x="282" y="-113" type="line"/>
      <point x="433" y="745" type="line"/>
    </contour>
  </outline>
</glyph>
<glyph name="brokenbar" format="2">
  <advance width="600"/>
  <unicode hex="00A6"/>
  <outline>
    <contour>
      <point x="343" y="745" type="line"/>
      <point x="278" y="377" type="line"/>
      <point x="368" y="377" type="line"/>
      <point x="433" y="745" type="line"/>
    </contour>
    <contour>
      <point x="257" y="255" type="line"/>
      <point x="192" y="-113" type="line"/>
      <point x="282" y="-113" type="line"/>
      <point x="347" y="255" type="line"/>
    </contour>
  </outline>
</glyph>
<glyph name="section" format="2">
  <advance width="600"/>
  <unicode hex="00A7"/>
  <outline>
    <contour>
      <point x="416" y="125" type="line"/>
      <point x="501" y="181"/>
      <point x="528" y="238"/>
      <point x="528" y="292" type="curve" smooth="yes"/>
      <point x="528" y="354"/>
      <point x="493" y="399"/>
      <point x="409" y="432" type="curve" smooth="yes"/>
      <point x="327" y="464" type="line" smooth="yes"/>
      <point x="268" y="487"/>
      <point x="241" y="503"/>
      <point x="241" y="544" type="curve" smooth="yes"/>
      <point x="241" y="597"/>
      <point x="279" y="645"/>
      <point x="364" y="645" type="curve" smooth="yes"/>
      <point x="426" y="645"/>
      <point x="464" y="616"/>
      <point x="464" y="572" type="curve" smooth="yes"/>
      <point x="464" y="566"/>
      <point x="463" y="560"/>
      <point x="462" y="554" type="curve"/>
      <point x="546" y="545" type="line"/>
      <point x="547" y="552"/>
      <point x="548" y="560"/>
      <point x="548" y="567" type="curve" smooth="yes"/>
      <point x="548" y="656"/>
      <point x="484" y="712"/>
      <point x="370" y="712" type="curve" smooth="yes"/>
      <point x="240" y="712"/>
      <point x="156" y="639"/>
      <point x="156" y="530" type="curve" smooth="yes"/>
      <point x="156" y="467"/>
      <point x="189" y="430"/>
      <point x="279" y="395" type="curve" smooth="yes"/>
      <point x="361" y="363" type="line" smooth="yes"/>
      <point x="416" y="342"/>
      <point x="439" y="316"/>
      <point x="439" y="277" type="curve" smooth="yes"/>
      <point x="439" y="249"/>
      <point x="429" y="211"/>
      <point x="362" y="162" type="curve"/>
    </contour>
    <contour>
      <point x="47" y="58" type="line"/>
      <point x="46" y="49"/>
      <point x="45" y="41"/>
      <point x="45" y="33" type="curve" smooth="yes"/>
      <point x="45" y="-66"/>
      <point x="127" y="-126"/>
      <point x="248" y="-126" type="curve" smooth="yes"/>
      <point x="403" y="-126"/>
      <point x="471" y="-37"/>
      <point x="471" y="55" type="curve" smooth="yes"/>
      <point x="471" y="121"/>
      <point x="431" y="164"/>
      <point x="347" y="197" type="curve" smooth="yes"/>
      <point x="265" y="229" type="line" smooth="yes"/>
      <point x="206" y="252"/>
      <point x="179" y="268"/>
      <point x="179" y="313" type="curve" smooth="yes"/>
      <point x="179" y="346"/>
      <point x="193" y="385"/>
      <point x="269" y="429" type="curve"/>
      <point x="222" y="470" type="line"/>
      <point x="126" y="417"/>
      <point x="94" y="350"/>
      <point x="94" y="296" type="curve" smooth="yes"/>
      <point x="94" y="241"/>
      <point x="125" y="195"/>
      <point x="217" y="159" type="curve" smooth="yes"/>
      <point x="299" y="127" type="line" smooth="yes"/>
      <point x="355" y="105"/>
      <point x="381" y="82"/>
      <point x="381" y="40" type="curve" smooth="yes"/>
      <point x="381" y="-15"/>
      <point x="349" y="-59"/>
      <point x="257" y="-59" type="curve" smooth="yes"/>
      <point x="181" y="-59"/>
      <point x="137" y="-30"/>
      <point x="137" y="29" type="curve" smooth="yes"/>
      <point x="137" y="34"/>
      <point x="137" y="39"/>
      <point x="138" y="45" type="curve"/>
    </contour>
  </outline>
</glyph>
<glyph name="copyright" format="2">
  <advance width="600"/>
  <unicode hex="00A9"/>
  <outline>
    <contour>
      <point x="313" y="259" type="curve" smooth="yes"/>
      <point x="459" y="259"/>
      <point x="568" y="376"/>
      <point x="568" y="514" type="curve" smooth="yes"/>
      <point x="568" y="623"/>
      <point x="489" y="705"/>
      <point x="371" y="705" type="curve" smooth="yes"/>
      <point x="225" y="705"/>
      <point x="116" y="588"/>
      <point x="116" y="450" type="curve" smooth="yes"/>
      <point x="116" y="341"/>
      <point x="195" y="259"/>
    </contour>
    <contour>
      <point x="337" y="372" type="curve" smooth="yes"/>
      <point x="388" y="372"/>
      <point x="419" y="397"/>
      <point x="437" y="434" type="curve"/>
      <point x="391" y="455" type="line"/>
      <point x="377" y="428"/>
      <point x="362" y="419"/>
      <point x="341" y="419" type="curve" smooth="yes"/>
      <point x="313" y="419"/>
      <point x="290" y="436"/>
      <point x="290" y="472" type="curve" smooth="yes"/>
      <point x="290" y="528"/>
      <point x="325" y="547"/>
      <point x="353" y="547" type="curve" smooth="yes"/>
      <point x="381" y="547"/>
      <point x="395" y="529"/>
      <point x="399" y="504" type="curve"/>
      <point x="449" y="517" type="line"/>
      <point x="444" y="562"/>
      <point x="407" y="594"/>
      <point x="355" y="594" type="curve" smooth="yes"/>
      <point x="293" y="594"/>
      <point x="236" y="550"/>
      <point x="236" y="467" type="curve" smooth="yes"/>
      <point x="236" y="416"/>
      <point x="275" y="372"/>
    </contour>
    <contour>
      <point x="321" y="304" type="curve" smooth="yes"/>
      <point x="223" y="304"/>
      <point x="165" y="365"/>
      <point x="165" y="453" type="curve" smooth="yes"/>
      <point x="165" y="558"/>
      <point x="242" y="660"/>
      <point x="363" y="660" type="curve" smooth="yes"/>
      <point x="461" y="660"/>
      <point x="519" y="599"/>
      <point x="519" y="511" type="curve" smooth="yes"/>
      <point x="519" y="406"/>
      <point x="442" y="304"/>
    </contour>
  </outline>
</glyph>
<glyph name="ordfeminine" format="2">
  <advance width="600"/>
  <unicode hex="00AA"/>
  <outline>
    <contour>
      <point x="362" y="712" type="curve" smooth="yes"/>
      <point x="253" y="712"/>
      <point x="204" y="654"/>
      <point x="190" y="595" type="curve"/>
      <point x="269" y="581" type="line"/>
      <point x="278" y="615"/>
      <point x="298" y="648"/>
      <point x="357" y="648" type="curve" smooth="yes"/>
      <point x="412" y="648"/>
      <point x="437" y="621"/>
      <point x="430" y="580" type="curve" smooth="yes"/>
      <point x="407" y="451" type="line" smooth="yes"/>
      <point x="399" y="405"/>
      <point x="342" y="364"/>
      <point x="283" y="364" type="curve" smooth="yes"/>
      <point x="253" y="364"/>
      <point x="222" y="377"/>
      <point x="222" y="411" type="curve" smooth="yes"/>
      <point x="222" y="454"/>
      <point x="250" y="479"/>
      <point x="304" y="483" type="curve" smooth="yes"/>
      <point x="439" y="495" type="line"/>
      <point x="449" y="553" type="line"/>
      <point x="300" y="541" type="line" smooth="yes"/>
      <point x="204" y="533"/>
      <point x="142" y="482"/>
      <point x="142" y="402" type="curve" smooth="yes"/>
      <point x="142" y="341"/>
      <point x="188" y="301"/>
      <point x="270" y="301" type="curve" smooth="yes"/>
      <point x="337" y="301"/>
      <point x="384" y="333"/>
      <point x="418" y="382" type="curve"/>
      <point x="396" y="387" type="line"/>
      <point x="387" y="317"/>
      <point x="427.73077" y="305.0"/>
      <point x="469" y="305" type="curve" smooth="yes"/>
      <point x="480" y="305"/>
      <point x="487" y="306"/>
      <point x="491" y="307" type="curve"/>
      <point x="502" y="370" type="line"/>
      <point x="500" y="370"/>
      <point x="497" y="370"/>
      <point x="494" y="370" type="curve" smooth="yes"/>
      <point x="475" y="370"/>
      <point x="471" y="380"/>
      <point x="474" y="398" type="curve" smooth="yes"/>
      <point x="506" y="581" type="line" smooth="yes"/>
      <point x="520" y="664"/>
      <point x="471.70149" y="712.0"/>
    </contour>
  </outline>
</glyph>
<glyph name="logicalnot" format="2">
  <advance width="600"/>
  <unicode hex="00AC"/>
  <outline>
    <contour>
      <point x="418" y="61" type="line"/>
      <point x="496" y="61" type="line"/>
      <point x="551" y="378" type="line"/>
      <point x="95" y="378" type="line"/>
      <point x="82" y="302" type="line"/>
      <point x="499" y="302" type="line"/>
      <point x="467" y="339" type="line"/>
    </contour>
  </outline>
</glyph>
<glyph name="registered" format="2">
  <advance width="600"/>
  <unicode hex="00AE"/>
  <outline>
    <contour>
      <point x="568" y="514" type="curve" smooth="yes"/>
      <point x="568" y="623"/>
      <point x="489" y="705"/>
      <point x="371" y="705" type="curve" smooth="yes"/>
      <point x="225" y="705"/>
      <point x="116" y="588"/>
      <point x="116" y="450" type="curve" smooth="yes"/>
      <point x="116" y="341"/>
      <point x="195" y="259"/>
      <point x="313" y="259" type="curve" smooth="yes"/>
      <point x="459" y="259"/>
      <point x="568" y="376"/>
    </contour>
    <contour>
      <point x="363" y="660" type="curve" smooth="yes"/>
      <point x="461" y="660"/>
      <point x="519" y="599"/>
      <point x="519" y="511" type="curve" smooth="yes"/>
      <point x="519" y="406"/>
      <point x="442" y="304"/>
      <point x="321" y="304" type="curve" smooth="yes"/>
      <point x="223" y="304"/>
      <point x="165" y="365"/>
      <point x="165" y="453" type="curve" smooth="yes"/>
      <point x="165" y="558"/>
      <point x="242" y="660"/>
    </contour>
    <contour>
      <point x="274" y="589" type="line"/>
      <point x="236" y="375" type="line"/>
      <point x="287" y="375" type="line"/>
      <point x="325" y="589" type="line"/>
    </contour>
    <contour>
      <point x="320" y="462" type="line"/>
      <point x="334" y="432"/>
      <point x="357" y="399"/>
      <point x="375" y="375" type="curve"/>
      <point x="431" y="375" type="line"/>
      <point x="431" y="377" type="line"/>
      <point x="415" y="400"/>
      <point x="388" y="433"/>
      <point x="375" y="462" type="curve"/>
    </contour>
    <contour>
      <point x="360" y="494" type="curve" smooth="yes"/>
      <point x="276" y="494" type="line"/>
      <point x="269" y="453" type="line"/>
      <point x="350" y="453" type="line" smooth="yes"/>
      <point x="417" y="453"/>
      <point x="446" y="486"/>
      <point x="446" y="528" type="curve" smooth="yes"/>
      <point x="446" y="564"/>
      <point x="423" y="589"/>
      <point x="375" y="589" type="curve" smooth="yes"/>
      <point x="294" y="589" type="line"/>
      <point x="286" y="546" type="line"/>
      <point x="369" y="546" type="line" smooth="yes"/>
      <point x="385" y="546"/>
      <point x="394" y="538"/>
      <point x="394" y="524" type="curve" smooth="yes"/>
      <point x="394" y="511"/>
      <point x="386" y="494"/>
    </contour>
  </outline>
</glyph>
<glyph name="degree" format="2">
  <advance width="600"/>
  <unicode hex="00B0"/>
  <outline>
    <contour>
      <point x="519" y="561" type="curve" smooth="yes"/>
      <point x="519" y="645"/>
      <point x="457" y="708"/>
      <point x="373" y="708" type="curve" smooth="yes"/>
      <point x="268" y="708"/>
      <point x="186" y="625"/>
      <point x="186" y="525" type="curve" smooth="yes"/>
      <point x="186" y="441"/>
      <point x="249" y="377"/>
      <point x="333" y="377" type="curve" smooth="yes"/>
      <point x="438" y="377"/>
      <point x="519" y="463"/>
    </contour>
    <contour>
      <point x="368" y="642" type="curve" smooth="yes"/>
      <point x="418" y="642"/>
      <point x="449" y="607"/>
      <point x="449" y="558" type="curve" smooth="yes"/>
      <point x="449" y="494"/>
      <point x="402" y="443"/>
      <point x="338" y="443" type="curve" smooth="yes"/>
      <point x="288" y="443"/>
      <point x="256" y="479"/>
      <point x="256" y="528" type="curve" smooth="yes"/>
      <point x="256" y="593"/>
      <point x="303" y="642"/>
    </contour>
  </outline>
</glyph>
<glyph name="paragraph" format="2">
  <advance width="600"/>
  <unicode hex="00B6"/>
  <outline>
    <contour>
      <point x="421" y="700" type="line"/>
      <point x="344" y="700" type="line"/>
      <point x="201" y="-113" type="line"/>
      <point x="278" y="-113" type="line"/>
    </contour>
    <contour>
      <point x="571" y="700" type="line"/>
      <point x="494" y="700" type="line"/>
      <point x="351" y="-113" type="line"/>
      <point x="428" y="-113" type="line"/>
    </contour>
    <contour>
      <point x="311" y="333" type="line"/>
      <point x="363" y="630" type="line"/>
      <point x="638" y="630" type="line"/>
      <point x="650" y="700" type="line"/>
      <point x="304" y="700" type="line" smooth="yes"/>
      <point x="177" y="700"/>
      <point x="89" y="622"/>
      <point x="89" y="503" type="curve" smooth="yes"/>
      <point x="89" y="407"/>
      <point x="159" y="333"/>
      <point x="262" y="333" type="curve" smooth="yes"/>
    </contour>
  </outline>
</glyph>
<glyph name="ordmasculine" format="2">
  <advance width="600"/>
  <unicode hex="00BA"/>
  <outline>
    <contour>
      <point x="462" y="538" type="curve" smooth="yes"/>
      <point x="462" y="456"/>
      <point x="415" y="367"/>
      <point x="326" y="367" type="curve" smooth="yes"/>
      <point x="266" y="367"/>
      <point x="230" y="406"/>
      <point x="230" y="474" type="curve" smooth="yes"/>
      <point x="230" y="556"/>
      <point x="277" y="646"/>
      <point x="366" y="646" type="curve" smooth="yes"/>
      <point x="426" y="646"/>
      <point x="462" y="606"/>
    </contour>
    <contour>
      <point x="151" y="471" type="curve" smooth="yes"/>
      <point x="151" y="365"/>
      <point x="219" y="301"/>
      <point x="320" y="301" type="curve" smooth="yes"/>
      <point x="457" y="301"/>
      <point x="541" y="420"/>
      <point x="541" y="542" type="curve" smooth="yes"/>
      <point x="541" y="648"/>
      <point x="473" y="712"/>
      <point x="372" y="712" type="curve" smooth="yes"/>
      <point x="235" y="712"/>
      <point x="151" y="593"/>
    </contour>
  </outline>
</glyph>
<glyph name="AE" format="2">
  <advance width="600"/>
  <unicode hex="00C6"/>
  <outline>
    <contour>
      <point x="-35" y="0" type="line"/>
      <point x="59" y="0" type="line"/>
      <point x="314" y="618" type="line"/>
      <point x="364" y="618" type="line"/>
      <point x="378" y="700" type="line"/>
      <point x="259" y="700" type="line"/>
    </contour>
    <contour>
      <point x="119" y="216" type="line"/>
      <point x="320" y="216" type="line"/>
      <point x="334" y="298" type="line"/>
      <point x="133" y="298" type="line"/>
    </contour>
    <contour>
      <point x="276" y="0" type="line"/>
      <point x="527" y="0" type="line"/>
      <point x="541" y="82" type="line"/>
      <point x="290" y="82" type="line"/>
    </contour>
    <contour>
      <point x="237" y="0" type="line"/>
      <point x="324" y="0" type="line"/>
      <point x="447" y="700" type="line"/>
      <point x="360" y="700" type="line"/>
    </contour>
    <contour>
      <point x="337" y="315" type="line"/>
      <point x="493" y="315" type="line"/>
      <point x="508" y="396" type="line"/>
      <point x="352" y="396" type="line"/>
    </contour>
    <contour>
      <point x="381" y="618" type="line"/>
      <point x="618" y="618" type="line"/>
      <point x="632" y="700" type="line"/>
      <point x="395" y="700" type="line"/>
    </contour>
  </outline>
</glyph>
<glyph name="Icircumflex" format="2">
  <advance width="600"/>
  <unicode hex="00CE"/>
  <outline>
    <contour>
      <point x="368" y="892" type="line"/>
      <point x="235" y="771" type="line"/>
      <point x="325" y="771" type="line"/>
      <point x="438" y="853" type="line"/>
      <point x="386" y="853" type="line"/>
      <point x="471" y="771" type="line"/>
      <point x="551" y="771" type="line"/>
      <point x="460" y="892" type="line"/>
    </contour>
    <component base="I"/>
  </outline>
</glyph>
<glyph name="Idieresis" format="2">
  <advance width="600"/>
  <unicode hex="00CF"/>
  <outline>
    <contour>
      <point x="267" y="883" type="line"/>
      <point x="248" y="771" type="line"/>
      <point x="352" y="771" type="line"/>
      <point x="371" y="883" type="line"/>
    </contour>
    <contour>
      <point x="452" y="883" type="line"/>
      <point x="433" y="771" type="line"/>
      <point x="537" y="771" type="line"/>
      <point x="556" y="883" type="line"/>
    </contour>
    <component base="I"/>
  </outline>
</glyph>
<glyph name="Eth" format="2">
  <advance width="600"/>
  <unicode hex="00D0"/>
  <outline>
    <contour>
      <point x="29" y="0" type="line"/>
      <point x="120" y="0" type="line"/>
      <point x="243" y="700" type="line"/>
      <point x="152" y="700" type="line"/>
    </contour>
    <contour>
      <point x="77" y="82" type="line"/>
      <point x="63" y="0" type="line"/>
      <point x="243" y="0" type="line" smooth="yes"/>
      <point x="463" y="0"/>
      <point x="581" y="200"/>
      <point x="581" y="408" type="curve" smooth="yes"/>
      <point x="581" y="580"/>
      <point x="494" y="700"/>
      <point x="321" y="700" type="curve" smooth="yes"/>
      <point x="185" y="700" type="line"/>
      <point x="171" y="618" type="line"/>
      <point x="303" y="618" type="line" smooth="yes"/>
      <point x="435" y="618"/>
      <point x="489" y="529"/>
      <point x="489" y="409" type="curve" smooth="yes"/>
      <point x="489" y="217"/>
      <point x="391" y="82"/>
      <point x="251" y="82" type="curve" smooth="yes"/>
    </contour>
    <contour>
      <point x="25" y="317" type="line"/>
      <point x="307" y="317" type="line"/>
      <point x="321" y="398" type="line"/>
      <point x="39" y="398" type="line"/>
    </contour>
  </outline>
</glyph>
<glyph name="Oslash" format="2">
  <advance width="600"/>
  <unicode hex="00D8"/>
  <outline>
    <contour>
      <point x="12" y="10" type="line"/>
      <point x="77" y="-32" type="line"/>
      <point x="627" y="691" type="line"/>
      <point x="562" y="733" type="line"/>
    </contour>
    <contour>
      <point x="495" y="434" type="curve" smooth="yes"/>
      <point x="495" y="228"/>
      <point x="403" y="69"/>
      <point x="281" y="69" type="curve" smooth="yes"/>
      <point x="191" y="69"/>
      <point x="142" y="142"/>
      <point x="142" y="269" type="curve" smooth="yes"/>
      <point x="142" y="472"/>
      <point x="235" y="631"/>
      <point x="358" y="631" type="curve" smooth="yes"/>
      <point x="448" y="631"/>
      <point x="495" y="560"/>
    </contour>
    <contour>
      <point x="53" y="275" type="curve" smooth="yes"/>
      <point x="53" y="100"/>
      <point x="136" y="-12"/>
      <point x="276" y="-12" type="curve" smooth="yes"/>
      <point x="450" y="-12"/>
      <point x="584" y="187"/>
      <point x="584" y="426" type="curve" smooth="yes"/>
      <point x="584" y="601"/>
      <point x="504" y="712"/>
      <point x="364" y="712" type="curve" smooth="yes"/>
      <point x="188" y="712"/>
      <point x="53" y="515"/>
    </contour>
  </outline>
</glyph>
<glyph name="Thorn" format="2">
  <advance width="600"/>
  <unicode hex="00DE"/>
  <outline>
    <contour>
      <point x="171" y="700" type="line"/>
      <point x="47" y="0" type="line"/>
      <point x="138" y="0" type="line"/>
      <point x="262" y="700" type="line"/>
    </contour>
    <contour>
      <point x="391" y="466" type="line"/>
      <point x="461" y="466"/>
      <point x="501" y="438"/>
      <point x="501" y="373" type="curve" smooth="yes"/>
      <point x="501" y="304"/>
      <point x="457" y="244"/>
      <point x="351" y="244" type="curve" smooth="yes"/>
      <point x="131" y="244" type="line"/>
      <point x="117" y="163" type="line"/>
      <point x="347" y="163" type="line" smooth="yes"/>
      <point x="520" y="163"/>
      <point x="593" y="269"/>
      <point x="593" y="378" type="curve" smooth="yes"/>
      <point x="593" y="484"/>
      <point x="517" y="547"/>
      <point x="408" y="547" type="curve" smooth="yes"/>
      <point x="186" y="547" type="line"/>
      <point x="172" y="466" type="line"/>
    </contour>
  </outline>
</glyph>
<glyph name="germandbls" format="2">
  <advance width="600"/>
  <unicode hex="00DF"/>
  <outline>
    <contour>
      <point x="141" y="524" type="curve" smooth="yes"/>
      <point x="48" y="0" type="line"/>
      <point x="136" y="0" type="line"/>
      <point x="229" y="523" type="line" smooth="yes"/>
      <point x="241" y="589"/>
      <point x="295" y="637"/>
      <point x="370" y="637" type="curve" smooth="yes"/>
      <point x="440" y="637"/>
      <point x="478" y="600"/>
      <point x="478" y="541" type="curve" smooth="yes"/>
      <point x="478" y="477"/>
      <point x="438" y="411"/>
      <point x="347" y="411" type="curve" smooth="yes"/>
      <point x="301" y="411" type="line"/>
      <point x="287" y="335" type="line"/>
      <point x="310" y="335" type="line" smooth="yes"/>
      <point x="397" y="335"/>
      <point x="450" y="293"/>
      <point x="450" y="205" type="curve" smooth="yes"/>
      <point x="450" y="129"/>
      <point x="414" y="64"/>
      <point x="321" y="64" type="curve" smooth="yes"/>
      <point x="284" y="64"/>
      <point x="254" y="73"/>
      <point x="237" y="80" type="curve"/>
      <point x="223" y="4" type="line"/>
      <point x="238" y="-2"/>
      <point x="269" y="-12"/>
      <point x="316" y="-12" type="curve" smooth="yes"/>
      <point x="476" y="-12"/>
      <point x="539" y="105"/>
      <point x="539" y="199" type="curve" smooth="yes"/>
      <point x="539" y="298"/>
      <point x="484" y="354"/>
      <point x="418" y="374" type="curve"/>
      <point x="417" y="368" type="line"/>
      <point x="497" y="387"/>
      <point x="565" y="449"/>
      <point x="565" y="549" type="curve" smooth="yes"/>
      <point x="565" y="643"/>
      <point x="497" y="712"/>
      <point x="375" y="712" type="curve" smooth="yes"/>
      <point x="252" y="712"/>
      <point x="161" y="637"/>
    </contour>
  </outline>
</glyph>
<glyph name="ae" format="2">
  <advance width="600"/>
  <unicode hex="00E6"/>
  <outline>
    <contour>
      <point x="-1" y="156" type="curve" smooth="yes"/>
      <point x="-18" y="56"/>
      <point x="41" y="-12"/>
      <point x="132" y="-12" type="curve" smooth="yes"/>
      <point x="228" y="-12"/>
      <point x="292" y="60"/>
      <point x="315" y="194" type="curve" smooth="yes"/>
      <point x="337" y="325" type="line" smooth="yes"/>
      <point x="340" y="340"/>
      <point x="341" y="355"/>
      <point x="341" y="368" type="curve" smooth="yes"/>
      <point x="341" y="454"/>
      <point x="289" y="502"/>
      <point x="210" y="502" type="curve" smooth="yes"/>
      <point x="107" y="502"/>
      <point x="62" y="428"/>
      <point x="48" y="358" type="curve"/>
      <point x="123" y="344" type="line"/>
      <point x="131" y="387"/>
      <point x="152" y="431"/>
      <point x="208" y="431" type="curve" smooth="yes"/>
      <point x="249" y="431"/>
      <point x="269" y="407"/>
      <point x="269" y="368" type="curve" smooth="yes"/>
      <point x="269" y="360"/>
      <point x="268" y="351"/>
      <point x="266" y="341" type="curve" smooth="yes"/>
      <point x="233" y="151" type="line" smooth="yes"/>
      <point x="222" y="86"/>
      <point x="186" y="59"/>
      <point x="146" y="59" type="curve" smooth="yes"/>
      <point x="98" y="59"/>
      <point x="72" y="98"/>
      <point x="81" y="146" type="curve" smooth="yes"/>
      <point x="91" y="202"/>
      <point x="127" y="220"/>
      <point x="190" y="224" type="curve" smooth="yes"/>
      <point x="279" y="229" type="line"/>
      <point x="291" y="296" type="line"/>
      <point x="194" y="290" type="line" smooth="yes"/>
      <point x="99" y="284"/>
      <point x="16" y="251"/>
    </contour>
    <contour>
      <point x="267" y="264" type="curve" smooth="yes"/>
      <point x="238" y="95"/>
      <point x="293" y="-12"/>
      <point x="398" y="-12" type="curve" smooth="yes"/>
      <point x="479" y="-12"/>
      <point x="527" y="44"/>
      <point x="556" y="133" type="curve"/>
      <point x="492" y="152" type="line"/>
      <point x="474" y="92"/>
      <point x="449" y="59"/>
      <point x="407" y="59" type="curve" smooth="yes"/>
      <point x="345" y="59"/>
      <point x="314" y="123"/>
      <point x="336" y="244" type="curve" smooth="yes"/>
      <point x="356" y="359"/>
      <point x="393" y="431"/>
      <point x="451" y="431" type="curve" smooth="yes"/>
      <point x="487" y="431"/>
      <point x="507" y="401"/>
      <point x="507" y="337" type="curve" smooth="yes"/>
      <point x="507" y="312"/>
      <point x="504" y="282"/>
      <point x="498" y="247" type="curve"/>
      <point x="521" y="292" type="line"/>
      <point x="307" y="292" type="line"/>
      <point x="296" y="226" type="line"/>
      <point x="570" y="226" type="line"/>
      <point x="573" y="242" type="line"/>
      <point x="579" y="274"/>
      <point x="582" y="304"/>
      <point x="582" y="332" type="curve" smooth="yes"/>
      <point x="582" y="434"/>
      <point x="542" y="502"/>
      <point x="458" y="502" type="curve" smooth="yes"/>
      <point x="354" y="502"/>
      <point x="292" y="404"/>
    </contour>
  </outline>
</glyph>
<glyph name="icircumflex" format="2">
  <advance width="600"/>
  <unicode hex="00EE"/>
  <outline>
    <contour>
      <point x="353" y="700" type="line"/>
      <point x="228" y="570" type="line"/>
      <point x="315" y="570" type="line"/>
      <point x="429" y="671" type="line"/>
      <point x="379" y="671" type="line"/>
      <point x="453" y="570" type="line"/>
      <point x="526" y="570" type="line"/>
      <point x="447" y="700" type="line"/>
    </contour>
    <component base="dotlessi"/>
  </outline>
</glyph>
<glyph name="idieresis" format="2">
  <advance width="600"/>
  <unicode hex="00EF"/>
  <outline>
    <contour>
      <point x="262" y="700" type="line"/>
      <point x="242" y="588" type="line"/>
      <point x="344" y="588" type="line"/>
      <point x="364" y="700" type="line"/>
    </contour>
    <contour>
      <point x="435" y="700" type="line"/>
      <point x="415" y="588" type="line"/>
      <point x="517" y="588" type="line"/>
      <point x="537" y="700" type="line"/>
    </contour>
    <component base="dotlessi"/>
  </outline>
</glyph>
<glyph name="divide" format="2">
  <advance width="600"/>
  <unicode hex="00F7"/>
  <outline>
    <contour>
      <point x="538" y="302" type="line"/>
      <point x="552" y="378" type="line"/>
      <point x="96" y="378" type="line"/>
      <point x="82" y="302" type="line"/>
    </contour>
    <contour>
      <point x="238" y="205" type="line"/>
      <point x="220" y="99" type="line"/>
      <point x="329" y="99" type="line"/>
      <point x="347" y="205" type="line"/>
    </contour>
    <contour>
      <point x="304" y="581" type="line"/>
      <point x="286" y="475" type="line"/>
      <point x="395" y="475" type="line"/>
      <point x="413" y="581" type="line"/>
    </contour>
  </outline>
</glyph>
<glyph name="thorn" format="2">
  <advance width="600"/>
  <unicode hex="00FE"/>
  <outline>
    <contour>
      <point x="558" y="296" type="curve" smooth="yes"/>
      <point x="558" y="432"/>
      <point x="481" y="502"/>
      <point x="380" y="502" type="curve" smooth="yes"/>
      <point x="295" y="502"/>
      <point x="222" y="459"/>
      <point x="170" y="377" type="curve"/>
      <point x="201" y="371" type="line"/>
      <point x="258" y="700" type="line"/>
      <point x="170" y="700" type="line"/>
      <point x="15" y="-180" type="line"/>
      <point x="103" y="-180" type="line"/>
      <point x="156" y="117" type="line"/>
      <point x="127" y="123" type="line"/>
      <point x="152" y="35"/>
      <point x="218" y="-12"/>
      <point x="308" y="-12" type="curve" smooth="yes"/>
      <point x="468" y="-12"/>
      <point x="558" y="143"/>
    </contour>
    <contour>
      <point x="468" y="287" type="curve" smooth="yes"/>
      <point x="468" y="175"/>
      <point x="409" y="58"/>
      <point x="291" y="58" type="curve" smooth="yes"/>
      <point x="213" y="58"/>
      <point x="167" y="111"/>
      <point x="167" y="202" type="curve" smooth="yes"/>
      <point x="167" y="315"/>
      <point x="226" y="432"/>
      <point x="345" y="432" type="curve" smooth="yes"/>
      <point x="422" y="432"/>
      <point x="468" y="380"/>
    </contour>
  </outline>
</glyph>
<glyph name="Aogonek" format="2">
  <advance width="600"/>
  <unicode hex="0104"/>
  <outline>
    <contour>
      <point x="140" y="289" type="line"/>
      <point x="129" y="210" type="line"/>
      <point x="468" y="210" type="line"/>
      <point x="482" y="289" type="line"/>
    </contour>
    <contour>
      <point x="454" y="-45" type="line"/>
      <point x="535" y="0" type="line"/>
      <point x="432" y="700" type="line"/>
      <point x="330" y="700" type="line"/>
      <point x="-21" y="0" type="line"/>
      <point x="79" y="0" type="line"/>
      <point x="390" y="631" type="line"/>
      <point x="361" y="631" type="line"/>
    </contour>
    <contour>
      <point x="452" y="-195" type="curve" smooth="yes"/>
      <point x="465" y="-195"/>
      <point x="491" y="-194"/>
      <point x="516" y="-184" type="curve"/>
      <point x="521" y="-129" type="line"/>
      <point x="507" y="-133"/>
      <point x="488" y="-135"/>
      <point x="472" y="-135" type="curve" smooth="yes"/>
      <point x="443" y="-135"/>
      <point x="430" y="-123"/>
      <point x="430" y="-102" type="curve" smooth="yes"/>
      <point x="430" y="-73"/>
      <point x="476" y="-30"/>
      <point x="535" y="0" type="curve"/>
      <point x="462" y="0" type="line"/>
      <point x="407" y="-26"/>
      <point x="356" y="-68"/>
      <point x="356" y="-126" type="curve" smooth="yes"/>
      <point x="356" y="-168"/>
      <point x="394" y="-195"/>
    </contour>
  </outline>
</glyph>
<glyph name="aogonek" format="2">
  <advance width="600"/>
  <unicode hex="0105"/>
  <outline>
    <contour>
      <point x="404" y="-195" type="curve" smooth="yes"/>
      <point x="417" y="-195"/>
      <point x="443" y="-194"/>
      <point x="468" y="-184" type="curve"/>
      <point x="473" y="-129" type="line"/>
      <point x="459" y="-133"/>
      <point x="440" y="-135"/>
      <point x="424" y="-135" type="curve" smooth="yes"/>
      <point x="395" y="-135"/>
      <point x="382" y="-123"/>
      <point x="382" y="-102" type="curve" smooth="yes"/>
      <point x="382" y="-75"/>
      <point x="428" y="-36"/>
      <point x="486" y="-8" type="curve"/>
      <point x="414" y="0" type="line"/>
      <point x="359" y="-26"/>
      <point x="308" y="-68"/>
      <point x="308" y="-126" type="curve" smooth="yes"/>
      <point x="308" y="-168"/>
      <point x="346" y="-195"/>
    </contour>
    <component base="a"/>
  </outline>
</glyph>
<glyph name="dcroat" format="2">
  <advance width="600"/>
  <unicode hex="0111"/>
  <outline>
    <contour>
      <point x="324" y="554" type="line"/>
      <point x="632" y="554" type="line"/>
      <point x="644" y="619" type="line"/>
      <point x="336" y="619" type="line"/>
    </contour>
    <component base="d" identifier="E26289E6"/>
  </outline>
</glyph>
<glyph name="eogonek" format="2">
  <advance width="600"/>
  <unicode hex="0119"/>
  <outline>
    <contour>
      <point x="56" y="204" type="curve" smooth="yes"/>
      <point x="56" y="72"/>
      <point x="139" y="-12"/>
      <point x="282" y="-12" type="curve" smooth="yes"/>
      <point x="285" y="-12"/>
      <point x="287" y="-12"/>
      <point x="290" y="-12" type="curve"/>
      <point x="282" y="3" type="line"/>
      <point x="225" y="-22"/>
      <point x="170" y="-66"/>
      <point x="170" y="-126" type="curve" smooth="yes"/>
      <point x="170" y="-168"/>
      <point x="208" y="-195"/>
      <point x="266" y="-195" type="curve" smooth="yes"/>
      <point x="279" y="-195"/>
      <point x="305" y="-194"/>
      <point x="330" y="-184" type="curve"/>
      <point x="335" y="-129" type="line"/>
      <point x="321" y="-133"/>
      <point x="302" y="-135"/>
      <point x="286" y="-135" type="curve" smooth="yes"/>
      <point x="257" y="-135"/>
      <point x="244" y="-123"/>
      <point x="244" y="-102" type="curve" smooth="yes"/>
      <point x="244" y="-75"/>
      <point x="284" y="-26"/>
      <point x="341" y="-9" type="curve" smooth="yes"/>
      <point x="422" y="15"/>
      <point x="485" y="62"/>
      <point x="520" y="134" type="curve"/>
      <point x="447" y="161" type="line"/>
      <point x="418" y="101"/>
      <point x="366" y="58"/>
      <point x="283" y="58" type="curve" smooth="yes"/>
      <point x="224" y="58"/>
      <point x="136" y="84"/>
      <point x="145" y="228" type="curve"/>
      <point x="536" y="226" type="line"/>
      <point x="538" y="238" type="line" smooth="yes"/>
      <point x="541" y="257"/>
      <point x="543" y="275"/>
      <point x="543" y="293" type="curve" smooth="yes"/>
      <point x="543" y="413"/>
      <point x="472" y="502"/>
      <point x="339" y="502" type="curve" smooth="yes"/>
      <point x="166" y="502"/>
      <point x="56" y="363"/>
    </contour>
    <contour>
      <point x="157" y="292" type="line"/>
      <point x="181" y="368"/>
      <point x="239" y="432"/>
      <point x="330" y="432" type="curve" smooth="yes"/>
      <point x="434" y="432"/>
      <point x="463" y="365"/>
      <point x="461" y="292" type="curve"/>
    </contour>
  </outline>
</glyph>
<glyph name="Hbar" format="2">
  <advance width="600"/>
  <unicode hex="0126"/>
  <outline>
    <contour>
      <point x="52" y="500" type="line"/>
      <point x="638" y="500" type="line"/>
      <point x="652" y="578" type="line"/>
      <point x="66" y="578" type="line"/>
    </contour>
    <contour>
      <point x="124" y="300" type="line"/>
      <point x="497" y="300" type="line"/>
      <point x="511" y="382" type="line"/>
      <point x="138" y="382" type="line"/>
    </contour>
    <contour>
      <point x="522" y="700" type="line"/>
      <point x="399" y="0" type="line"/>
      <point x="490" y="0" type="line"/>
      <point x="613" y="700" type="line"/>
    </contour>
    <contour>
      <point x="147" y="700" type="line"/>
      <point x="24" y="0" type="line"/>
      <point x="115" y="0" type="line"/>
      <point x="238" y="700" type="line"/>
    </contour>
  </outline>
</glyph>
<glyph name="hbar" format="2">
  <advance width="600"/>
  <unicode hex="0127"/>
  <outline>
    <contour>
      <point x="387" y="554" type="line"/>
      <point x="399" y="619" type="line"/>
      <point x="91" y="619" type="line"/>
      <point x="79" y="554" type="line"/>
    </contour>
    <component base="h"/>
  </outline>
</glyph>
<glyph name="Itilde" format="2">
  <advance width="600"/>
  <unicode hex="0128"/>
  <outline>
    <contour>
      <point x="355" y="881" type="curve" smooth="yes"/>
      <point x="306" y="881"/>
      <point x="269" y="836"/>
      <point x="257" y="771" type="curve"/>
      <point x="316" y="771" type="line"/>
      <point x="323" y="798"/>
      <point x="335" y="813"/>
      <point x="352" y="813" type="curve" smooth="yes"/>
      <point x="382" y="813"/>
      <point x="415" y="778"/>
      <point x="453" y="778" type="curve" smooth="yes"/>
      <point x="502" y="778"/>
      <point x="537" y="822"/>
      <point x="549" y="887" type="curve"/>
      <point x="489" y="887" type="line"/>
      <point x="484" y="860"/>
      <point x="474" y="845"/>
      <point x="455" y="845" type="curve" smooth="yes"/>
      <point x="425" y="845"/>
      <point x="393" y="881"/>
    </contour>
    <component base="I"/>
  </outline>
</glyph>
<glyph name="itilde" format="2">
  <advance width="600"/>
  <unicode hex="0129"/>
  <outline>
    <contour>
      <point x="341" y="680" type="curve" smooth="yes"/>
      <point x="291" y="680"/>
      <point x="256" y="635"/>
      <point x="243" y="570" type="curve"/>
      <point x="302" y="570" type="line"/>
      <point x="310" y="595"/>
      <point x="320" y="609"/>
      <point x="338" y="609" type="curve" smooth="yes"/>
      <point x="366" y="609"/>
      <point x="397" y="577"/>
      <point x="435" y="577" type="curve" smooth="yes"/>
      <point x="485" y="577"/>
      <point x="519" y="621"/>
      <point x="532" y="686" type="curve"/>
      <point x="472" y="686" type="line"/>
      <point x="465" y="661"/>
      <point x="456" y="647"/>
      <point x="437" y="647" type="curve" smooth="yes"/>
      <point x="409" y="647"/>
      <point x="379" y="680"/>
    </contour>
    <component base="dotlessi"/>
  </outline>
</glyph>
<glyph name="imacron" format="2">
  <advance width="600"/>
  <unicode hex="012B"/>
  <outline>
    <contour>
      <point x="249" y="602" type="line"/>
      <point x="517" y="602" type="line"/>
      <point x="530" y="675" type="line"/>
      <point x="262" y="675" type="line"/>
    </contour>
    <component base="dotlessi"/>
  </outline>
</glyph>
<glyph name="Ibreve" format="2">
  <advance width="600"/>
  <unicode hex="012C"/>
  <outline>
    <contour>
      <point x="279" y="892" type="line"/>
      <point x="269" y="830"/>
      <point x="311" y="757"/>
      <point x="400" y="757" type="curve" smooth="yes"/>
      <point x="484" y="757"/>
      <point x="539" y="823"/>
      <point x="549" y="892" type="curve"/>
      <point x="483" y="892" type="line"/>
      <point x="475" y="850"/>
      <point x="450" y="819"/>
      <point x="406" y="819" type="curve" smooth="yes"/>
      <point x="361" y="819"/>
      <point x="343" y="850"/>
      <point x="343" y="892" type="curve"/>
    </contour>
    <component base="I"/>
  </outline>
</glyph>
<glyph name="ibreve" format="2">
  <advance width="600"/>
  <unicode hex="012D"/>
  <outline>
    <contour>
      <point x="264" y="700" type="line"/>
      <point x="255" y="636"/>
      <point x="296" y="565"/>
      <point x="386" y="565" type="curve" smooth="yes"/>
      <point x="472" y="565"/>
      <point x="523" y="630"/>
      <point x="536" y="700" type="curve"/>
      <point x="467" y="700" type="line"/>
      <point x="459" y="659"/>
      <point x="433" y="629"/>
      <point x="392" y="629" type="curve" smooth="yes"/>
      <point x="346" y="629"/>
      <point x="330" y="663"/>
      <point x="332" y="700" type="curve"/>
    </contour>
    <component base="dotlessi"/>
  </outline>
</glyph>
<glyph name="dotlessi" format="2">
  <advance width="600"/>
  <unicode hex="0131"/>
  <outline>
    <contour>
      <point x="45" y="69" type="line"/>
      <point x="33" y="0" type="line"/>
      <point x="516" y="0" type="line"/>
      <point x="528" y="69" type="line"/>
    </contour>
    <contour>
      <point x="129" y="490" type="line"/>
      <point x="117" y="421" type="line"/>
      <point x="355" y="421" type="line"/>
      <point x="367" y="490" type="line"/>
    </contour>
    <contour>
      <point x="319" y="490" type="line"/>
      <point x="233" y="0" type="line"/>
      <point x="321" y="0" type="line"/>
      <point x="407" y="490" type="line"/>
    </contour>
  </outline>
</glyph>
<glyph name="IJ" format="2">
  <advance width="600"/>
  <unicode hex="0132"/>
  <outline>
    <contour>
      <point x="159" y="700" type="line"/>
      <point x="36" y="0" type="line"/>
      <point x="124" y="0" type="line"/>
      <point x="247" y="700" type="line"/>
    </contour>
    <contour>
      <point x="510" y="138" type="curve" smooth="yes"/>
      <point x="609" y="700" type="line"/>
      <point x="519" y="700" type="line"/>
      <point x="423" y="151" type="line" smooth="yes"/>
      <point x="413" y="97"/>
      <point x="380" y="69"/>
      <point x="324" y="69" type="curve" smooth="yes"/>
      <point x="293" y="69"/>
      <point x="254" y="77"/>
      <point x="216" y="90" type="curve"/>
      <point x="202" y="11" type="line"/>
      <point x="234" y="-2"/>
      <point x="285" y="-12"/>
      <point x="328" y="-12" type="curve" smooth="yes"/>
      <point x="429" y="-12"/>
      <point x="494" y="43"/>
    </contour>
  </outline>
</glyph>
<glyph name="jcircumflex" format="2">
  <advance width="600"/>
  <unicode hex="0135"/>
  <outline>
    <contour>
      <point x="427" y="700" type="line"/>
      <point x="302" y="570" type="line"/>
      <point x="389" y="570" type="line"/>
      <point x="503" y="671" type="line"/>
      <point x="453" y="671" type="line"/>
      <point x="527" y="570" type="line"/>
      <point x="600" y="570" type="line"/>
      <point x="521" y="700" type="line"/>
    </contour>
    <component base="dotlessj"/>
  </outline>
</glyph>
<glyph name="Ldot" format="2">
  <advance width="600"/>
  <unicode hex="013F"/>
  <outline>
    <contour>
      <point x="413" y="442" type="line"/>
      <point x="392" y="326" type="line"/>
      <point x="491" y="326" type="line"/>
      <point x="512" y="442" type="line"/>
    </contour>
    <component base="L" identifier="D39717E1"/>
  </outline>
</glyph>
<glyph name="ldot" format="2">
  <advance width="600"/>
  <unicode hex="0140"/>
  <outline>
    <contour>
      <point x="580" y="418" type="line"/>
      <point x="559" y="300" type="line"/>
      <point x="660" y="300" type="line"/>
      <point x="681" y="418" type="line"/>
    </contour>
    <component base="l" identifier="34C1C2D7"/>
  </outline>
</glyph>
<glyph name="lslash" format="2">
  <advance width="600"/>
  <unicode hex="0142"/>
  <outline>
    <contour>
      <point x="107" y="309" type="line"/>
      <point x="93" y="230" type="line"/>
      <point x="532" y="431" type="line"/>
      <point x="546" y="510" type="line"/>
    </contour>
    <component base="l"/>
  </outline>
</glyph>
<glyph name="Eng" format="2">
  <advance width="600"/>
  <unicode hex="014A"/>
  <outline>
    <contour>
      <point x="239" y="-99" type="curve"/>
      <point x="225" y="-178" type="line"/>
      <point x="245" y="-184"/>
      <point x="273" y="-192"/>
      <point x="314" y="-192" type="curve" smooth="yes"/>
      <point x="415" y="-192"/>
      <point x="465" y="-144"/>
      <point x="480" y="-57" type="curve" smooth="yes"/>
      <point x="613" y="700" type="line"/>
      <point x="526" y="700" type="line"/>
      <point x="436" y="186" type="line"/>
      <point x="276" y="700" type="line"/>
      <point x="147" y="700" type="line"/>
      <point x="24" y="0" type="line"/>
      <point x="111" y="0" type="line"/>
      <point x="218" y="606" type="line"/>
      <point x="404" y="6" type="line"/>
      <point x="395" y="-47" type="line" smooth="yes"/>
      <point x="387" y="-90"/>
      <point x="362" y="-111"/>
      <point x="321" y="-111" type="curve" smooth="yes"/>
      <point x="290" y="-111"/>
      <point x="262" y="-105"/>
    </contour>
  </outline>
</glyph>
<glyph name="OE" format="2">
  <advance width="600"/>
  <unicode hex="0152"/>
  <outline>
    <contour>
      <point x="38" y="370" type="curve" smooth="yes"/>
      <point x="-2" y="147"/>
      <point x="34" y="-12"/>
      <point x="160" y="-12" type="curve" smooth="yes"/>
      <point x="202" y="-12"/>
      <point x="238" y="9"/>
      <point x="270" y="49" type="curve"/>
      <point x="261" y="0" type="line"/>
      <point x="550" y="0" type="line"/>
      <point x="564" y="82" type="line"/>
      <point x="361" y="82" type="line"/>
      <point x="402" y="315" type="line"/>
      <point x="516" y="315" type="line"/>
      <point x="531" y="396" type="line"/>
      <point x="417" y="396" type="line"/>
      <point x="456" y="618" type="line"/>
      <point x="641" y="618" type="line"/>
      <point x="655" y="700" type="line"/>
      <point x="384" y="700" type="line"/>
      <point x="374" y="643" type="line"/>
      <point x="355" y="688"/>
      <point x="321" y="712"/>
      <point x="271" y="712" type="curve" smooth="yes"/>
      <point x="174" y="712"/>
      <point x="82" y="623"/>
    </contour>
    <contour>
      <point x="320" y="340" type="curve" smooth="yes"/>
      <point x="283" y="131"/>
      <point x="232" y="69"/>
      <point x="179" y="69" type="curve" smooth="yes"/>
      <point x="126" y="69"/>
      <point x="85" y="131"/>
      <point x="125" y="360" type="curve" smooth="yes"/>
      <point x="162" y="569"/>
      <point x="216" y="631"/>
      <point x="272" y="631" type="curve" smooth="yes"/>
      <point x="334" y="631"/>
      <point x="354" y="534"/>
    </contour>
  </outline>
</glyph>
<glyph name="oe" format="2">
  <advance width="600"/>
  <unicode hex="0153"/>
  <outline>
    <contour>
      <point x="473" y="502" type="curve" smooth="yes"/>
      <point x="320" y="502"/>
      <point x="273" y="275"/>
      <point x="273" y="164" type="curve" smooth="yes"/>
      <point x="273" y="56"/>
      <point x="318" y="-12"/>
      <point x="404" y="-12" type="curve" smooth="yes"/>
      <point x="488" y="-12"/>
      <point x="538" y="48"/>
      <point x="570" y="137" type="curve"/>
      <point x="506" y="156" type="line"/>
      <point x="485" y="92"/>
      <point x="459" y="59"/>
      <point x="413" y="59" type="curve" smooth="yes"/>
      <point x="368" y="59"/>
      <point x="343" y="96"/>
      <point x="343" y="166" type="curve" smooth="yes"/>
      <point x="343" y="233"/>
      <point x="374" y="431"/>
      <point x="463" y="431" type="curve" smooth="yes"/>
      <point x="499" y="431"/>
      <point x="522" y="400"/>
      <point x="522" y="331" type="curve" smooth="yes"/>
      <point x="522" y="308"/>
      <point x="519" y="280"/>
      <point x="513" y="247" type="curve"/>
      <point x="536" y="292" type="line"/>
      <point x="322" y="292" type="line"/>
      <point x="311" y="226" type="line"/>
      <point x="586" y="226" type="line"/>
      <point x="588" y="242" type="line" smooth="yes"/>
      <point x="593" y="271"/>
      <point x="596" y="299"/>
      <point x="596" y="324" type="curve" smooth="yes"/>
      <point x="596" y="431"/>
      <point x="551" y="502"/>
    </contour>
    <contour>
      <point x="274" y="327" type="curve" smooth="yes"/>
      <point x="274" y="256"/>
      <point x="247" y="59"/>
      <point x="155" y="59" type="curve" smooth="yes"/>
      <point x="115" y="59"/>
      <point x="89" y="94"/>
      <point x="89" y="167" type="curve" smooth="yes"/>
      <point x="89" y="230"/>
      <point x="119" y="431"/>
      <point x="212" y="431" type="curve" smooth="yes"/>
      <point x="251" y="431"/>
      <point x="274" y="398"/>
    </contour>
    <contour>
      <point x="216" y="502" type="curve" smooth="yes"/>
      <point x="61" y="502"/>
      <point x="7" y="295"/>
      <point x="7" y="175" type="curve" smooth="yes"/>
      <point x="7" y="59"/>
      <point x="57" y="-12"/>
      <point x="148" y="-12" type="curve" smooth="yes"/>
      <point x="301" y="-12"/>
      <point x="347" y="217"/>
      <point x="347" y="326" type="curve" smooth="yes"/>
      <point x="347" y="438"/>
      <point x="299" y="502"/>
    </contour>
  </outline>
</glyph>
<glyph name="Tbar" format="2">
  <advance width="600"/>
  <unicode hex="0166"/>
  <outline>
    <contour>
      <point x="139" y="325" type="line"/>
      <point x="488" y="325" type="line"/>
      <point x="502" y="403" type="line"/>
      <point x="153" y="403" type="line"/>
    </contour>
    <contour>
      <point x="329" y="671" type="line"/>
      <point x="211" y="0" type="line"/>
      <point x="302" y="0" type="line"/>
      <point x="420" y="671" type="line"/>
    </contour>
    <contour>
      <point x="107" y="620" type="line"/>
      <point x="624" y="620" type="line"/>
      <point x="638" y="700" type="line"/>
      <point x="121" y="700" type="line"/>
    </contour>
  </outline>
</glyph>
<glyph name="tbar" format="2">
  <advance width="600"/>
  <unicode hex="0167"/>
  <outline>
    <contour>
      <point x="35" y="251" type="line"/>
      <point x="520" y="251" type="line"/>
      <point x="532" y="320" type="line"/>
      <point x="47" y="320" type="line"/>
    </contour>
    <component base="t" identifier="6699E1B5"/>
  </outline>
</glyph>
<glyph name="Uogonek" format="2">
  <advance width="600"/>
  <unicode hex="0172"/>
  <outline>
    <contour>
      <point x="530" y="214" type="curve" smooth="yes"/>
      <point x="616" y="700" type="line"/>
      <point x="526" y="700" type="line"/>
      <point x="442" y="224" type="line" smooth="yes"/>
      <point x="425" y="126"/>
      <point x="379" y="71"/>
      <point x="277" y="71" type="curve" smooth="yes"/>
      <point x="198" y="71"/>
      <point x="148" y="115"/>
      <point x="148" y="191" type="curve" smooth="yes"/>
      <point x="148" y="202"/>
      <point x="149" y="214"/>
      <point x="151" y="226" type="curve" smooth="yes"/>
      <point x="235" y="700" type="line"/>
      <point x="144" y="700" type="line"/>
      <point x="62" y="233" type="line" smooth="yes"/>
      <point x="59" y="217"/>
      <point x="58" y="201"/>
      <point x="58" y="186" type="curve" smooth="yes"/>
      <point x="58" y="78"/>
      <point x="128" y="0"/>
      <point x="244" y="-11" type="curve"/>
      <point x="197" y="-37"/>
      <point x="158" y="-75"/>
      <point x="158" y="-126" type="curve" smooth="yes"/>
      <point x="158" y="-168"/>
      <point x="196" y="-195"/>
      <point x="254" y="-195" type="curve" smooth="yes"/>
      <point x="267" y="-195"/>
      <point x="293" y="-194"/>
      <point x="318" y="-184" type="curve"/>
      <point x="323" y="-129" type="line"/>
      <point x="309" y="-133"/>
      <point x="290" y="-135"/>
      <point x="274" y="-135" type="curve" smooth="yes"/>
      <point x="245" y="-135"/>
      <point x="232" y="-123"/>
      <point x="232" y="-102" type="curve" smooth="yes"/>
      <point x="232" y="-76"/>
      <point x="279" y="-23"/>
      <point x="336" y="-6" type="curve" smooth="yes"/>
      <point x="450" y="29"/>
      <point x="510" y="96"/>
    </contour>
  </outline>
</glyph>
<glyph name="Bhook" format="2">
  <advance width="600"/>
  <unicode hex="0181"/>
  <outline>
    <contour>
      <point x="241" y="700" type="line"/>
      <point x="118" y="0" type="line"/>
      <point x="208" y="0" type="line"/>
      <point x="331" y="700" type="line"/>
    </contour>
    <contour>
      <point x="332" y="0" type="line"/>
      <point x="479" y="0"/>
      <point x="578" y="111"/>
      <point x="578" y="224" type="curve" smooth="yes"/>
      <point x="578" y="289"/>
      <point x="544" y="344"/>
      <point x="491" y="362" type="curve"/>
      <point x="488" y="355" type="line"/>
      <point x="572" y="377"/>
      <point x="619" y="461"/>
      <point x="619" y="543" type="curve" smooth="yes"/>
      <point x="619" y="632"/>
      <point x="555" y="700"/>
      <point x="452" y="700" type="curve" smooth="yes"/>
      <point x="276" y="700" type="line"/>
      <point x="262" y="620" type="line"/>
      <point x="423" y="620" type="line" smooth="yes"/>
      <point x="489" y="620"/>
      <point x="529" y="585"/>
      <point x="529" y="530" type="curve" smooth="yes"/>
      <point x="529" y="465"/>
      <point x="485" y="399"/>
      <point x="398" y="399" type="curve" smooth="yes"/>
      <point x="222" y="399" type="line"/>
      <point x="208" y="320" type="line"/>
      <point x="374" y="320" type="line" smooth="yes"/>
      <point x="439" y="320"/>
      <point x="486" y="287"/>
      <point x="486" y="218" type="curve" smooth="yes"/>
      <point x="486" y="144"/>
      <point x="429" y="80"/>
      <point x="333" y="80" type="curve" smooth="yes"/>
      <point x="167" y="80" type="line"/>
      <point x="153" y="0" type="line"/>
    </contour>
    <contour>
      <point x="312" y="700" type="line"/>
      <point x="228" y="700" type="line" smooth="yes"/>
      <point x="130" y="700"/>
      <point x="69" y="637"/>
      <point x="57" y="566" type="curve" smooth="yes"/>
      <point x="49" y="520"/>
      <point x="56" y="476"/>
      <point x="66" y="452" type="curve"/>
      <point x="155" y="457" type="line"/>
      <point x="143" y="487"/>
      <point x="135" y="513"/>
      <point x="143" y="556" type="curve" smooth="yes"/>
      <point x="150" y="597"/>
      <point x="181" y="620"/>
      <point x="223" y="620" type="curve" smooth="yes"/>
      <point x="298" y="620" type="line"/>
    </contour>
  </outline>
</glyph>
<glyph name="Oopen" format="2">
  <advance width="600"/>
  <unicode hex="0186"/>
  <outline>
    <contour>
      <point x="276" y="-12" type="curve" smooth="yes"/>
      <point x="450" y="-12"/>
      <point x="584" y="187"/>
      <point x="584" y="426" type="curve" smooth="yes"/>
      <point x="584" y="601"/>
      <point x="504" y="712"/>
      <point x="364" y="712" type="curve" smooth="yes"/>
      <point x="246" y="712"/>
      <point x="146" y="628"/>
      <point x="94" y="497" type="curve"/>
      <point x="180" y="473" type="line"/>
      <point x="218" y="571"/>
      <point x="280" y="631"/>
      <point x="358" y="631" type="curve" smooth="yes"/>
      <point x="448" y="631"/>
      <point x="495" y="560"/>
      <point x="495" y="434" type="curve" smooth="yes"/>
      <point x="495" y="228"/>
      <point x="403" y="69"/>
      <point x="281" y="69" type="curve" smooth="yes"/>
      <point x="199" y="69"/>
      <point x="157" y="132"/>
      <point x="147" y="241" type="curve"/>
      <point x="57" y="218" type="line"/>
      <point x="74" y="79"/>
      <point x="151" y="-12"/>
    </contour>
  </outline>
</glyph>
<glyph name="Dhook" format="2">
  <advance width="600"/>
  <unicode hex="018A"/>
  <outline>
    <contour>
      <point x="305" y="700" type="line"/>
      <point x="221" y="700" type="line" smooth="yes"/>
      <point x="141" y="700"/>
      <point x="70" y="643"/>
      <point x="58" y="573" type="curve" smooth="yes"/>
      <point x="48" y="517"/>
      <point x="55" y="479"/>
      <point x="64" y="455" type="curve"/>
      <point x="153" y="460" type="line"/>
      <point x="141" y="489"/>
      <point x="136" y="515"/>
      <point x="143" y="555" type="curve" smooth="yes"/>
      <point x="150" y="597"/>
      <point x="181" y="620"/>
      <point x="210" y="620" type="curve" smooth="yes"/>
      <point x="291" y="620" type="line"/>
    </contour>
    <contour>
      <point x="101" y="0" type="line"/>
      <point x="191" y="0" type="line"/>
      <point x="314" y="700" type="line"/>
      <point x="224" y="700" type="line"/>
    </contour>
    <contour>
      <point x="149" y="80" type="line"/>
      <point x="135" y="0" type="line"/>
      <point x="269" y="0" type="line" smooth="yes"/>
      <point x="441" y="0"/>
      <point x="559" y="125"/>
      <point x="594" y="320" type="curve" smooth="yes"/>
      <point x="637" y="561"/>
      <point x="544" y="700"/>
      <point x="376" y="700" type="curve" smooth="yes"/>
      <point x="257" y="700" type="line"/>
      <point x="243" y="620" type="line"/>
      <point x="355" y="620" type="line" smooth="yes"/>
      <point x="475" y="620"/>
      <point x="540" y="526"/>
      <point x="505" y="330" type="curve" smooth="yes"/>
      <point x="476" y="169"/>
      <point x="395" y="80"/>
      <point x="269" y="80" type="curve" smooth="yes"/>
    </contour>
  </outline>
</glyph>
<glyph name="Schwa" format="2">
  <advance width="600"/>
  <unicode hex="018F"/>
  <outline>
    <contour>
      <point x="273" y="-12" type="curve" smooth="yes"/>
      <point x="490" y="-12"/>
      <point x="584" y="246"/>
      <point x="584" y="428" type="curve" smooth="yes"/>
      <point x="584" y="601"/>
      <point x="501" y="712"/>
      <point x="363" y="712" type="curve" smooth="yes"/>
      <point x="249" y="712"/>
      <point x="147" y="634"/>
      <point x="93" y="502" type="curve"/>
      <point x="170" y="478" type="line"/>
      <point x="208" y="567"/>
      <point x="278" y="632"/>
      <point x="358" y="632" type="curve" smooth="yes"/>
      <point x="451" y="632"/>
      <point x="496" y="550"/>
      <point x="496" y="431" type="curve" smooth="yes"/>
      <point x="496" y="299"/>
      <point x="437" y="69"/>
      <point x="278" y="69" type="curve" smooth="yes"/>
      <point x="195" y="69"/>
      <point x="144" y="140"/>
      <point x="144" y="258" type="curve" smooth="yes"/>
      <point x="144" y="286"/>
      <point x="147" y="316"/>
      <point x="153" y="348" type="curve"/>
      <point x="129" y="291" type="line"/>
      <point x="509" y="291" type="line"/>
      <point x="522" y="366" type="line"/>
      <point x="68" y="366" type="line"/>
      <point x="66" y="355" type="line" smooth="yes"/>
      <point x="60" y="321"/>
      <point x="57" y="289"/>
      <point x="57" y="258" type="curve" smooth="yes"/>
      <point x="57" y="102"/>
      <point x="133" y="-12"/>
    </contour>
  </outline>
</glyph>
<glyph name="Eopen" format="2">
  <advance width="600"/>
  <unicode hex="0190"/>
  <outline>
    <contour>
      <point x="550" y="188" type="curve"/>
      <point x="462" y="182" type="line"/>
      <point x="452" y="114"/>
      <point x="391" y="68"/>
      <point x="288" y="68" type="curve" smooth="yes"/>
      <point x="201" y="68"/>
      <point x="136" y="115"/>
      <point x="136" y="189" type="curve" smooth="yes"/>
      <point x="136" y="276"/>
      <point x="215" y="322"/>
      <point x="302" y="322" type="curve" smooth="yes"/>
      <point x="384" y="322" type="line"/>
      <point x="398" y="402" type="line"/>
      <point x="329" y="402" type="line" smooth="yes"/>
      <point x="260" y="402"/>
      <point x="210" y="431"/>
      <point x="210" y="502" type="curve" smooth="yes"/>
      <point x="210" y="589"/>
      <point x="282" y="633"/>
      <point x="371" y="633" type="curve" smooth="yes"/>
      <point x="458" y="633"/>
      <point x="513" y="577"/>
      <point x="513" y="521" type="curve" smooth="yes"/>
      <point x="513" y="516"/>
      <point x="513" y="512"/>
      <point x="512" y="507" type="curve"/>
      <point x="598" y="501" type="line"/>
      <point x="599" y="509"/>
      <point x="599" y="518"/>
      <point x="599" y="526" type="curve" smooth="yes"/>
      <point x="599" y="643"/>
      <point x="499" y="712"/>
      <point x="373" y="712" type="curve" smooth="yes"/>
      <point x="225" y="712"/>
      <point x="121" y="618"/>
      <point x="121" y="497" type="curve" smooth="yes"/>
      <point x="121" y="435"/>
      <point x="164" y="378"/>
      <point x="212" y="364" type="curve"/>
      <point x="213" y="370" type="line"/>
      <point x="106" y="349"/>
      <point x="46" y="270"/>
      <point x="46" y="176" type="curve" smooth="yes"/>
      <point x="46" y="76"/>
      <point x="134" y="-12"/>
      <point x="279" y="-12" type="curve" smooth="yes"/>
      <point x="421" y="-12"/>
      <point x="531" y="53"/>
    </contour>
  </outline>
</glyph>
<glyph name="Khook" format="2">
  <advance width="600"/>
  <unicode hex="0198"/>
  <outline>
    <contour>
      <point x="173" y="700" type="line"/>
      <point x="50" y="0" type="line"/>
      <point x="141" y="0" type="line"/>
      <point x="264" y="700" type="line"/>
    </contour>
    <contour>
      <point x="260" y="348" type="line"/>
      <point x="462" y="0" type="line"/>
      <point x="566" y="0" type="line"/>
      <point x="324" y="416" type="line"/>
    </contour>
    <contour>
      <point x="546" y="599" type="line"/>
      <point x="566" y="619"/>
      <point x="584" y="627"/>
      <point x="604" y="627" type="curve" smooth="yes"/>
      <point x="626" y="627"/>
      <point x="648" y="618"/>
      <point x="663" y="610" type="curve"/>
      <point x="681" y="693" type="line"/>
      <point x="665" y="703"/>
      <point x="633" y="712"/>
      <point x="605" y="712" type="curve" smooth="yes"/>
      <point x="564" y="712"/>
      <point x="524" y="698"/>
      <point x="490" y="662" type="curve" smooth="yes"/>
      <point x="146" y="301" type="line"/>
      <point x="132" y="182" type="line"/>
      <point x="294" y="341" type="line"/>
      <point x="318" y="361" type="line"/>
    </contour>
  </outline>
</glyph>
<glyph name="Nhookleft" format="2">
  <advance width="600"/>
  <unicode hex="019D"/>
  <outline>
    <contour>
      <point x="-98" y="-103" type="curve"/>
      <point x="-112" y="-180" type="line"/>
      <point x="-97" y="-187"/>
      <point x="-64" y="-192"/>
      <point x="-42" y="-192" type="curve" smooth="yes"/>
      <point x="35" y="-192"/>
      <point x="85" y="-148"/>
      <point x="97" y="-76" type="curve" smooth="yes"/>
      <point x="216" y="597" type="line"/>
      <point x="382" y="0" type="line"/>
      <point x="490" y="0" type="line"/>
      <point x="613" y="700" type="line"/>
      <point x="526" y="700" type="line"/>
      <point x="430" y="157" type="line"/>
      <point x="279" y="700" type="line"/>
      <point x="147" y="700" type="line"/>
      <point x="13" y="-62" type="line" smooth="yes"/>
      <point x="8" y="-93"/>
      <point x="-11" y="-111"/>
      <point x="-46" y="-111" type="curve" smooth="yes"/>
      <point x="-62" y="-111"/>
      <point x="-79" y="-109"/>
    </contour>
  </outline>
</glyph>
<glyph name="Yhook" format="2">
  <advance width="600"/>
  <unicode hex="01B3"/>
  <outline>
    <contour>
      <point x="591" y="596" type="line"/>
      <point x="610" y="620"/>
      <point x="627" y="627"/>
      <point x="643" y="627" type="curve" smooth="yes"/>
      <point x="657" y="627"/>
      <point x="665" y="624"/>
      <point x="675" y="619" type="curve"/>
      <point x="693" y="700" type="line"/>
      <point x="682" y="707"/>
      <point x="665" y="712"/>
      <point x="645" y="712" type="curve" smooth="yes"/>
      <point x="597" y="712"/>
      <point x="559" y="693"/>
      <point x="526" y="651" type="curve" smooth="yes"/>
      <point x="285" y="344" type="line"/>
      <point x="336" y="344" type="line"/>
      <point x="182" y="700" type="line"/>
      <point x="87" y="700" type="line"/>
      <point x="263" y="297" type="line"/>
      <point x="211" y="0" type="line"/>
      <point x="302" y="0" type="line"/>
      <point x="354" y="297" type="line"/>
    </contour>
  </outline>
</glyph>
<glyph name="Icaron" format="2">
  <advance width="600"/>
  <unicode hex="01CF"/>
  <outline>
    <contour>
      <point x="439" y="771" type="line"/>
      <point x="572" y="892" type="line"/>
      <point x="482" y="892" type="line"/>
      <point x="369" y="810" type="line"/>
      <point x="421" y="810" type="line"/>
      <point x="336" y="892" type="line"/>
      <point x="256" y="892" type="line"/>
      <point x="347" y="771" type="line"/>
    </contour>
    <component base="I"/>
  </outline>
</glyph>
<glyph name="icaron" format="2">
  <advance width="600"/>
  <unicode hex="01D0"/>
  <outline>
    <contour>
      <point x="425" y="570" type="line"/>
      <point x="550" y="700" type="line"/>
      <point x="463" y="700" type="line"/>
      <point x="349" y="599" type="line"/>
      <point x="399" y="599" type="line"/>
      <point x="325" y="700" type="line"/>
      <point x="252" y="700" type="line"/>
      <point x="331" y="570" type="line"/>
    </contour>
    <component base="dotlessi"/>
  </outline>
</glyph>
<glyph name="Oogonek" format="2">
  <advance width="600"/>
  <unicode hex="01EA"/>
  <outline>
    <contour>
      <point x="584" y="426" type="curve" smooth="yes"/>
      <point x="584" y="601"/>
      <point x="504" y="712"/>
      <point x="364" y="712" type="curve" smooth="yes"/>
      <point x="188" y="712"/>
      <point x="53" y="515"/>
      <point x="53" y="275" type="curve" smooth="yes"/>
      <point x="53" y="116"/>
      <point x="121" y="9"/>
      <point x="239" y="-9" type="curve"/>
      <point x="191" y="-33"/>
      <point x="151" y="-74"/>
      <point x="151" y="-126" type="curve" smooth="yes"/>
      <point x="151" y="-168"/>
      <point x="189" y="-195"/>
      <point x="247" y="-195" type="curve" smooth="yes"/>
      <point x="260" y="-195"/>
      <point x="286" y="-194"/>
      <point x="311" y="-184" type="curve"/>
      <point x="316" y="-129" type="line"/>
      <point x="302" y="-133"/>
      <point x="283" y="-135"/>
      <point x="267" y="-135" type="curve" smooth="yes"/>
      <point x="238" y="-135"/>
      <point x="225" y="-123"/>
      <point x="225" y="-102" type="curve" smooth="yes"/>
      <point x="225" y="-76"/>
      <point x="265" y="-24"/>
      <point x="331" y="-6" type="curve" smooth="yes"/>
      <point x="474" y="33"/>
      <point x="584" y="205"/>
    </contour>
    <contour>
      <point x="281" y="69" type="curve" smooth="yes"/>
      <point x="191" y="69"/>
      <point x="142" y="142"/>
      <point x="142" y="269" type="curve" smooth="yes"/>
      <point x="142" y="472"/>
      <point x="235" y="631"/>
      <point x="358" y="631" type="curve" smooth="yes"/>
      <point x="448" y="631"/>
      <point x="495" y="560"/>
      <point x="495" y="434" type="curve" smooth="yes"/>
      <point x="495" y="228"/>
      <point x="403" y="69"/>
    </contour>
  </outline>
</glyph>
<glyph name="oogonek" format="2">
  <advance width="600"/>
  <unicode hex="01EB"/>
  <outline>
    <contour>
      <point x="56" y="203" type="curve" smooth="yes"/>
      <point x="56" y="78"/>
      <point x="137" y="-4"/>
      <point x="248" y="-11" type="curve"/>
      <point x="202" y="-38"/>
      <point x="164" y="-76"/>
      <point x="164" y="-126" type="curve" smooth="yes"/>
      <point x="164" y="-168"/>
      <point x="202" y="-195"/>
      <point x="260" y="-195" type="curve" smooth="yes"/>
      <point x="273" y="-195"/>
      <point x="299" y="-194"/>
      <point x="324" y="-184" type="curve"/>
      <point x="329" y="-129" type="line"/>
      <point x="315" y="-133"/>
      <point x="296" y="-135"/>
      <point x="280" y="-135" type="curve" smooth="yes"/>
      <point x="251" y="-135"/>
      <point x="238" y="-123"/>
      <point x="238" y="-102" type="curve" smooth="yes"/>
      <point x="238" y="-74"/>
      <point x="283" y="-26"/>
      <point x="343" y="-5" type="curve" smooth="yes"/>
      <point x="464" y="37"/>
      <point x="544" y="149"/>
      <point x="544" y="287" type="curve" smooth="yes"/>
      <point x="544" y="418"/>
      <point x="455" y="502"/>
      <point x="335" y="502" type="curve" smooth="yes"/>
      <point x="171" y="502"/>
      <point x="56" y="367"/>
    </contour>
    <contour>
      <point x="327" y="432" type="curve" smooth="yes"/>
      <point x="407" y="432"/>
      <point x="455" y="375"/>
      <point x="455" y="284" type="curve" smooth="yes"/>
      <point x="455" y="176"/>
      <point x="392" y="58"/>
      <point x="273" y="58" type="curve" smooth="yes"/>
      <point x="193" y="58"/>
      <point x="145" y="115"/>
      <point x="145" y="206" type="curve" smooth="yes"/>
      <point x="145" y="314"/>
      <point x="208" y="432"/>
    </contour>
  </outline>
</glyph>
<glyph name="dotlessj" format="2">
  <advance width="600"/>
  <unicode hex="0237"/>
  <outline>
    <contour>
      <point x="391" y="-24" type="curve" smooth="yes"/>
      <point x="481" y="490" type="line"/>
      <point x="393" y="490" type="line"/>
      <point x="304" y="-14" type="line" smooth="yes"/>
      <point x="293" y="-79"/>
      <point x="249" y="-116"/>
      <point x="158" y="-116" type="curve" smooth="yes"/>
      <point x="120" y="-116"/>
      <point x="87" y="-112"/>
      <point x="26" y="-93" type="curve"/>
      <point x="13" y="-163" type="line"/>
      <point x="66" y="-184"/>
      <point x="116" y="-189"/>
      <point x="167" y="-189" type="curve" smooth="yes"/>
      <point x="274" y="-189"/>
      <point x="369" y="-147"/>
    </contour>
    <contour>
      <point x="130" y="421" type="line"/>
      <point x="429" y="421" type="line"/>
      <point x="441" y="490" type="line"/>
      <point x="142" y="490" type="line"/>
    </contour>
  </outline>
</glyph>
<glyph name="bhook" format="2">
  <advance width="600"/>
  <unicode hex="0253"/>
  <outline>
    <contour>
      <point x="291" y="58" type="curve" smooth="yes"/>
      <point x="213" y="58"/>
      <point x="167" y="111"/>
      <point x="167" y="202" type="curve" smooth="yes"/>
      <point x="167" y="315"/>
      <point x="226" y="432"/>
      <point x="345" y="432" type="curve" smooth="yes"/>
      <point x="422" y="432"/>
      <point x="468" y="380"/>
      <point x="468" y="287" type="curve" smooth="yes"/>
      <point x="468" y="175"/>
      <point x="409" y="58"/>
    </contour>
    <contour>
      <point x="237" y="580" type="line"/>
      <point x="243" y="617"/>
      <point x="268" y="631"/>
      <point x="298" y="631" type="curve" smooth="yes"/>
      <point x="316" y="631"/>
      <point x="339" y="626"/>
      <point x="355" y="618" type="curve"/>
      <point x="371" y="689" type="line"/>
      <point x="353" y="697"/>
      <point x="324" y="706"/>
      <point x="294" y="706" type="curve" smooth="yes"/>
      <point x="208" y="706"/>
      <point x="162" y="654"/>
      <point x="150" y="587" type="curve" smooth="yes"/>
      <point x="47" y="0" type="line"/>
      <point x="135" y="0" type="line"/>
      <point x="156" y="117" type="line"/>
      <point x="127" y="123" type="line"/>
      <point x="152" y="35"/>
      <point x="218" y="-12"/>
      <point x="308" y="-12" type="curve" smooth="yes"/>
      <point x="468" y="-12"/>
      <point x="558" y="143"/>
      <point x="558" y="296" type="curve" smooth="yes"/>
      <point x="558" y="432"/>
      <point x="481" y="502"/>
      <point x="380" y="502" type="curve" smooth="yes"/>
      <point x="295" y="502"/>
      <point x="222" y="459"/>
      <point x="170" y="377" type="curve"/>
      <point x="201" y="371" type="line"/>
    </contour>
  </outline>
</glyph>
<glyph name="dhook" format="2">
  <advance width="600"/>
  <unicode hex="0257"/>
  <outline>
    <contour>
      <point x="570" y="582" type="line"/>
      <point x="577" y="619"/>
      <point x="600" y="631"/>
      <point x="630" y="631" type="curve" smooth="yes"/>
      <point x="649" y="631"/>
      <point x="671" y="626"/>
      <point x="688" y="619" type="curve"/>
      <point x="704" y="690" type="line"/>
      <point x="686" y="698"/>
      <point x="656" y="706"/>
      <point x="628" y="706" type="curve" smooth="yes"/>
      <point x="553" y="706"/>
      <point x="496" y="664"/>
      <point x="483" y="591" type="curve" smooth="yes"/>
      <point x="444" y="373" type="line"/>
      <point x="473" y="367" type="line"/>
      <point x="448" y="455"/>
      <point x="382" y="502"/>
      <point x="292" y="502" type="curve" smooth="yes"/>
      <point x="132" y="502"/>
      <point x="42" y="347"/>
      <point x="42" y="194" type="curve" smooth="yes"/>
      <point x="42" y="58"/>
      <point x="119" y="-12"/>
      <point x="220" y="-12" type="curve" smooth="yes"/>
      <point x="305" y="-12"/>
      <point x="378" y="31"/>
      <point x="430" y="113" type="curve"/>
      <point x="399" y="119" type="line"/>
      <point x="379" y="0" type="line"/>
      <point x="467" y="0" type="line"/>
    </contour>
    <contour>
      <point x="132" y="203" type="curve" smooth="yes"/>
      <point x="132" y="315"/>
      <point x="191" y="432"/>
      <point x="309" y="432" type="curve" smooth="yes"/>
      <point x="387" y="432"/>
      <point x="433" y="379"/>
      <point x="433" y="288" type="curve" smooth="yes"/>
      <point x="433" y="175"/>
      <point x="374" y="58"/>
      <point x="255" y="58" type="curve" smooth="yes"/>
      <point x="178" y="58"/>
      <point x="132" y="110"/>
    </contour>
  </outline>
</glyph>
<glyph name="istroke" format="2">
  <advance width="600"/>
  <unicode hex="0268"/>
  <outline>
    <contour>
      <point x="558" y="237" type="line"/>
      <point x="570" y="306" type="line"/>
      <point x="87" y="306" type="line"/>
      <point x="75" y="237" type="line"/>
    </contour>
    <component base="i" identifier="002A974D"/>
  </outline>
</glyph>
<glyph name="nhookleft" format="2">
  <advance width="600"/>
  <unicode hex="0272"/>
  <outline>
    <contour>
      <point x="-87" y="-179" type="line"/>
      <point x="-68" y="-185"/>
      <point x="-43" y="-189"/>
      <point x="-21" y="-189" type="curve" smooth="yes"/>
      <point x="42" y="-189"/>
      <point x="109" y="-164"/>
      <point x="127" y="-63" type="curve" smooth="yes"/>
      <point x="190" y="298" type="line" smooth="yes"/>
      <point x="204" y="377"/>
      <point x="266" y="431"/>
      <point x="342" y="431" type="curve" smooth="yes"/>
      <point x="405" y="431"/>
      <point x="436" y="392"/>
      <point x="436" y="336" type="curve" smooth="yes"/>
      <point x="436" y="327"/>
      <point x="435" y="317"/>
      <point x="433" y="307" type="curve" smooth="yes"/>
      <point x="379" y="0" type="line"/>
      <point x="467" y="0" type="line"/>
      <point x="524" y="322" type="line" smooth="yes"/>
      <point x="526" y="334"/>
      <point x="527" y="346"/>
      <point x="527" y="358" type="curve" smooth="yes"/>
      <point x="527" y="440"/>
      <point x="476" y="502"/>
      <point x="384" y="502" type="curve" smooth="yes"/>
      <point x="319" y="502"/>
      <point x="258" y="472"/>
      <point x="213" y="425" type="curve"/>
      <point x="224" y="490" type="line"/>
      <point x="136" y="490" type="line"/>
      <point x="39" y="-58" type="line" smooth="yes"/>
      <point x="32" y="-100"/>
      <point x="7" y="-113"/>
      <point x="-29" y="-113" type="curve" smooth="yes"/>
      <point x="-39" y="-113"/>
      <point x="-56" y="-111"/>
      <point x="-74" y="-107" type="curve"/>
    </contour>
  </outline>
</glyph>
<glyph name="vturned" format="2">
  <advance width="600"/>
  <unicode hex="028C"/>
  <outline>
    <contour>
      <point x="389" y="490" type="line"/>
      <point x="295" y="490" type="line"/>
      <point x="-1" y="0" type="line"/>
      <point x="96" y="0" type="line"/>
      <point x="357" y="442" type="line"/>
      <point x="319" y="442" type="line"/>
      <point x="428" y="0" type="line"/>
      <point x="515" y="0" type="line"/>
    </contour>
  </outline>
</glyph>
<glyph name="ringhalfleftmod" format="2">
  <advance width="600"/>
  <unicode hex="02BF"/>
  <outline>
    <contour>
      <point x="438" y="629" type="curve"/>
      <point x="457" y="629" type="line"/>
      <point x="470" y="700" type="line"/>
      <point x="455" y="700" type="line" smooth="yes"/>
      <point x="324" y="700"/>
      <point x="260" y="613"/>
      <point x="260" y="517" type="curve" smooth="yes"/>
      <point x="260" y="427"/>
      <point x="319" y="375"/>
      <point x="405" y="375" type="curve" smooth="yes"/>
      <point x="412" y="375" type="line"/>
      <point x="425" y="446" type="line"/>
      <point x="416" y="446" type="line" smooth="yes"/>
      <point x="366" y="446"/>
      <point x="337" y="478"/>
      <point x="337" y="524" type="curve" smooth="yes"/>
      <point x="337" y="580"/>
      <point x="380" y="629"/>
    </contour>
  </outline>
</glyph>
<glyph name="acutecmb" format="2">
  <advance width="600"/>
  <unicode hex="0301"/>
  <outline>
    <contour>
      <point x="371" y="700" type="line"/>
      <point x="475" y="700" type="line"/>
      <point x="365" y="570" type="line"/>
      <point x="283" y="570" type="line"/>
    </contour>
  </outline>
</glyph>
<glyph name="circumflexcmb" format="2">
  <advance width="600"/>
  <unicode hex="0302"/>
  <outline>
    <contour>
      <point x="333" y="700" type="line"/>
      <point x="208" y="570" type="line"/>
      <point x="295" y="570" type="line"/>
      <point x="409" y="671" type="line"/>
      <point x="359" y="671" type="line"/>
      <point x="433" y="570" type="line"/>
      <point x="506" y="570" type="line"/>
      <point x="427" y="700" type="line"/>
    </contour>
  </outline>
</glyph>
<glyph name="tildecmb" format="2">
  <advance width="600"/>
  <unicode hex="0303"/>
  <outline>
    <contour>
      <point x="321" y="680" type="curve" smooth="yes"/>
      <point x="271" y="680"/>
      <point x="236" y="635"/>
      <point x="223" y="570" type="curve"/>
      <point x="282" y="570" type="line"/>
      <point x="290" y="595"/>
      <point x="300" y="609"/>
      <point x="318" y="609" type="curve" smooth="yes"/>
      <point x="346" y="609"/>
      <point x="377" y="577"/>
      <point x="415" y="577" type="curve" smooth="yes"/>
      <point x="465" y="577"/>
      <point x="499" y="621"/>
      <point x="512" y="686" type="curve"/>
      <point x="452" y="686" type="line"/>
      <point x="445" y="661"/>
      <point x="436" y="647"/>
      <point x="417" y="647" type="curve" smooth="yes"/>
      <point x="389" y="647"/>
      <point x="359" y="680"/>
    </contour>
  </outline>
</glyph>
<glyph name="macroncmb" format="2">
  <advance width="600"/>
  <unicode hex="0304"/>
  <outline>
    <contour>
      <point x="229" y="602" type="line"/>
      <point x="497" y="602" type="line"/>
      <point x="510" y="675" type="line"/>
      <point x="242" y="675" type="line"/>
    </contour>
  </outline>
</glyph>
<glyph name="brevecmb" format="2">
  <advance width="600"/>
  <unicode hex="0306"/>
  <outline>
    <contour>
      <point x="244" y="700" type="line"/>
      <point x="235" y="636"/>
      <point x="276" y="565"/>
      <point x="366" y="565" type="curve" smooth="yes"/>
      <point x="452" y="565"/>
      <point x="503" y="630"/>
      <point x="516" y="700" type="curve"/>
      <point x="447" y="700" type="line"/>
      <point x="439" y="659"/>
      <point x="413" y="629"/>
      <point x="372" y="629" type="curve" smooth="yes"/>
      <point x="326" y="629"/>
      <point x="310" y="663"/>
      <point x="312" y="700" type="curve"/>
    </contour>
  </outline>
</glyph>
<glyph name="dotaccentcmb" format="2">
  <advance width="600"/>
  <unicode hex="0307"/>
  <outline>
    <contour>
      <point x="325" y="700" type="line"/>
      <point x="305" y="588" type="line"/>
      <point x="415" y="588" type="line"/>
      <point x="435" y="700" type="line"/>
    </contour>
  </outline>
</glyph>
<glyph name="dieresiscmb" format="2">
  <advance width="600"/>
  <unicode hex="0308"/>
  <outline>
    <contour>
      <point x="242" y="700" type="line"/>
      <point x="222" y="588" type="line"/>
      <point x="324" y="588" type="line"/>
      <point x="344" y="700" type="line"/>
    </contour>
    <contour>
      <point x="415" y="700" type="line"/>
      <point x="395" y="588" type="line"/>
      <point x="497" y="588" type="line"/>
      <point x="517" y="700" type="line"/>
    </contour>
  </outline>
</glyph>
<glyph name="hookabovecmb" format="2">
  <advance width="600"/>
  <unicode hex="0309"/>
  <outline>
    <contour>
      <point x="460" y="674" type="curve" smooth="yes"/>
      <point x="460" y="718"/>
      <point x="432" y="751"/>
      <point x="382" y="751" type="curve" smooth="yes"/>
      <point x="343" y="751"/>
      <point x="306" y="730"/>
      <point x="283" y="698" type="curve"/>
      <point x="318" y="667" type="line"/>
      <point x="329" y="680"/>
      <point x="346" y="697"/>
      <point x="369" y="697" type="curve" smooth="yes"/>
      <point x="387" y="697"/>
      <point x="401" y="688"/>
      <point x="401" y="668" type="curve" smooth="yes"/>
      <point x="401" y="642"/>
      <point x="378" y="622"/>
      <point x="333" y="609" type="curve"/>
      <point x="360" y="568" type="line"/>
      <point x="408" y="578"/>
      <point x="460" y="616"/>
    </contour>
  </outline>
</glyph>
<glyph name="ringabovecmb" format="2">
  <advance width="600"/>
  <unicode hex="030A"/>
  <outline>
    <contour>
      <point x="417" y="665" type="curve" smooth="yes"/>
      <point x="417" y="639"/>
      <point x="398" y="613"/>
      <point x="367" y="613" type="curve" smooth="yes"/>
      <point x="343" y="613"/>
      <point x="329" y="628"/>
      <point x="329" y="651" type="curve" smooth="yes"/>
      <point x="329" y="677"/>
      <point x="348" y="703"/>
      <point x="379" y="703" type="curve" smooth="yes"/>
      <point x="403" y="703"/>
      <point x="417" y="688"/>
    </contour>
    <contour>
      <point x="277" y="645" type="curve" smooth="yes"/>
      <point x="277" y="599"/>
      <point x="310" y="564"/>
      <point x="362" y="564" type="curve" smooth="yes"/>
      <point x="424" y="564"/>
      <point x="469" y="613"/>
      <point x="469" y="671" type="curve" smooth="yes"/>
      <point x="469" y="717"/>
      <point x="436" y="752"/>
      <point x="384" y="752" type="curve" smooth="yes"/>
      <point x="322" y="752"/>
      <point x="277" y="703"/>
    </contour>
  </outline>
</glyph>
<glyph name="hungarumlautcmb" format="2">
  <advance width="600"/>
  <unicode hex="030B"/>
  <outline>
    <contour>
      <point x="294" y="700" type="line"/>
      <point x="211" y="570" type="line"/>
      <point x="291" y="570" type="line"/>
      <point x="386" y="700" type="line"/>
    </contour>
    <contour>
      <point x="428" y="700" type="line"/>
      <point x="345" y="570" type="line"/>
      <point x="425" y="570" type="line"/>
      <point x="520" y="700" type="line"/>
    </contour>
  </outline>
</glyph>
<glyph name="caroncmb" format="2">
  <advance width="600"/>
  <unicode hex="030C"/>
  <outline>
    <contour>
      <point x="405" y="570" type="line"/>
      <point x="530" y="700" type="line"/>
      <point x="443" y="700" type="line"/>
      <point x="329" y="599" type="line"/>
      <point x="379" y="599" type="line"/>
      <point x="305" y="700" type="line"/>
      <point x="232" y="700" type="line"/>
      <point x="311" y="570" type="line"/>
    </contour>
  </outline>
</glyph>
<glyph name="commaturnedabovecmb" format="2">
  <advance width="600"/>
  <unicode hex="0312"/>
  <outline>
    <contour>
      <point x="417" y="597" type="line"/>
      <point x="437" y="709" type="line"/>
      <point x="384" y="709" type="line"/>
      <point x="385" y="715" type="line" smooth="yes"/>
      <point x="392" y="754"/>
      <point x="418" y="767"/>
      <point x="459" y="767" type="curve"/>
      <point x="467" y="812" type="line"/>
      <point x="371" y="812"/>
      <point x="335" y="757"/>
      <point x="328" y="715" type="curve" smooth="yes"/>
      <point x="307" y="597" type="line"/>
    </contour>
  </outline>
</glyph>
<glyph name="horncmb" format="2">
  <advance width="600"/>
  <unicode hex="031B"/>
  <outline>
    <contour>
      <point x="375" y="609" type="line"/>
      <point x="378" y="573"/>
      <point x="379" y="553"/>
      <point x="377" y="538" type="curve" smooth="yes"/>
      <point x="369" y="495"/>
      <point x="346" y="490"/>
      <point x="311" y="490" type="curve" smooth="yes"/>
      <point x="273" y="490" type="line"/>
      <point x="263" y="433" type="line"/>
      <point x="313" y="433" type="line" smooth="yes"/>
      <point x="399" y="433"/>
      <point x="433" y="459"/>
      <point x="444" y="519" type="curve" smooth="yes"/>
      <point x="449" y="549"/>
      <point x="449" y="574"/>
      <point x="444" y="609" type="curve"/>
    </contour>
  </outline>
</glyph>
<glyph name="dotbelowcmb" format="2">
  <advance width="600"/>
  <unicode hex="0323"/>
  <outline>
    <contour>
      <point x="190" y="-68" type="line"/>
      <point x="170" y="-180" type="line"/>
      <point x="280" y="-180" type="line"/>
      <point x="300" y="-68" type="line"/>
    </contour>
  </outline>
</glyph>
<glyph name="commaaccentbelowcmb" format="2">
  <advance width="600"/>
  <unicode hex="0326"/>
  <outline>
    <contour>
      <point x="190" y="-68" type="line"/>
      <point x="170" y="-180" type="line"/>
      <point x="223" y="-180" type="line"/>
      <point x="222" y="-186" type="line" smooth="yes"/>
      <point x="215" y="-225"/>
      <point x="189" y="-238"/>
      <point x="148" y="-238" type="curve"/>
      <point x="140" y="-283" type="line"/>
      <point x="236" y="-283"/>
      <point x="272" y="-228"/>
      <point x="279" y="-186" type="curve" smooth="yes"/>
      <point x="300" y="-68" type="line"/>
    </contour>
  </outline>
</glyph>
<glyph name="cedillacmb" format="2">
  <advance width="600"/>
  <unicode hex="0327"/>
  <outline>
    <contour>
      <point x="98" y="-195" type="line"/>
      <point x="122" y="-207"/>
      <point x="161" y="-218"/>
      <point x="204" y="-218" type="curve" smooth="yes"/>
      <point x="287" y="-218"/>
      <point x="341" y="-178"/>
      <point x="341" y="-120" type="curve" smooth="yes"/>
      <point x="341" y="-79"/>
      <point x="310" y="-50"/>
      <point x="258" y="-50" type="curve" smooth="yes"/>
      <point x="239" y="-50"/>
      <point x="220" y="-52"/>
      <point x="192" y="-63" type="curve"/>
      <point x="211" y="-78" type="line"/>
      <point x="283" y="0" type="line"/>
      <point x="228" y="0" type="line"/>
      <point x="154" y="-80" type="line"/>
      <point x="167" y="-104" type="line"/>
      <point x="183" y="-100"/>
      <point x="195" y="-100"/>
      <point x="214" y="-100" type="curve" smooth="yes"/>
      <point x="237" y="-100"/>
      <point x="266" y="-104"/>
      <point x="266" y="-127" type="curve" smooth="yes"/>
      <point x="266" y="-155"/>
      <point x="238" y="-161"/>
      <point x="203" y="-161" type="curve" smooth="yes"/>
      <point x="162" y="-161"/>
      <point x="137" y="-151"/>
      <point x="114" y="-142" type="curve"/>
    </contour>
  </outline>
</glyph>
<glyph name="ogonekcmb" format="2">
  <advance width="600"/>
  <unicode hex="0328"/>
  <outline>
    <contour>
      <point x="243" y="-195" type="curve" smooth="yes"/>
      <point x="256" y="-195"/>
      <point x="282" y="-194"/>
      <point x="307" y="-184" type="curve"/>
      <point x="312" y="-129" type="line"/>
      <point x="298" y="-133"/>
      <point x="279" y="-135"/>
      <point x="263" y="-135" type="curve" smooth="yes"/>
      <point x="234" y="-135"/>
      <point x="221" y="-123"/>
      <point x="221" y="-102" type="curve" smooth="yes"/>
      <point x="221" y="-73"/>
      <point x="267" y="-30"/>
      <point x="326" y="0" type="curve"/>
      <point x="253" y="0" type="line"/>
      <point x="198" y="-26"/>
      <point x="147" y="-68"/>
      <point x="147" y="-126" type="curve" smooth="yes"/>
      <point x="147" y="-168"/>
      <point x="185" y="-195"/>
    </contour>
  </outline>
</glyph>
<glyph name="overlaystrokeshortcmb" format="2">
  <advance width="600"/>
  <unicode hex="0335"/>
  <outline>
    <contour>
      <point x="138" y="319" type="line"/>
      <point x="489" y="319" type="line"/>
      <point x="503" y="397" type="line"/>
      <point x="152" y="397" type="line"/>
    </contour>
  </outline>
</glyph>
<glyph name="lmacrondot" format="2">
  <advance width="600"/>
  <unicode hex="1E39"/>
  <outline>
    <contour>
      <point x="252" y="773" type="line"/>
      <point x="534" y="773" type="line"/>
      <point x="548" y="850" type="line"/>
      <point x="266" y="850" type="line"/>
    </contour>
    <component base="l"/>
    <component base="dotbelowcmb"/>
  </outline>
</glyph>
<glyph name="rlinebelow" format="2">
  <advance width="600"/>
  <unicode hex="1E5F"/>
  <outline>
    <contour>
      <point x="-17" y="-154" type="line"/>
      <point x="251" y="-154" type="line"/>
      <point x="264" y="-81" type="line"/>
      <point x="-4" y="-81" type="line"/>
    </contour>
    <component base="r"/>
  </outline>
</glyph>
<glyph name="Germandbls" format="2">
  <advance width="600"/>
  <unicode hex="1E9E"/>
  <outline>
    <contour>
      <point x="147" y="700" type="line"/>
      <point x="24" y="0" type="line"/>
      <point x="115" y="0" type="line"/>
      <point x="238" y="700" type="line"/>
    </contour>
    <contour>
      <point x="596" y="618" type="line"/>
      <point x="610" y="700" type="line"/>
      <point x="182" y="700" type="line"/>
      <point x="168" y="618" type="line"/>
      <point x="552" y="618" type="line"/>
      <point x="515" y="649" type="line"/>
      <point x="273" y="421" type="line"/>
      <point x="261" y="351" type="line"/>
      <point x="344" y="351" type="line" smooth="yes"/>
      <point x="428" y="351"/>
      <point x="480" y="307"/>
      <point x="480" y="229" type="curve" smooth="yes"/>
      <point x="480" y="141"/>
      <point x="427" y="68"/>
      <point x="328" y="68" type="curve" smooth="yes"/>
      <point x="285" y="68"/>
      <point x="243" y="75"/>
      <point x="201" y="88" type="curve"/>
      <point x="187" y="10" type="line"/>
      <point x="230" y="-4"/>
      <point x="276" y="-12"/>
      <point x="324" y="-12" type="curve" smooth="yes"/>
      <point x="484" y="-12"/>
      <point x="572" y="108"/>
      <point x="572" y="234" type="curve" smooth="yes"/>
      <point x="572" y="344"/>
      <point x="500" y="425"/>
      <point x="378" y="425" type="curve" smooth="yes"/>
      <point x="324" y="425" type="line"/>
      <point x="367" y="406" type="line"/>
    </contour>
  </outline>
</glyph>
<glyph name="Uhorntilde" format="2">
  <advance width="600"/>
  <unicode hex="1EEE"/>
  <outline>
    <contour>
      <point x="530" y="214" type="curve" smooth="yes"/>
      <point x="616" y="700" type="line"/>
      <point x="526" y="700" type="line"/>
      <point x="442" y="224" type="line" smooth="yes"/>
      <point x="425" y="126"/>
      <point x="379" y="71"/>
      <point x="277" y="71" type="curve" smooth="yes"/>
      <point x="198" y="71"/>
      <point x="148" y="115"/>
      <point x="148" y="191" type="curve" smooth="yes"/>
      <point x="148" y="202"/>
      <point x="149" y="214"/>
      <point x="151" y="226" type="curve" smooth="yes"/>
      <point x="235" y="700" type="line"/>
      <point x="144" y="700" type="line"/>
      <point x="62" y="233" type="line" smooth="yes"/>
      <point x="59" y="217"/>
      <point x="58" y="201"/>
      <point x="58" y="186" type="curve" smooth="yes"/>
      <point x="58" y="69"/>
      <point x="140" y="-12"/>
      <point x="274" y="-12" type="curve" smooth="yes"/>
      <point x="422" y="-12"/>
      <point x="507" y="81"/>
    </contour>
    <contour>
      <point x="640" y="819" type="line"/>
      <point x="642" y="793"/>
      <point x="643" y="773"/>
      <point x="640" y="752" type="curve" smooth="yes"/>
      <point x="635" y="715"/>
      <point x="616" y="700"/>
      <point x="585" y="700" type="curve" smooth="yes"/>
      <point x="527" y="700" type="line"/>
      <point x="516" y="636" type="line"/>
      <point x="585" y="636" type="line" smooth="yes"/>
      <point x="660" y="636"/>
      <point x="697" y="669"/>
      <point x="708" y="735" type="curve" smooth="yes"/>
      <point x="714" y="769"/>
      <point x="712" y="790"/>
      <point x="708" y="819" type="curve"/>
    </contour>
    <component base="tildecmb.uc"/>
  </outline>
</glyph>
<glyph name="endash" format="2">
  <advance width="600"/>
  <unicode hex="2013"/>
  <outline>
    <contour>
      <point x="72" y="260" type="line"/>
      <point x="534" y="260" type="line"/>
      <point x="546" y="332" type="line"/>
      <point x="84" y="332" type="line"/>
    </contour>
  </outline>
</glyph>
<glyph name="emdash" format="2">
  <advance width="600"/>
  <unicode hex="2014"/>
  <outline>
    <contour>
      <point x="39" y="260" type="line"/>
      <point x="567" y="260" type="line"/>
      <point x="579" y="332" type="line"/>
      <point x="51" y="332" type="line"/>
    </contour>
  </outline>
</glyph>
<glyph name="quotedblleft" format="2">
  <advance width="600"/>
  <unicode hex="201C"/>
  <outline>
    <contour>
      <point x="481" y="417" type="line"/>
      <point x="507" y="566" type="line"/>
      <point x="444" y="566" type="line"/>
      <point x="446" y="578" type="line" smooth="yes"/>
      <point x="455" y="633"/>
      <point x="489" y="656"/>
      <point x="544" y="656" type="curve"/>
      <point x="554" y="712" type="line"/>
      <point x="435" y="712"/>
      <point x="394" y="639"/>
      <point x="383" y="578" type="curve" smooth="yes"/>
      <point x="355" y="417" type="line"/>
    </contour>
    <contour>
      <point x="285" y="417" type="line"/>
      <point x="311" y="566" type="line"/>
      <point x="248" y="566" type="line"/>
      <point x="250" y="578" type="line" smooth="yes"/>
      <point x="259" y="633"/>
      <point x="293" y="656"/>
      <point x="348" y="656" type="curve"/>
      <point x="358" y="712" type="line"/>
      <point x="239" y="712"/>
      <point x="198" y="639"/>
      <point x="187" y="578" type="curve" smooth="yes"/>
      <point x="159" y="417" type="line"/>
    </contour>
  </outline>
</glyph>
<glyph name="quotedblright" format="2">
  <advance width="600"/>
  <unicode hex="201D"/>
  <outline>
    <contour>
      <point x="230" y="700" type="line"/>
      <point x="204" y="551" type="line"/>
      <point x="267" y="551" type="line"/>
      <point x="265" y="539" type="line" smooth="yes"/>
      <point x="256" y="484"/>
      <point x="222" y="461"/>
      <point x="167" y="461" type="curve"/>
      <point x="157" y="405" type="line"/>
      <point x="276" y="405"/>
      <point x="317" y="478"/>
      <point x="328" y="539" type="curve" smooth="yes"/>
      <point x="356" y="700" type="line"/>
    </contour>
    <contour>
      <point x="426" y="700" type="line"/>
      <point x="400" y="551" type="line"/>
      <point x="463" y="551" type="line"/>
      <point x="461" y="539" type="line" smooth="yes"/>
      <point x="452" y="484"/>
      <point x="418" y="461"/>
      <point x="363" y="461" type="curve"/>
      <point x="353" y="405" type="line"/>
      <point x="472" y="405"/>
      <point x="513" y="478"/>
      <point x="524" y="539" type="curve" smooth="yes"/>
      <point x="552" y="700" type="line"/>
    </contour>
  </outline>
</glyph>
<glyph name="quotedblbase" format="2">
  <advance width="600"/>
  <unicode hex="201E"/>
  <outline>
    <contour>
      <point x="133" y="149" type="line"/>
      <point x="107" y="0" type="line"/>
      <point x="170" y="0" type="line"/>
      <point x="168" y="-12" type="line" smooth="yes"/>
      <point x="159" y="-67"/>
      <point x="125" y="-90"/>
      <point x="70" y="-90" type="curve"/>
      <point x="60" y="-146" type="line"/>
      <point x="179" y="-146"/>
      <point x="220" y="-73"/>
      <point x="231" y="-12" type="curve" smooth="yes"/>
      <point x="259" y="149" type="line"/>
    </contour>
    <contour>
      <point x="329" y="149" type="line"/>
      <point x="303" y="0" type="line"/>
      <point x="366" y="0" type="line"/>
      <point x="364" y="-12" type="line" smooth="yes"/>
      <point x="355" y="-67"/>
      <point x="321" y="-90"/>
      <point x="266" y="-90" type="curve"/>
      <point x="256" y="-146" type="line"/>
      <point x="375" y="-146"/>
      <point x="416" y="-73"/>
      <point x="427" y="-12" type="curve" smooth="yes"/>
      <point x="455" y="149" type="line"/>
    </contour>
  </outline>
</glyph>
<glyph name="dagger" format="2">
  <advance width="600"/>
  <unicode hex="2020"/>
  <outline>
    <contour>
      <point x="255" y="193" type="line"/>
      <point x="327" y="193" type="line"/>
      <point x="416" y="700" type="line"/>
      <point x="344" y="700" type="line"/>
    </contour>
    <contour>
      <point x="187" y="557" type="line"/>
      <point x="175" y="490" type="line"/>
      <point x="511" y="490" type="line"/>
      <point x="523" y="557" type="line"/>
    </contour>
  </outline>
</glyph>
<glyph name="daggerdbl" format="2">
  <advance width="600"/>
  <unicode hex="2021"/>
  <outline>
    <contour>
      <point x="255" y="193" type="line"/>
      <point x="327" y="193" type="line"/>
      <point x="416" y="700" type="line"/>
      <point x="344" y="700" type="line"/>
    </contour>
    <contour>
      <point x="190" y="576" type="line"/>
      <point x="178" y="509" type="line"/>
      <point x="514" y="509" type="line"/>
      <point x="526" y="576" type="line"/>
    </contour>
    <contour>
      <point x="159" y="397" type="line"/>
      <point x="147" y="330" type="line"/>
      <point x="483" y="330" type="line"/>
      <point x="495" y="397" type="line"/>
    </contour>
  </outline>
</glyph>
<glyph name="ellipsis" format="2">
  <advance width="600"/>
  <unicode hex="2026"/>
  <outline>
    <contour>
      <point x="28" y="119" type="line"/>
      <point x="7" y="0" type="line"/>
      <point x="107" y="0" type="line"/>
      <point x="128" y="119" type="line"/>
    </contour>
    <contour>
      <point x="228" y="119" type="line"/>
      <point x="207" y="0" type="line"/>
      <point x="307" y="0" type="line"/>
      <point x="328" y="119" type="line"/>
    </contour>
    <contour>
      <point x="428" y="119" type="line"/>
      <point x="407" y="0" type="line"/>
      <point x="507" y="0" type="line"/>
      <point x="528" y="119" type="line"/>
    </contour>
  </outline>
</glyph>
<glyph name="perthousand" format="2">
  <advance width="600"/>
  <unicode hex="2030"/>
  <outline>
    <contour>
      <point x="261" y="582" type="curve" smooth="yes"/>
      <point x="261" y="544"/>
      <point x="244" y="459"/>
      <point x="186" y="459" type="curve" smooth="yes"/>
      <point x="158" y="459"/>
      <point x="136" y="479"/>
      <point x="136" y="526" type="curve" smooth="yes"/>
      <point x="136" y="567"/>
      <point x="155" y="648"/>
      <point x="214" y="648" type="curve" smooth="yes"/>
      <point x="240" y="648"/>
      <point x="261" y="627"/>
    </contour>
    <contour>
      <point x="250" y="154" type="curve" smooth="yes"/>
      <point x="250" y="120"/>
      <point x="236" y="52"/>
      <point x="192" y="52" type="curve" smooth="yes"/>
      <point x="169" y="52"/>
      <point x="153" y="66"/>
      <point x="153" y="103" type="curve" smooth="yes"/>
      <point x="153" y="135"/>
      <point x="168" y="205"/>
      <point x="211" y="205" type="curve" smooth="yes"/>
      <point x="234" y="205"/>
      <point x="250" y="191"/>
    </contour>
    <contour>
      <point x="503" y="154" type="curve" smooth="yes"/>
      <point x="503" y="120"/>
      <point x="489" y="52"/>
      <point x="445" y="52" type="curve" smooth="yes"/>
      <point x="422" y="52"/>
      <point x="406" y="66"/>
      <point x="406" y="103" type="curve" smooth="yes"/>
      <point x="406" y="135"/>
      <point x="421" y="205"/>
      <point x="464" y="205" type="curve" smooth="yes"/>
      <point x="487" y="205"/>
      <point x="503" y="191"/>
    </contour>
    <contour>
      <point x="73" y="525" type="curve" smooth="yes"/>
      <point x="73" y="449"/>
      <point x="113" y="402"/>
      <point x="181" y="402" type="curve" smooth="yes"/>
      <point x="286" y="402"/>
      <point x="324" y="512"/>
      <point x="324" y="583" type="curve" smooth="yes"/>
      <point x="324" y="660"/>
      <point x="281" y="705"/>
      <point x="218" y="705" type="curve" smooth="yes"/>
      <point x="113" y="705"/>
      <point x="73" y="599"/>
    </contour>
    <contour>
      <point x="90" y="104" type="curve" smooth="yes"/>
      <point x="90" y="37"/>
      <point x="127" y="-5"/>
      <point x="187" y="-5" type="curve" smooth="yes"/>
      <point x="266" y="-5"/>
      <point x="313" y="70"/>
      <point x="313" y="150" type="curve" smooth="yes"/>
      <point x="313" y="217"/>
      <point x="277" y="262"/>
      <point x="216" y="262" type="curve" smooth="yes"/>
      <point x="123" y="262"/>
      <point x="90" y="163"/>
    </contour>
    <contour>
      <point x="343" y="104" type="curve" smooth="yes"/>
      <point x="343" y="37"/>
      <point x="380" y="-5"/>
      <point x="440" y="-5" type="curve" smooth="yes"/>
      <point x="519" y="-5"/>
      <point x="566" y="70"/>
      <point x="566" y="150" type="curve" smooth="yes"/>
      <point x="566" y="217"/>
      <point x="530" y="262"/>
      <point x="469" y="262" type="curve" smooth="yes"/>
      <point x="376" y="262"/>
      <point x="343" y="163"/>
    </contour>
    <contour>
      <point x="645" y="623" type="line"/>
      <point x="23" y="262" type="line"/>
      <point x="11" y="188" type="line"/>
      <point x="633" y="549" type="line"/>
    </contour>
  </outline>
</glyph>
<glyph name="minute" format="2">
  <advance width="600"/>
  <unicode hex="2032"/>
  <outline>
    <contour>
      <point x="344" y="700" type="line"/>
      <point x="235" y="384" type="line"/>
      <point x="312" y="384" type="line"/>
      <point x="471" y="700" type="line"/>
    </contour>
  </outline>
</glyph>
<glyph name="second" format="2">
  <advance width="600"/>
  <unicode hex="2033"/>
  <outline>
    <contour>
      <point x="257" y="700" type="line"/>
      <point x="148" y="384" type="line"/>
      <point x="225" y="384" type="line"/>
      <point x="384" y="700" type="line"/>
    </contour>
    <contour>
      <point x="431" y="700" type="line"/>
      <point x="322" y="384" type="line"/>
      <point x="399" y="384" type="line"/>
      <point x="558" y="700" type="line"/>
    </contour>
  </outline>
</glyph>
<glyph name="guilsinglleft" format="2">
  <advance width="600"/>
  <unicode hex="2039"/>
  <outline>
    <contour>
      <point x="469" y="450" type="line"/>
      <point x="363" y="450" type="line"/>
      <point x="172" y="276" type="line"/>
      <point x="165" y="234" type="line"/>
      <point x="303" y="60" type="line"/>
      <point x="400" y="60" type="line"/>
      <point x="230" y="275" type="line"/>
      <point x="221" y="225" type="line"/>
    </contour>
  </outline>
</glyph>
<glyph name="fraction" format="2">
  <advance width="600"/>
  <unicode hex="2044"/>
  <outline>
    <contour>
      <point x="-6" y="0" type="line"/>
      <point x="74" y="0" type="line"/>
      <point x="643" y="700" type="line"/>
      <point x="563" y="700" type="line"/>
    </contour>
  </outline>
</glyph>
<glyph name="colonmonetary" format="2">
  <advance width="600"/>
  <unicode hex="20A1"/>
  <outline>
    <contour>
      <point x="585" y="477" type="line"/>
      <point x="583" y="615"/>
      <point x="526" y="712"/>
      <point x="399" y="712" type="curve" smooth="yes"/>
      <point x="203" y="712"/>
      <point x="82" y="479"/>
      <point x="82" y="250" type="curve" smooth="yes"/>
      <point x="82" y="88"/>
      <point x="158" y="-12"/>
      <point x="289" y="-12" type="curve" smooth="yes"/>
      <point x="407" y="-12"/>
      <point x="494" y="77"/>
      <point x="541" y="208" type="curve"/>
      <point x="466" y="227" type="line"/>
      <point x="436" y="139"/>
      <point x="381" y="60"/>
      <point x="299" y="60" type="curve" smooth="yes"/>
      <point x="212" y="60"/>
      <point x="169" y="130"/>
      <point x="169" y="246" type="curve" smooth="yes"/>
      <point x="169" y="432"/>
      <point x="248" y="638"/>
      <point x="389" y="638" type="curve" smooth="yes"/>
      <point x="482" y="638"/>
      <point x="510" y="559"/>
      <point x="510" y="466" type="curve"/>
    </contour>
    <contour>
      <point x="121" y="-112" type="line"/>
      <point x="184" y="-112" type="line"/>
      <point x="427" y="797" type="line"/>
      <point x="364" y="797" type="line"/>
    </contour>
    <contour>
      <point x="224" y="-112" type="line"/>
      <point x="287" y="-112" type="line"/>
      <point x="530" y="797" type="line"/>
      <point x="467" y="797" type="line"/>
    </contour>
  </outline>
</glyph>
<glyph name="newsheqel" format="2">
  <advance width="600"/>
  <unicode hex="20AA"/>
  <outline>
    <contour>
      <point x="311" y="700" type="line"/>
      <point x="440" y="700"/>
      <point x="475" y="640"/>
      <point x="456" y="530" type="curve" smooth="yes"/>
      <point x="395" y="184" type="line"/>
      <point x="318" y="184" type="line"/>
      <point x="378" y="528" type="line" smooth="yes"/>
      <point x="389" y="590"/>
      <point x="371" y="625"/>
      <point x="296" y="625" type="curve" smooth="yes"/>
      <point x="202" y="625" type="line"/>
      <point x="92" y="0" type="line"/>
      <point x="11" y="0" type="line"/>
      <point x="135" y="700" type="line"/>
    </contour>
    <contour>
      <point x="329" y="0" type="line"/>
      <point x="204" y="0"/>
      <point x="162" y="62"/>
      <point x="182" y="177" type="curve" smooth="yes"/>
      <point x="241" y="516" type="line"/>
      <point x="318" y="516" type="line"/>
      <point x="259" y="178" type="line" smooth="yes"/>
      <point x="247" y="110"/>
      <point x="266" y="75"/>
      <point x="343" y="75" type="curve" smooth="yes"/>
      <point x="434" y="75" type="line"/>
      <point x="544" y="700" type="line"/>
      <point x="625" y="700" type="line"/>
      <point x="501" y="0" type="line"/>
    </contour>
  </outline>
</glyph>
<glyph name="turkishlira" format="2">
  <advance width="600"/>
  <unicode hex="20BA"/>
  <outline>
    <contour>
      <point x="68" y="286" type="line"/>
      <point x="436" y="468" type="line"/>
      <point x="451" y="548" type="line"/>
      <point x="82" y="366" type="line"/>
    </contour>
    <contour>
      <point x="41" y="135" type="line"/>
      <point x="409" y="317" type="line"/>
      <point x="423" y="398" type="line"/>
      <point x="55" y="216" type="line"/>
    </contour>
    <contour>
      <point x="214" y="700" type="line"/>
      <point x="90" y="0" type="line"/>
      <point x="176" y="0" type="line"/>
      <point x="300" y="700" type="line"/>
    </contour>
    <contour>
      <point x="125" y="0" type="line"/>
      <point x="274" y="0" type="line" smooth="yes"/>
      <point x="434" y="0"/>
      <point x="525" y="82"/>
      <point x="571" y="224" type="curve"/>
      <point x="499" y="245" type="line"/>
      <point x="459" y="120"/>
      <point x="387" y="77"/>
      <point x="285" y="77" type="curve" smooth="yes"/>
      <point x="139" y="77" type="line"/>
    </contour>
  </outline>
</glyph>
<glyph name="trademark" format="2">
  <advance width="600"/>
  <unicode hex="2122"/>
  <outline>
    <contour>
      <point x="172" y="678" type="line"/>
      <point x="234" y="678" type="line"/>
      <point x="179" y="357" type="line"/>
      <point x="116" y="357" type="line"/>
    </contour>
    <contour>
      <point x="88" y="643" type="line"/>
      <point x="98" y="700" type="line"/>
      <point x="316" y="700" type="line"/>
      <point x="306" y="643" type="line"/>
    </contour>
    <contour>
      <point x="396" y="658" type="line"/>
      <point x="442" y="447" type="line"/>
      <point x="468" y="447" type="line"/>
      <point x="588" y="657" type="line"/>
      <point x="569" y="657" type="line"/>
      <point x="516" y="357" type="line"/>
      <point x="576" y="357" type="line"/>
      <point x="636" y="700" type="line"/>
      <point x="557" y="700" type="line"/>
      <point x="467" y="539" type="line"/>
      <point x="472" y="530" type="line"/>
      <point x="436" y="700" type="line"/>
      <point x="361" y="700" type="line"/>
      <point x="301" y="357" type="line"/>
      <point x="359" y="357" type="line"/>
      <point x="412" y="658" type="line"/>
    </contour>
  </outline>
</glyph>
<glyph name="onetenth" format="2">
  <advance width="600"/>
  <unicode hex="2152"/>
  <outline>
    <contour>
      <point x="225" y="0" type="line"/>
      <point x="290" y="0" type="line"/>
      <point x="338" y="274" type="line"/>
      <point x="279" y="274" type="line"/>
      <point x="271" y="226"/>
      <point x="255" y="212"/>
      <point x="194" y="212" type="curve"/>
      <point x="186" y="163" type="line"/>
      <point x="292" y="163" type="line"/>
      <point x="261" y="205" type="line"/>
    </contour>
    <contour>
      <point x="435" y="-5" type="curve" smooth="yes"/>
      <point x="509" y="-5"/>
      <point x="564" y="72"/>
      <point x="564" y="170" type="curve" smooth="yes"/>
      <point x="564" y="238"/>
      <point x="530" y="278"/>
      <point x="472" y="278" type="curve" smooth="yes"/>
      <point x="398" y="278"/>
      <point x="345" y="203"/>
      <point x="345" y="103" type="curve" smooth="yes"/>
      <point x="345" y="35"/>
      <point x="379" y="-5"/>
    </contour>
    <contour>
      <point x="123" y="386" type="line"/>
      <point x="190" y="386" type="line"/>
      <point x="245" y="700" type="line"/>
      <point x="186" y="700" type="line"/>
      <point x="177" y="646"/>
      <point x="158" y="629"/>
      <point x="88" y="629" type="curve"/>
      <point x="79" y="580" type="line"/>
      <point x="197" y="580" type="line"/>
      <point x="164" y="621" type="line"/>
    </contour>
    <contour>
      <point x="-43" y="0" type="line"/>
      <point x="29" y="0" type="line"/>
      <point x="510" y="700" type="line"/>
      <point x="438" y="700" type="line"/>
    </contour>
    <contour>
      <point x="441" y="48" type="curve" smooth="yes"/>
      <point x="419" y="48"/>
      <point x="406" y="64"/>
      <point x="406" y="99" type="curve" smooth="yes"/>
      <point x="406" y="168"/>
      <point x="431" y="226"/>
      <point x="469" y="226" type="curve" smooth="yes"/>
      <point x="490" y="226"/>
      <point x="503" y="210"/>
      <point x="503" y="177" type="curve" smooth="yes"/>
      <point x="503" y="110"/>
      <point x="477" y="48"/>
    </contour>
  </outline>
</glyph>
<glyph name="approxequal" format="2">
  <advance width="600"/>
  <unicode hex="2248"/>
  <outline>
    <contour>
      <point x="59" y="179" type="curve"/>
      <point x="130" y="179" type="line"/>
      <point x="139" y="211"/>
      <point x="156" y="228"/>
      <point x="187" y="228" type="curve" smooth="yes"/>
      <point x="235" y="228"/>
      <point x="332" y="182"/>
      <point x="401" y="182" type="curve" smooth="yes"/>
      <point x="462" y="182"/>
      <point x="515" y="218"/>
      <point x="537" y="305" type="curve"/>
      <point x="466" y="305" type="line"/>
      <point x="457" y="273"/>
      <point x="439" y="256"/>
      <point x="408" y="256" type="curve" smooth="yes"/>
      <point x="360" y="256"/>
      <point x="263" y="302"/>
      <point x="194" y="302" type="curve" smooth="yes"/>
      <point x="133" y="302"/>
      <point x="80" y="267"/>
    </contour>
    <contour>
      <point x="571" y="501" type="curve"/>
      <point x="500" y="501" type="line"/>
      <point x="491" y="469"/>
      <point x="474" y="452"/>
      <point x="443" y="452" type="curve" smooth="yes"/>
      <point x="395" y="452"/>
      <point x="298" y="498"/>
      <point x="229" y="498" type="curve" smooth="yes"/>
      <point x="168" y="498"/>
      <point x="115" y="463"/>
      <point x="93" y="375" type="curve"/>
      <point x="164" y="375" type="line"/>
      <point x="174" y="407"/>
      <point x="191" y="424"/>
      <point x="222" y="424" type="curve" smooth="yes"/>
      <point x="270" y="424"/>
      <point x="367" y="378"/>
      <point x="436" y="378" type="curve" smooth="yes"/>
      <point x="497" y="378"/>
      <point x="550" y="413"/>
    </contour>
  </outline>
</glyph>
<glyph name="notequal" format="2">
  <advance width="600"/>
  <unicode hex="2260"/>
  <outline>
    <contour>
      <point x="82" y="92" type="line"/>
      <point x="172" y="92" type="line"/>
      <point x="550" y="588" type="line"/>
      <point x="460" y="588" type="line"/>
    </contour>
    <component base="equal"/>
  </outline>
</glyph>
<glyph name="circlewhite" format="2">
  <advance width="600"/>
  <unicode hex="25CB"/>
  <outline>
    <contour>
      <point x="549" y="377" type="curve" smooth="yes"/>
      <point x="549" y="235"/>
      <point x="445" y="111"/>
      <point x="295" y="111" type="curve" smooth="yes"/>
      <point x="170" y="111"/>
      <point x="88" y="196"/>
      <point x="88" y="324" type="curve" smooth="yes"/>
      <point x="88" y="482"/>
      <point x="207" y="589"/>
      <point x="342" y="589" type="curve" smooth="yes"/>
      <point x="467" y="589"/>
      <point x="549" y="505"/>
    </contour>
    <contour>
      <point x="37" y="320" type="curve" smooth="yes"/>
      <point x="37" y="169"/>
      <point x="143" y="65"/>
      <point x="294" y="65" type="curve" smooth="yes"/>
      <point x="469" y="65"/>
      <point x="600" y="212"/>
      <point x="600" y="380" type="curve" smooth="yes"/>
      <point x="600" y="531"/>
      <point x="494" y="635"/>
      <point x="343" y="635" type="curve" smooth="yes"/>
      <point x="168" y="635"/>
      <point x="37" y="488"/>
    </contour>
  </outline>
</glyph>
<glyph name="circleblack" format="2">
  <advance width="600"/>
  <unicode hex="25CF"/>
  <outline>
    <contour>
      <point x="37" y="320" type="curve" smooth="yes"/>
      <point x="37" y="169"/>
      <point x="143" y="65"/>
      <point x="294" y="65" type="curve" smooth="yes"/>
      <point x="469" y="65"/>
      <point x="600" y="212"/>
      <point x="600" y="380" type="curve" smooth="yes"/>
      <point x="600" y="531"/>
      <point x="494" y="635"/>
      <point x="343" y="635" type="curve" smooth="yes"/>
      <point x="168" y="635"/>
      <point x="37" y="488"/>
    </contour>
  </outline>
</glyph>
<glyph name="onesanscircled" format="2">
  <advance width="600"/>
  <unicode hex="2780"/>
  <outline>
    <contour>
      <point x="329" y="507" type="line"/>
      <point x="319" y="453"/>
      <point x="304" y="436"/>
      <point x="230" y="436" type="curve"/>
      <point x="222" y="393" type="line"/>
      <point x="301" y="393" type="line"/>
      <point x="266" y="193" type="line"/>
      <point x="326" y="193" type="line"/>
      <point x="382" y="507" type="line"/>
    </contour>
    <component base="circlewhite"/>
  </outline>
</glyph>
<glyph name="twosanscircled" format="2">
  <advance width="600"/>
  <unicode hex="2781"/>
  <outline>
    <contour>
      <point x="192" y="248" type="curve"/>
      <point x="182" y="193" type="line"/>
      <point x="405" y="193" type="line"/>
      <point x="415" y="250" type="line"/>
      <point x="283" y="250" type="line"/>
      <point x="384" y="315"/>
      <point x="443" y="356"/>
      <point x="443" y="424" type="curve" smooth="yes"/>
      <point x="443" y="469"/>
      <point x="416" y="512"/>
      <point x="341" y="512" type="curve" smooth="yes"/>
      <point x="255" y="512"/>
      <point x="219" y="451"/>
      <point x="219" y="407" type="curve" smooth="yes"/>
      <point x="219" y="397"/>
      <point x="221" y="388"/>
      <point x="225" y="378" type="curve"/>
      <point x="287" y="384" type="line"/>
      <point x="284" y="392"/>
      <point x="282" y="399"/>
      <point x="282" y="405" type="curve" smooth="yes"/>
      <point x="282" y="424"/>
      <point x="297" y="457"/>
      <point x="334" y="457" type="curve" smooth="yes"/>
      <point x="360" y="457"/>
      <point x="375" y="441"/>
      <point x="375" y="416" type="curve" smooth="yes"/>
      <point x="375" y="370"/>
      <point x="325" y="343"/>
    </contour>
    <component base="circlewhite"/>
  </outline>
</glyph>
<glyph name="threesanscircled" format="2">
  <advance width="600"/>
  <unicode hex="2782"/>
  <outline>
    <contour>
      <point x="194" y="297" type="line"/>
      <point x="191" y="288"/>
      <point x="190" y="280"/>
      <point x="190" y="272" type="curve" smooth="yes"/>
      <point x="190" y="216"/>
      <point x="237" y="189"/>
      <point x="298" y="189" type="curve" smooth="yes"/>
      <point x="376" y="189"/>
      <point x="428" y="235"/>
      <point x="428" y="296" type="curve" smooth="yes"/>
      <point x="428" y="326"/>
      <point x="412" y="346"/>
      <point x="382" y="355" type="curve"/>
      <point x="413" y="364"/>
      <point x="444" y="387"/>
      <point x="444" y="432" type="curve" smooth="yes"/>
      <point x="444" y="476"/>
      <point x="411" y="512"/>
      <point x="343" y="512" type="curve" smooth="yes"/>
      <point x="278" y="512"/>
      <point x="223" y="475"/>
      <point x="217" y="409" type="curve"/>
      <point x="284" y="413" type="line"/>
      <point x="285" y="440"/>
      <point x="307" y="459"/>
      <point x="337" y="459" type="curve" smooth="yes"/>
      <point x="363" y="459"/>
      <point x="376" y="443"/>
      <point x="376" y="424" type="curve" smooth="yes"/>
      <point x="376" y="403"/>
      <point x="361" y="381"/>
      <point x="327" y="381" type="curve" smooth="yes"/>
      <point x="300" y="381" type="line"/>
      <point x="292" y="329" type="line"/>
      <point x="316" y="329" type="line" smooth="yes"/>
      <point x="347" y="329"/>
      <point x="361" y="313"/>
      <point x="361" y="292" type="curve" smooth="yes"/>
      <point x="361" y="267"/>
      <point x="342" y="242"/>
      <point x="304" y="242" type="curve" smooth="yes"/>
      <point x="273" y="242"/>
      <point x="257" y="258"/>
      <point x="257" y="278" type="curve" smooth="yes"/>
      <point x="257" y="283"/>
      <point x="258" y="288"/>
      <point x="260" y="293" type="curve"/>
    </contour>
    <component base="circlewhite"/>
  </outline>
</glyph>
<glyph name="foursanscircled" format="2">
  <advance width="600"/>
  <unicode hex="2783"/>
  <outline>
    <contour>
      <point x="415" y="507" type="line"/>
      <point x="343" y="507" type="line"/>
      <point x="173" y="319" type="line"/>
      <point x="163" y="265" type="line"/>
      <point x="308" y="265" type="line"/>
      <point x="295" y="193" type="line"/>
      <point x="359" y="193" type="line"/>
      <point x="372" y="265" type="line"/>
      <point x="425" y="265" type="line"/>
      <point x="434" y="318" type="line"/>
      <point x="381" y="318" type="line"/>
    </contour>
    <contour>
      <point x="241" y="318" type="line"/>
      <point x="336" y="423" type="line"/>
      <point x="317" y="318" type="line"/>
    </contour>
    <component base="circlewhite"/>
  </outline>
</glyph>
<glyph name="fivesanscircled" format="2">
  <advance width="600"/>
  <unicode hex="2784"/>
  <outline>
    <contour>
      <point x="424" y="320" type="curve" smooth="yes"/>
      <point x="424" y="372"/>
      <point x="396" y="406"/>
      <point x="343" y="406" type="curve" smooth="yes"/>
      <point x="319" y="406"/>
      <point x="299" y="399"/>
      <point x="284" y="388" type="curve"/>
      <point x="301" y="451" type="line"/>
      <point x="439" y="451" type="line"/>
      <point x="449" y="507" type="line"/>
      <point x="255" y="507" type="line"/>
      <point x="209" y="330" type="line"/>
      <point x="270" y="325" type="line"/>
      <point x="281" y="343"/>
      <point x="298" y="356"/>
      <point x="319" y="356" type="curve" smooth="yes"/>
      <point x="344" y="356"/>
      <point x="357" y="339"/>
      <point x="357" y="312" type="curve" smooth="yes"/>
      <point x="357" y="279"/>
      <point x="339" y="241"/>
      <point x="300" y="241" type="curve" smooth="yes"/>
      <point x="272" y="241"/>
      <point x="256" y="262"/>
      <point x="261" y="288" type="curve"/>
      <point x="191" y="296" type="line"/>
      <point x="190" y="291"/>
      <point x="189" y="285"/>
      <point x="189" y="279" type="curve" smooth="yes"/>
      <point x="189" y="222"/>
      <point x="232" y="189"/>
      <point x="297" y="189" type="curve" smooth="yes"/>
      <point x="378" y="189"/>
      <point x="424" y="250"/>
    </contour>
    <component base="circlewhite"/>
  </outline>
</glyph>
<glyph name="sixsanscircled" format="2">
  <advance width="600"/>
  <unicode hex="2785"/>
  <outline>
    <contour>
      <point x="290" y="189" type="curve" smooth="yes"/>
      <point x="376" y="189"/>
      <point x="421" y="257"/>
      <point x="421" y="317" type="curve" smooth="yes"/>
      <point x="421" y="370"/>
      <point x="386" y="401"/>
      <point x="337" y="401" type="curve" smooth="yes"/>
      <point x="311" y="401"/>
      <point x="287" y="392"/>
      <point x="269" y="376" type="curve"/>
      <point x="282" y="429"/>
      <point x="311" y="457"/>
      <point x="341" y="457" type="curve" smooth="yes"/>
      <point x="361" y="457"/>
      <point x="375" y="444"/>
      <point x="371" y="423" type="curve"/>
      <point x="435" y="416" type="line"/>
      <point x="436" y="421"/>
      <point x="436" y="426"/>
      <point x="436" y="431" type="curve" smooth="yes"/>
      <point x="436" y="478"/>
      <point x="406" y="511"/>
      <point x="348" y="511" type="curve" smooth="yes"/>
      <point x="273" y="511"/>
      <point x="212" y="446"/>
      <point x="194" y="346" type="curve" smooth="yes"/>
      <point x="190" y="325"/>
      <point x="189" y="308"/>
      <point x="189" y="292" type="curve" smooth="yes"/>
      <point x="189" y="228"/>
      <point x="223" y="189"/>
    </contour>
    <contour>
      <point x="255" y="285" type="curve" smooth="yes"/>
      <point x="255" y="318"/>
      <point x="277" y="352"/>
      <point x="313" y="352" type="curve" smooth="yes"/>
      <point x="340" y="352"/>
      <point x="353" y="334"/>
      <point x="353" y="308" type="curve" smooth="yes"/>
      <point x="353" y="274"/>
      <point x="331" y="240"/>
      <point x="295" y="240" type="curve" smooth="yes"/>
      <point x="268" y="240"/>
      <point x="255" y="259"/>
    </contour>
    <component base="circlewhite"/>
  </outline>
</glyph>
<glyph name="sevensanscircled" format="2">
  <advance width="600"/>
  <unicode hex="2786"/>
  <outline>
    <contour>
      <point x="239" y="507" type="line"/>
      <point x="218" y="390" type="line"/>
      <point x="281" y="390" type="line"/>
      <point x="291" y="452" type="line"/>
      <point x="392" y="452" type="line"/>
      <point x="318" y="371"/>
      <point x="250" y="286"/>
      <point x="229" y="193" type="curve"/>
      <point x="300" y="193" type="line"/>
      <point x="326" y="298"/>
      <point x="400" y="385"/>
      <point x="474" y="471" type="curve"/>
      <point x="481" y="507" type="line"/>
    </contour>
    <component base="circlewhite"/>
  </outline>
</glyph>
<glyph name="eightsanscircled" format="2">
  <advance width="600"/>
  <unicode hex="2787"/>
  <outline>
    <contour>
      <point x="428" y="295" type="curve" smooth="yes"/>
      <point x="428" y="327"/>
      <point x="409" y="347"/>
      <point x="381" y="358" type="curve"/>
      <point x="415" y="368"/>
      <point x="443" y="394"/>
      <point x="443" y="435" type="curve" smooth="yes"/>
      <point x="443" y="480"/>
      <point x="406" y="512"/>
      <point x="340" y="512" type="curve" smooth="yes"/>
      <point x="261" y="512"/>
      <point x="221" y="463"/>
      <point x="221" y="418" type="curve" smooth="yes"/>
      <point x="221" y="390"/>
      <point x="237" y="372"/>
      <point x="259" y="363" type="curve"/>
      <point x="219" y="351"/>
      <point x="187" y="321"/>
      <point x="187" y="273" type="curve" smooth="yes"/>
      <point x="187" y="223"/>
      <point x="229" y="189"/>
      <point x="296" y="189" type="curve" smooth="yes"/>
      <point x="383" y="189"/>
      <point x="428" y="245"/>
    </contour>
    <contour>
      <point x="285" y="419" type="curve" smooth="yes"/>
      <point x="285" y="441"/>
      <point x="306" y="461"/>
      <point x="336" y="461" type="curve" smooth="yes"/>
      <point x="362" y="461"/>
      <point x="378" y="448"/>
      <point x="378" y="428" type="curve" smooth="yes"/>
      <point x="378" y="405"/>
      <point x="357" y="384"/>
      <point x="326" y="384" type="curve" smooth="yes"/>
      <point x="301" y="384"/>
      <point x="285" y="398"/>
    </contour>
    <contour>
      <point x="362" y="295" type="curve" smooth="yes"/>
      <point x="362" y="271"/>
      <point x="343" y="239"/>
      <point x="302" y="239" type="curve" smooth="yes"/>
      <point x="272" y="239"/>
      <point x="254" y="256"/>
      <point x="254" y="281" type="curve" smooth="yes"/>
      <point x="254" y="305"/>
      <point x="271" y="335"/>
      <point x="313" y="335" type="curve" smooth="yes"/>
      <point x="343" y="335"/>
      <point x="362" y="320"/>
    </contour>
    <component base="circlewhite"/>
  </outline>
</glyph>
<glyph name="ninesanscircled" format="2">
  <advance width="600"/>
  <unicode hex="2788"/>
  <outline>
    <contour>
      <point x="338" y="512" type="curve" smooth="yes"/>
      <point x="254" y="512"/>
      <point x="208" y="448"/>
      <point x="208" y="386" type="curve" smooth="yes"/>
      <point x="208" y="331"/>
      <point x="245" y="300"/>
      <point x="295" y="300" type="curve" smooth="yes"/>
      <point x="320" y="300"/>
      <point x="343" y="308"/>
      <point x="361" y="324" type="curve"/>
      <point x="351" y="276"/>
      <point x="330" y="239"/>
      <point x="294" y="239" type="curve" smooth="yes"/>
      <point x="270" y="239"/>
      <point x="258" y="254"/>
      <point x="259" y="279" type="curve"/>
      <point x="191" y="289" type="line"/>
      <point x="191" y="284"/>
      <point x="190" y="280"/>
      <point x="190" y="274" type="curve" smooth="yes"/>
      <point x="190" y="222"/>
      <point x="225" y="189"/>
      <point x="288" y="189" type="curve" smooth="yes"/>
      <point x="371" y="189"/>
      <point x="414" y="245"/>
      <point x="433" y="353" type="curve" smooth="yes"/>
      <point x="438" y="376"/>
      <point x="440" y="394"/>
      <point x="440" y="410" type="curve" smooth="yes"/>
      <point x="440" y="471"/>
      <point x="404" y="512"/>
    </contour>
    <contour>
      <point x="317" y="349" type="curve" smooth="yes"/>
      <point x="293" y="349"/>
      <point x="276" y="365"/>
      <point x="276" y="394" type="curve" smooth="yes"/>
      <point x="276" y="427"/>
      <point x="297" y="460"/>
      <point x="332" y="460" type="curve" smooth="yes"/>
      <point x="356" y="460"/>
      <point x="373" y="444"/>
      <point x="373" y="415" type="curve" smooth="yes"/>
      <point x="373" y="381"/>
      <point x="352" y="349"/>
    </contour>
    <component base="circlewhite"/>
  </outline>
</glyph>
<glyph name="twosansnegativecircled" format="2">
  <advance width="600"/>
  <unicode hex="278B"/>
  <outline>
    <contour>
      <point x="194" y="242" type="line"/>
      <point x="329" y="341"/>
      <point x="379" y="369"/>
      <point x="379" y="417" type="curve" smooth="yes"/>
      <point x="379" y="445"/>
      <point x="363" y="461"/>
      <point x="335" y="461" type="curve" smooth="yes"/>
      <point x="292" y="461"/>
      <point x="278" y="425"/>
      <point x="278" y="406" type="curve" smooth="yes"/>
      <point x="278" y="400"/>
      <point x="279" y="393"/>
      <point x="283" y="385" type="curve"/>
      <point x="228" y="380" type="line"/>
      <point x="223" y="389"/>
      <point x="222" y="397"/>
      <point x="222" y="407" type="curve" smooth="yes"/>
      <point x="222" y="449"/>
      <point x="256" y="512"/>
      <point x="341" y="512" type="curve" smooth="yes"/>
      <point x="413" y="512"/>
      <point x="439" y="469"/>
      <point x="439" y="425" type="curve" smooth="yes"/>
      <point x="439" y="357"/>
      <point x="382" y="316"/>
      <point x="275" y="245" type="curve"/>
      <point x="411" y="245" type="line"/>
      <point x="402" y="193" type="line"/>
      <point x="185" y="193" type="line"/>
    </contour>
    <component base="circleblack"/>
  </outline>
</glyph>
<glyph name="threesansnegativecircled" format="2">
  <advance width="600"/>
  <unicode hex="278C"/>
  <outline>
    <contour>
      <point x="196" y="294" type="curve"/>
      <point x="255" y="290" type="line"/>
      <point x="253" y="285"/>
      <point x="252" y="281"/>
      <point x="252" y="276" type="curve" smooth="yes"/>
      <point x="252" y="255"/>
      <point x="268" y="237"/>
      <point x="302" y="237" type="curve" smooth="yes"/>
      <point x="343" y="237"/>
      <point x="364" y="264"/>
      <point x="364" y="290" type="curve" smooth="yes"/>
      <point x="364" y="313"/>
      <point x="349" y="331"/>
      <point x="316" y="331" type="curve" smooth="yes"/>
      <point x="292" y="331" type="line"/>
      <point x="300" y="379" type="line"/>
      <point x="326" y="379" type="line" smooth="yes"/>
      <point x="364" y="379"/>
      <point x="380" y="404"/>
      <point x="380" y="426" type="curve" smooth="yes"/>
      <point x="380" y="445"/>
      <point x="368" y="464"/>
      <point x="338" y="464" type="curve" smooth="yes"/>
      <point x="305" y="464"/>
      <point x="281" y="444"/>
      <point x="280" y="415" type="curve"/>
      <point x="220" y="412" type="line"/>
      <point x="225" y="476"/>
      <point x="280" y="512"/>
      <point x="343" y="512" type="curve" smooth="yes"/>
      <point x="406" y="512"/>
      <point x="440" y="477"/>
      <point x="440" y="431" type="curve" smooth="yes"/>
      <point x="440" y="386"/>
      <point x="410" y="364"/>
      <point x="379" y="355" type="curve"/>
      <point x="408" y="346"/>
      <point x="424" y="326"/>
      <point x="424" y="296" type="curve" smooth="yes"/>
      <point x="424" y="234"/>
      <point x="371" y="189"/>
      <point x="296" y="189" type="curve" smooth="yes"/>
      <point x="238" y="189"/>
      <point x="192" y="215"/>
      <point x="192" y="269" type="curve" smooth="yes"/>
      <point x="192" y="277"/>
      <point x="193" y="285"/>
    </contour>
    <component base="circleblack"/>
  </outline>
</glyph>
<glyph name="foursansnegativecircled" format="2">
  <advance width="600"/>
  <unicode hex="278D"/>
  <outline>
    <contour>
      <point x="412" y="507" type="line"/>
      <point x="378" y="315" type="line"/>
      <point x="431" y="315" type="line"/>
      <point x="422" y="266" type="line"/>
      <point x="369" y="266" type="line"/>
      <point x="356" y="193" type="line"/>
      <point x="297" y="193" type="line"/>
      <point x="310" y="266" type="line"/>
      <point x="165" y="266" type="line"/>
      <point x="174" y="317" type="line"/>
      <point x="347" y="507" type="line"/>
    </contour>
    <contour>
      <point x="237" y="315" type="line"/>
      <point x="319" y="315" type="line"/>
      <point x="339" y="426" type="line"/>
    </contour>
    <component base="circleblack"/>
  </outline>
</glyph>
<glyph name="fivesansnegativecircled" format="2">
  <advance width="600"/>
  <unicode hex="278E"/>
  <outline>
    <contour>
      <point x="420" y="320" type="curve" smooth="yes"/>
      <point x="420" y="248"/>
      <point x="370" y="189"/>
      <point x="294" y="189" type="curve" smooth="yes"/>
      <point x="232" y="189"/>
      <point x="191" y="222"/>
      <point x="191" y="277" type="curve" smooth="yes"/>
      <point x="191" y="283"/>
      <point x="192" y="289"/>
      <point x="193" y="293" type="curve"/>
      <point x="257" y="285" type="line"/>
      <point x="251" y="258"/>
      <point x="268" y="236"/>
      <point x="298" y="236" type="curve" smooth="yes"/>
      <point x="341" y="236"/>
      <point x="360" y="278"/>
      <point x="360" y="313" type="curve" smooth="yes"/>
      <point x="360" y="343"/>
      <point x="346" y="361"/>
      <point x="319" y="361" type="curve" smooth="yes"/>
      <point x="297" y="361"/>
      <point x="278" y="347"/>
      <point x="266" y="325" type="curve"/>
      <point x="212" y="329" type="line"/>
      <point x="258" y="507" type="line"/>
      <point x="445" y="507" type="line"/>
      <point x="436" y="457" type="line"/>
      <point x="299" y="457" type="line"/>
      <point x="280" y="386" type="line"/>
      <point x="296" y="397"/>
      <point x="316" y="405"/>
      <point x="340" y="405" type="curve" smooth="yes"/>
      <point x="392" y="405"/>
      <point x="420" y="372"/>
    </contour>
    <component base="circleblack"/>
  </outline>
</glyph>
<glyph name="sixsansnegativecircled" format="2">
  <advance width="600"/>
  <unicode hex="278F"/>
  <outline>
    <contour>
      <point x="289" y="189" type="curve" smooth="yes"/>
      <point x="225" y="189"/>
      <point x="191" y="228"/>
      <point x="191" y="290" type="curve" smooth="yes"/>
      <point x="191" y="306"/>
      <point x="193" y="324"/>
      <point x="197" y="345" type="curve" smooth="yes"/>
      <point x="214" y="446"/>
      <point x="275" y="511"/>
      <point x="348" y="511" type="curve" smooth="yes"/>
      <point x="404" y="511"/>
      <point x="433" y="478"/>
      <point x="433" y="433" type="curve" smooth="yes"/>
      <point x="433" y="428"/>
      <point x="432" y="421"/>
      <point x="431" y="418" type="curve"/>
      <point x="374" y="425" type="line"/>
      <point x="379" y="448"/>
      <point x="363" y="462"/>
      <point x="342" y="462" type="curve" smooth="yes"/>
      <point x="309" y="462"/>
      <point x="278" y="431"/>
      <point x="264" y="374" type="curve"/>
      <point x="283" y="392"/>
      <point x="308" y="401"/>
      <point x="334" y="401" type="curve" smooth="yes"/>
      <point x="381" y="401"/>
      <point x="418" y="370"/>
      <point x="418" y="317" type="curve" smooth="yes"/>
      <point x="418" y="257"/>
      <point x="372" y="189"/>
    </contour>
    <contour>
      <point x="250" y="284" type="curve" smooth="yes"/>
      <point x="250" y="257"/>
      <point x="264" y="236"/>
      <point x="294" y="236" type="curve" smooth="yes"/>
      <point x="332" y="236"/>
      <point x="356" y="271"/>
      <point x="356" y="308" type="curve" smooth="yes"/>
      <point x="356" y="335"/>
      <point x="343" y="356"/>
      <point x="314" y="356" type="curve" smooth="yes"/>
      <point x="275" y="356"/>
      <point x="250" y="321"/>
    </contour>
    <component base="circleblack"/>
  </outline>
</glyph>
<glyph name="sevensansnegativecircled" format="2">
  <advance width="600"/>
  <unicode hex="2790"/>
  <outline>
    <contour>
      <point x="242" y="507" type="line"/>
      <point x="478" y="507" type="line"/>
      <point x="472" y="477" type="line"/>
      <point x="401" y="389"/>
      <point x="322" y="297"/>
      <point x="295" y="193" type="curve"/>
      <point x="233" y="193" type="line"/>
      <point x="254" y="286"/>
      <point x="325" y="375"/>
      <point x="397" y="457" type="curve"/>
      <point x="289" y="457" type="line"/>
      <point x="278" y="393" type="line"/>
      <point x="222" y="393" type="line"/>
    </contour>
    <component base="circleblack"/>
  </outline>
</glyph>
<glyph name="eightsansnegativecircled" format="2">
  <advance width="600"/>
  <unicode hex="2791"/>
  <outline>
    <contour>
      <point x="424" y="295" type="curve" smooth="yes"/>
      <point x="424" y="245"/>
      <point x="378" y="189"/>
      <point x="295" y="189" type="curve" smooth="yes"/>
      <point x="231" y="189"/>
      <point x="190" y="223"/>
      <point x="190" y="273" type="curve" smooth="yes"/>
      <point x="190" y="320"/>
      <point x="222" y="351"/>
      <point x="262" y="363" type="curve"/>
      <point x="240" y="372"/>
      <point x="224" y="391"/>
      <point x="224" y="418" type="curve" smooth="yes"/>
      <point x="224" y="461"/>
      <point x="263" y="512"/>
      <point x="340" y="512" type="curve" smooth="yes"/>
      <point x="403" y="512"/>
      <point x="440" y="480"/>
      <point x="440" y="435" type="curve" smooth="yes"/>
      <point x="440" y="394"/>
      <point x="411" y="369"/>
      <point x="378" y="359" type="curve"/>
      <point x="405" y="348"/>
      <point x="424" y="328"/>
    </contour>
    <contour>
      <point x="280" y="419" type="curve" smooth="yes"/>
      <point x="280" y="397"/>
      <point x="298" y="382"/>
      <point x="325" y="382" type="curve" smooth="yes"/>
      <point x="358" y="382"/>
      <point x="381" y="405"/>
      <point x="381" y="429" type="curve" smooth="yes"/>
      <point x="381" y="451"/>
      <point x="364" y="465"/>
      <point x="336" y="465" type="curve" smooth="yes"/>
      <point x="304" y="465"/>
      <point x="280" y="444"/>
    </contour>
    <contour>
      <point x="364" y="295" type="curve" smooth="yes"/>
      <point x="364" y="321"/>
      <point x="344" y="337"/>
      <point x="312" y="337" type="curve" smooth="yes"/>
      <point x="268" y="337"/>
      <point x="249" y="305"/>
      <point x="249" y="279" type="curve" smooth="yes"/>
      <point x="249" y="253"/>
      <point x="268" y="235"/>
      <point x="300" y="235" type="curve" smooth="yes"/>
      <point x="345" y="235"/>
      <point x="364" y="269"/>
    </contour>
    <component base="circleblack"/>
  </outline>
</glyph>
<glyph name="ninesansnegativecircled" format="2">
  <advance width="600"/>
  <unicode hex="2792"/>
  <outline>
    <contour>
      <point x="338" y="512" type="curve" smooth="yes"/>
      <point x="399" y="512"/>
      <point x="437" y="474"/>
      <point x="437" y="412" type="curve" smooth="yes"/>
      <point x="437" y="396"/>
      <point x="434" y="377"/>
      <point x="429" y="353" type="curve" smooth="yes"/>
      <point x="410" y="245"/>
      <point x="367" y="189"/>
      <point x="286" y="189" type="curve" smooth="yes"/>
      <point x="224" y="189"/>
      <point x="192" y="222"/>
      <point x="192" y="271" type="curve" smooth="yes"/>
      <point x="192" y="277"/>
      <point x="193" y="281"/>
      <point x="193" y="286" type="curve"/>
      <point x="254" y="277" type="line"/>
      <point x="253" y="250"/>
      <point x="267" y="235"/>
      <point x="293" y="235" type="curve" smooth="yes"/>
      <point x="332" y="235"/>
      <point x="353" y="273"/>
      <point x="365" y="325" type="curve"/>
      <point x="347" y="308"/>
      <point x="323" y="299"/>
      <point x="298" y="299" type="curve" smooth="yes"/>
      <point x="249" y="299"/>
      <point x="211" y="331"/>
      <point x="211" y="386" type="curve" smooth="yes"/>
      <point x="211" y="449"/>
      <point x="258" y="512"/>
    </contour>
    <contour>
      <point x="271" y="393" type="curve" smooth="yes"/>
      <point x="271" y="362"/>
      <point x="290" y="345"/>
      <point x="316" y="345" type="curve" smooth="yes"/>
      <point x="354" y="345"/>
      <point x="377" y="381"/>
      <point x="377" y="416" type="curve" smooth="yes"/>
      <point x="377" y="447"/>
      <point x="357" y="464"/>
      <point x="332" y="464" type="curve" smooth="yes"/>
      <point x="293" y="464"/>
      <point x="271" y="429"/>
    </contour>
    <component base="circleblack"/>
  </outline>
</glyph>
<glyph name="tensansnegativecircled" format="2">
  <advance width="600"/>
  <unicode hex="2793"/>
  <outline>
    <contour>
      <point x="497" y="398" type="curve" smooth="yes"/>
      <point x="497" y="321"/>
      <point x="467" y="189"/>
      <point x="364" y="189" type="curve" smooth="yes"/>
      <point x="311" y="189"/>
      <point x="276" y="227"/>
      <point x="276" y="303" type="curve" smooth="yes"/>
      <point x="276" y="379"/>
      <point x="308" y="512"/>
      <point x="409" y="512" type="curve" smooth="yes"/>
      <point x="463" y="512"/>
      <point x="497" y="474"/>
    </contour>
    <contour>
      <point x="226" y="507" type="curve"/>
      <point x="281" y="507" type="line"/>
      <point x="226" y="193" type="line"/>
      <point x="167" y="193" type="line"/>
      <point x="200" y="384" type="line"/>
      <point x="139" y="384" type="line"/>
      <point x="148" y="436" type="line"/>
      <point x="203" y="436"/>
      <point x="217" y="453"/>
    </contour>
    <contour>
      <point x="369" y="247" type="curve" smooth="yes"/>
      <point x="424" y="247"/>
      <point x="435" y="361"/>
      <point x="435" y="399" type="curve" smooth="yes"/>
      <point x="435" y="437"/>
      <point x="425" y="453"/>
      <point x="404" y="453" type="curve" smooth="yes"/>
      <point x="350" y="453"/>
      <point x="339" y="334"/>
      <point x="339" y="300" type="curve" smooth="yes"/>
      <point x="339" y="264"/>
      <point x="349" y="247"/>
    </contour>
    <component base="circleblack"/>
  </outline>
</glyph>
<glyph name="R.alt1" format="2">
  <advance width="600"/>
  <outline>
    <contour>
      <point x="177" y="700" type="line"/>
      <point x="53" y="0" type="line"/>
      <point x="144" y="0" type="line"/>
      <point x="268" y="700" type="line"/>
    </contour>
    <contour>
      <point x="593" y="522" type="curve" smooth="yes"/>
      <point x="593" y="629"/>
      <point x="521" y="700"/>
      <point x="406" y="700" type="curve" smooth="yes"/>
      <point x="225" y="700" type="line"/>
      <point x="210" y="619" type="line"/>
      <point x="392" y="619" type="line" smooth="yes"/>
      <point x="460" y="619"/>
      <point x="501" y="584"/>
      <point x="501" y="516" type="curve" smooth="yes"/>
      <point x="501" y="447"/>
      <point x="458" y="373"/>
      <point x="348" y="373" type="curve" smooth="yes"/>
      <point x="162" y="373" type="line"/>
      <point x="148" y="293" type="line"/>
      <point x="383" y="293" type="line" smooth="yes"/>
      <point x="408" y="293"/>
      <point x="426" y="271"/>
      <point x="426" y="222" type="curve" smooth="yes"/>
      <point x="426" y="186"/>
      <point x="403" y="75"/>
      <point x="403" y="45" type="curve" smooth="yes"/>
      <point x="403" y="27"/>
      <point x="406" y="13"/>
      <point x="415" y="0" type="curve"/>
      <point x="506" y="0" type="line"/>
      <point x="508" y="11" type="line"/>
      <point x="500" y="19"/>
      <point x="497" y="35"/>
      <point x="497" y="54" type="curve" smooth="yes"/>
      <point x="497" y="93"/>
      <point x="515" y="189"/>
      <point x="515" y="221" type="curve" smooth="yes"/>
      <point x="515" y="279"/>
      <point x="483" y="324"/>
      <point x="419" y="339" type="curve"/>
      <point x="416" y="320" type="line"/>
      <point x="534" y="338"/>
      <point x="593" y="429"/>
    </contour>
  </outline>
</glyph>
<glyph name="acutecmb.uc" format="2">
  <advance width="600"/>
  <outline>
    <contour>
      <point x="418" y="892" type="line"/>
      <point x="523" y="892" type="line"/>
      <point x="402" y="771" type="line"/>
      <point x="318" y="771" type="line"/>
    </contour>
  </outline>
</glyph>
<glyph name="backslash.uc" format="2">
  <advance width="600"/>
  <outline>
    <contour>
      <point x="226" y="745" type="line"/>
      <point x="141" y="745" type="line"/>
      <point x="414" y="-83" type="line"/>
      <point x="499" y="-83" type="line"/>
    </contour>
  </outline>
</glyph>
<glyph name="bar.uc" format="2">
  <advance width="600"/>
  <outline>
    <contour>
      <point x="343" y="745" type="line"/>
      <point x="197" y="-83" type="line"/>
      <point x="287" y="-83" type="line"/>
      <point x="433" y="745" type="line"/>
    </contour>
  </outline>
</glyph>
<glyph name="braceleft.uc" format="2">
  <advance width="600"/>
  <outline>
    <contour>
      <point x="327" y="187" type="line"/>
      <point x="341" y="266"/>
      <point x="336" y="311"/>
      <point x="277" y="331" type="curve"/>
      <point x="343" y="351"/>
      <point x="364" y="396"/>
      <point x="378" y="475" type="curve" smooth="yes"/>
      <point x="396" y="578" type="line" smooth="yes"/>
      <point x="408" y="645"/>
      <point x="434" y="674"/>
      <point x="505" y="674" type="curve" smooth="yes"/>
      <point x="543" y="674" type="line"/>
      <point x="555" y="745" type="line"/>
      <point x="492" y="745" type="line" smooth="yes"/>
      <point x="386" y="745"/>
      <point x="327" y="689"/>
      <point x="310" y="594" type="curve" smooth="yes"/>
      <point x="285" y="453" type="line" smooth="yes"/>
      <point x="274" y="390"/>
      <point x="242" y="368"/>
      <point x="192" y="368" type="curve" smooth="yes"/>
      <point x="155" y="368" type="line"/>
      <point x="142" y="294" type="line"/>
      <point x="179" y="294" type="line" smooth="yes"/>
      <point x="229" y="294"/>
      <point x="253" y="272"/>
      <point x="242" y="209" type="curve" smooth="yes"/>
      <point x="220" y="88" type="line" smooth="yes"/>
      <point x="200" y="-21"/>
      <point x="258" y="-83"/>
      <point x="376" y="-83" type="curve" smooth="yes"/>
      <point x="409" y="-83" type="line"/>
      <point x="422" y="-11" type="line"/>
      <point x="394" y="-11" type="line" smooth="yes"/>
      <point x="321" y="-11"/>
      <point x="298" y="29"/>
      <point x="308" y="83" type="curve" smooth="yes"/>
    </contour>
  </outline>
</glyph>
